{
.appVersion = "926";
DisplayStrings = (
"etg\012eeeeee\012"
);
copyright = "Copyright (c) 26.12.2011, Johan Aakerlund (aajohan@gmail.com), with Reserved Font Name \"Comfortaa\"";
customParameters = (
{
name = license;
value = "This Font Software is licensed under the SIL Open Font License, Version 1.1. This license is available with a FAQ at: http://scripts.sil.org/OFL";
},
{
name = licenseURL;
value = "http://scripts.sil.org/OFL";
},
{
name = fsType;
value = (
);
},
{
name = "Use Typo Metrics";
value = 1;
},
{
name = "Disable Last Change";
value = 1;
},
{
name = "Use Line Breaks";
value = 1;
}
);
date = "2016-10-19 22:25:16 +0000";
designer = "Johan Aakerlund - aajohan";
designerURL = "http://aajohan.deviantart.com";
familyName = Comfortaa;
featurePrefixes = (
{
code = "languagesystem latn dflt;";
name = "FontLab OTPanel";
}
);
fontMaster = (
{
alignmentZones = (
"{781, 16}",
"{781, 16}",
"{547, 16}",
"{0, -16}",
"{-234, -16}"
);
ascender = 781;
capHeight = 781;
descender = -234;
id = "E42B920F-7E89-45C7-8F78-304483CE0F77";
userData = {
noodleExtremesAndInflections = 1;
noodleRemoveOverlap = 0;
noodleThickness = "54.0";
};
weight = Light;
weightValue = 0;
xHeight = 547;
},
{
alignmentZones = (
"{781, 16}",
"{781, 16}",
"{547, 16}",
"{0, -16}",
"{-234, -16}"
);
ascender = 781;
capHeight = 781;
descender = -234;
id = "952115DE-4B60-44C8-B7C0-A1F0450151B4";
userData = {
noodleExtremesAndInflections = 1;
noodleRemoveOverlap = 0;
noodleThickness = "56.0";
};
weight = SemiLight;
weightValue = 60;
xHeight = 547;
},
{
alignmentZones = (
"{781, 16}",
"{781, 16}",
"{547, 16}",
"{0, -16}",
"{-234, -16}"
);
ascender = 781;
capHeight = 781;
descender = -234;
id = UUID0;
userData = {
noodleExtremesAndInflections = 1;
noodleRemoveOverlap = 0;
noodleThickness = "90.0";
};
weight = Bold;
weightValue = 104;
xHeight = 547;
}
);
glyphs = (
{
glyphname = A;
layers = (
{
layerId = UUID0;
paths = (
{
closed = 1;
nodes = (
"108 0 OFFCURVE",
"130 13 OFFCURVE",
"137 32 CURVE SMOOTH",
"228 264 LINE",
"478 264 LINE",
"568 32 LINE SMOOTH",
"576 13 OFFCURVE",
"596 0 OFFCURVE",
"616 0 CURVE SMOOTH",
"645 0 OFFCURVE",
"668 23 OFFCURVE",
"668 52 CURVE SMOOTH",
"668 59 OFFCURVE",
"667 66 OFFCURVE",
"664 73 CURVE SMOOTH",
"402 746 LINE",
"393 770 OFFCURVE",
"376 781 OFFCURVE",
"353 781 CURVE SMOOTH",
"331 781 OFFCURVE",
"314 770 OFFCURVE",
"304 746 CURVE",
"43 75 LINE SMOOTH",
"40 66 OFFCURVE",
"38 59 OFFCURVE",
"38 52 CURVE SMOOTH",
"38 23 OFFCURVE",
"60 0 OFFCURVE",
"89 0 CURVE SMOOTH"
);
},
{
closed = 1;
nodes = (
"353 586 LINE",
"438 367 LINE",
"268 367 LINE"
);
}
);
width = 703;
},
{
layerId = "952115DE-4B60-44C8-B7C0-A1F0450151B4";
paths = (
{
closed = 1;
nodes = (
"82 0 OFFCURVE",
"92 5 OFFCURVE",
"97 19 CURVE SMOOTH",
"199 280 LINE",
"500 280 LINE",
"602 19 LINE",
"608 5 OFFCURVE",
"617 0 OFFCURVE",
"630 0 CURVE SMOOTH",
"646 0 OFFCURVE",
"660 13 OFFCURVE",
"660 30 CURVE SMOOTH",
"660 35 OFFCURVE",
"659 39 OFFCURVE",
"657 43 CURVE SMOOTH",
"379 760 LINE SMOOTH",
"374 774 OFFCURVE",
"363 781 OFFCURVE",
"350 781 CURVE SMOOTH",
"335 781 OFFCURVE",
"326 773 OFFCURVE",
"321 760 CURVE SMOOTH",
"42 43 LINE SMOOTH",
"40 39 OFFCURVE",
"39 35 OFFCURVE",
"39 30 CURVE SMOOTH",
"39 13 OFFCURVE",
"52 0 OFFCURVE",
"69 0 CURVE SMOOTH"
);
},
{
closed = 1;
nodes = (
"350 668 LINE",
"477 340 LINE",
"223 340 LINE"
);
}
);
width = 703;
},
{
layerId = "E42B920F-7E89-45C7-8F78-304483CE0F77";
width = 600;
}
);
unicode = 0041;
},
{
glyphname = Aringacute;
layers = (
{
layerId = "E42B920F-7E89-45C7-8F78-304483CE0F77";
width = 600;
},
{
layerId = UUID0;
paths = (
{
closed = 1;
nodes = (
"109 0 OFFCURVE",
"126 10 OFFCURVE",
"138 32 CURVE",
"229 266 LINE",
"481 266 LINE",
"572 32 LINE",
"582 12 OFFCURVE",
"600 0 OFFCURVE",
"621 0 CURVE SMOOTH",
"650 0 OFFCURVE",
"673 22 OFFCURVE",
"673 52 CURVE SMOOTH",
"673 59 OFFCURVE",
"671 65 OFFCURVE",
"668 73 CURVE SMOOTH",
"415 728 LINE",
"448 750 OFFCURVE",
"464 784 OFFCURVE",
"464 821 CURVE SMOOTH",
"464 865 OFFCURVE",
"437 909 OFFCURVE",
"392 925 CURVE",
"402 937 OFFCURVE",
"407 949 OFFCURVE",
"407 962 CURVE SMOOTH",
"407 991 OFFCURVE",
"384 1015 OFFCURVE",
"355 1015 CURVE SMOOTH",
"341 1015 OFFCURVE",
"329 1010 OFFCURVE",
"318 1000 CURVE SMOOTH",
"279 959 LINE SMOOTH",
"269 950 OFFCURVE",
"265 938 OFFCURVE",
"265 925 CURVE SMOOTH",
"265 915 OFFCURVE",
"268 905 OFFCURVE",
"274 896 CURVE",
"254 874 OFFCURVE",
"245 849 OFFCURVE",
"245 821 CURVE SMOOTH",
"245 786 OFFCURVE",
"262 748 OFFCURVE",
"296 728 CURVE",
"42 73 LINE SMOOTH",
"39 66 OFFCURVE",
"38 60 OFFCURVE",
"38 52 CURVE SMOOTH",
"38 22 OFFCURVE",
"60 0 OFFCURVE",
"90 0 CURVE SMOOTH"
);
},
{
closed = 1;
nodes = (
"355 591 LINE",
"441 370 LINE",
"270 370 LINE"
);
},
{
closed = 1;
nodes = (
"335 788 OFFCURVE",
"321 803 OFFCURVE",
"321 821 CURVE SMOOTH",
"321 839 OFFCURVE",
"335 854 OFFCURVE",
"355 854 CURVE SMOOTH",
"373 854 OFFCURVE",
"388 839 OFFCURVE",
"388 821 CURVE SMOOTH",
"388 803 OFFCURVE",
"373 788 OFFCURVE",
"355 788 CURVE SMOOTH"
);
}
);
width = 703;
},
{
layerId = "952115DE-4B60-44C8-B7C0-A1F0450151B4";
paths = (
{
closed = 1;
nodes = (
"82 0 OFFCURVE",
"93 7 OFFCURVE",
"98 19 CURVE SMOOTH",
"200 280 LINE",
"501 280 LINE",
"603 19 LINE SMOOTH",
"607 7 OFFCURVE",
"617 0 OFFCURVE",
"631 0 CURVE SMOOTH",
"647 0 OFFCURVE",
"661 13 OFFCURVE",
"661 30 CURVE SMOOTH",
"661 35 OFFCURVE",
"660 39 OFFCURVE",
"658 43 CURVE SMOOTH",
"381 756 LINE",
"423 774 OFFCURVE",
"440 807 OFFCURVE",
"440 842 CURVE SMOOTH",
"440 894 OFFCURVE",
"398 932 OFFCURVE",
"348 932 CURVE SMOOTH",
"345 932 OFFCURVE",
"342 931 OFFCURVE",
"338 931 CURVE",
"372 965 LINE SMOOTH",
"377 970 OFFCURVE",
"380 978 OFFCURVE",
"380 986 CURVE SMOOTH",
"380 1003 OFFCURVE",
"367 1016 OFFCURVE",
"350 1016 CURVE SMOOTH",
"342 1016 OFFCURVE",
"334 1013 OFFCURVE",
"329 1007 CURVE SMOOTH",
"287 966 LINE",
"282 959 OFFCURVE",
"279 953 OFFCURVE",
"279 946 CURVE SMOOTH",
"279 935 OFFCURVE",
"286 923 OFFCURVE",
"297 918 CURVE",
"274 898 OFFCURVE",
"259 867 OFFCURVE",
"259 842 CURVE SMOOTH",
"259 805 OFFCURVE",
"275 776 OFFCURVE",
"320 755 CURVE",
"42 43 LINE SMOOTH",
"41 39 OFFCURVE",
"40 35 OFFCURVE",
"40 30 CURVE SMOOTH",
"40 13 OFFCURVE",
"53 0 OFFCURVE",
"70 0 CURVE SMOOTH"
);
},
{
closed = 1;
nodes = (
"350 668 LINE",
"478 340 LINE",
"223 340 LINE"
);
},
{
closed = 1;
nodes = (
"320 789 OFFCURVE",
"296 813 OFFCURVE",
"296 842 CURVE SMOOTH",
"296 871 OFFCURVE",
"320 895 OFFCURVE",
"350 895 CURVE SMOOTH",
"379 895 OFFCURVE",
"403 871 OFFCURVE",
"403 842 CURVE SMOOTH",
"403 813 OFFCURVE",
"379 789 OFFCURVE",
"350 789 CURVE SMOOTH"
);
}
);
width = 703;
}
);
unicode = 01FA;
},
{
glyphname = AE;
layers = (
{
layerId = UUID0;
paths = (
{
closed = 1;
nodes = (
"109 0 OFFCURVE",
"124 8 OFFCURVE",
"134 23 CURVE",
"289 301 LINE",
"416 301 LINE",
"416 52 LINE SMOOTH",
"416 22 OFFCURVE",
"438 0 OFFCURVE",
"467 0 CURVE SMOOTH",
"769 0 LINE SMOOTH",
"798 0 OFFCURVE",
"820 22 OFFCURVE",
"820 52 CURVE SMOOTH",
"820 81 OFFCURVE",
"798 104 OFFCURVE",
"769 104 CURVE SMOOTH",
"519 104 LINE",
"519 301 LINE",
"693 301 LINE SMOOTH",
"723 301 OFFCURVE",
"745 324 OFFCURVE",
"745 353 CURVE SMOOTH",
"745 382 OFFCURVE",
"723 405 OFFCURVE",
"693 405 CURVE SMOOTH",
"519 405 LINE",
"519 678 LINE",
"769 678 LINE SMOOTH",
"798 678 OFFCURVE",
"820 700 OFFCURVE",
"820 729 CURVE SMOOTH",
"820 759 OFFCURVE",
"798 781 OFFCURVE",
"769 781 CURVE SMOOTH",
"467 781 LINE SMOOTH",
"447 781 OFFCURVE",
"432 773 OFFCURVE",
"423 757 CURVE SMOOTH",
"46 78 LINE SMOOTH",
"42 69 OFFCURVE",
"39 62 OFFCURVE",
"39 52 CURVE SMOOTH",
"39 22 OFFCURVE",
"62 0 OFFCURVE",
"91 0 CURVE SMOOTH"
);
},
{
closed = 1;
nodes = (
"416 529 LINE",
"416 405 LINE",
"347 405 LINE"
);
}
);
width = 859;
},
{
layerId = "952115DE-4B60-44C8-B7C0-A1F0450151B4";
paths = (
{
closed = 1;
nodes = (
"80 0 OFFCURVE",
"88 5 OFFCURVE",
"94 14 CURVE",
"265 320 LINE",
"439 320 LINE",
"439 30 LINE SMOOTH",
"439 13 OFFCURVE",
"452 0 OFFCURVE",
"469 0 CURVE SMOOTH",
"790 0 LINE SMOOTH",
"807 0 OFFCURVE",
"820 13 OFFCURVE",
"820 30 CURVE SMOOTH",
"820 46 OFFCURVE",
"807 60 OFFCURVE",
"790 60 CURVE SMOOTH",
"500 60 LINE",
"500 320 LINE",
"710 320 LINE SMOOTH",
"726 320 OFFCURVE",
"740 333 OFFCURVE",
"740 351 CURVE SMOOTH",
"740 368 OFFCURVE",
"726 380 OFFCURVE",
"710 380 CURVE SMOOTH",
"500 380 LINE",
"500 721 LINE",
"790 721 LINE SMOOTH",
"807 721 OFFCURVE",
"820 735 OFFCURVE",
"820 751 CURVE SMOOTH",
"820 768 OFFCURVE",
"807 781 OFFCURVE",
"790 781 CURVE SMOOTH",
"469 781 LINE SMOOTH",
"458 781 OFFCURVE",
"449 777 OFFCURVE",
"444 768 CURVE SMOOTH",
"42 44 LINE",
"40 41 OFFCURVE",
"39 36 OFFCURVE",
"39 30 CURVE SMOOTH",
"39 13 OFFCURVE",
"52 0 OFFCURVE",
"69 0 CURVE SMOOTH"
);
},
{
closed = 1;
nodes = (
"439 635 LINE",
"439 380 LINE",
"298 380 LINE"
);
}
);
width = 859;
},
{
layerId = "E42B920F-7E89-45C7-8F78-304483CE0F77";
width = 600;
}
);
unicode = 00C6;
},
{
glyphname = B;
layers = (
{
layerId = UUID0;
paths = (
{
closed = 1;
nodes = (
"276 0 LINE SMOOTH",
"408 0 OFFCURVE",
"516 109 OFFCURVE",
"516 240 CURVE SMOOTH",
"516 325 OFFCURVE",
"474 403 OFFCURVE",
"395 450 CURVE",
"426 486 OFFCURVE",
"441 530 OFFCURVE",
"441 579 CURVE SMOOTH",
"441 690 OFFCURVE",
"350 781 OFFCURVE",
"239 781 CURVE SMOOTH",
"88 781 LINE SMOOTH",
"60 781 OFFCURVE",
"36 758 OFFCURVE",
"36 729 CURVE SMOOTH",
"36 52 LINE SMOOTH",
"36 23 OFFCURVE",
"60 0 OFFCURVE",
"88 0 CURVE SMOOTH"
);
},
{
closed = 1;
nodes = (
"140 376 LINE",
"276 376 LINE SMOOTH",
"351 376 OFFCURVE",
"413 315 OFFCURVE",
"413 240 CURVE SMOOTH",
"413 165 OFFCURVE",
"352 104 OFFCURVE",
"276 104 CURVE SMOOTH",
"140 104 LINE"
);
},
{
closed = 1;
nodes = (
"140 678 LINE",
"239 678 LINE SMOOTH",
"292 678 OFFCURVE",
"337 632 OFFCURVE",
"337 579 CURVE SMOOTH",
"337 525 OFFCURVE",
"293 480 OFFCURVE",
"239 480 CURVE SMOOTH",
"140 480 LINE"
);
}
);
width = 547;
},
{
layerId = "952115DE-4B60-44C8-B7C0-A1F0450151B4";
paths = (
{
closed = 1;
nodes = (
"270 0 LINE SMOOTH",
"396 0 OFFCURVE",
"500 104 OFFCURVE",
"500 230 CURVE SMOOTH",
"500 322 OFFCURVE",
"455 398 OFFCURVE",
"354 446 CURVE",
"398 490 OFFCURVE",
"420 538 OFFCURVE",
"420 591 CURVE SMOOTH",
"420 695 OFFCURVE",
"334 781 OFFCURVE",
"229 781 CURVE SMOOTH",
"69 781 LINE SMOOTH",
"52 781 OFFCURVE",
"39 768 OFFCURVE",
"39 751 CURVE SMOOTH",
"39 30 LINE SMOOTH",
"39 13 OFFCURVE",
"52 0 OFFCURVE",
"69 0 CURVE SMOOTH"
);
},
{
closed = 1;
nodes = (
"99 401 LINE",
"270 401 LINE SMOOTH",
"363 401 OFFCURVE",
"440 322 OFFCURVE",
"440 230 CURVE SMOOTH",
"440 138 OFFCURVE",
"364 60 OFFCURVE",
"270 60 CURVE SMOOTH",
"99 60 LINE"
);
},
{
closed = 1;
nodes = (
"99 721 LINE",
"229 721 LINE SMOOTH",
"300 721 OFFCURVE",
"360 661 OFFCURVE",
"360 591 CURVE SMOOTH",
"360 522 OFFCURVE",
"302 461 OFFCURVE",
"229 461 CURVE SMOOTH",
"99 461 LINE"
);
}
);
width = 547;
},
{
layerId = "E42B920F-7E89-45C7-8F78-304483CE0F77";
width = 600;
}
);
unicode = 0042;
},
{
glyphname = C;
layers = (
{
layerId = UUID0;
paths = (
{
closed = 1;
nodes = (
"520 0 OFFCURVE",
"602 29 OFFCURVE",
"674 87 CURVE",
"685 98 OFFCURVE",
"690 110 OFFCURVE",
"690 124 CURVE SMOOTH",
"690 153 OFFCURVE",
"667 176 OFFCURVE",
"639 176 CURVE",
"627 175 OFFCURVE",
"616 172 OFFCURVE",
"608 167 CURVE SMOOTH",
"556 125 OFFCURVE",
"497 104 OFFCURVE",
"429 104 CURVE SMOOTH",
"271 104 OFFCURVE",
"142 231 OFFCURVE",
"142 391 CURVE SMOOTH",
"142 549 OFFCURVE",
"271 678 OFFCURVE",
"429 678 CURVE SMOOTH",
"494 678 OFFCURVE",
"557 656 OFFCURVE",
"605 617 CURVE SMOOTH",
"617 607 OFFCURVE",
"627 603 OFFCURVE",
"641 603 CURVE SMOOTH",
"670 603 OFFCURVE",
"693 625 OFFCURVE",
"693 654 CURVE SMOOTH",
"693 669 OFFCURVE",
"688 681 OFFCURVE",
"679 690 CURVE",
"604 751 OFFCURVE",
"521 781 OFFCURVE",
"429 781 CURVE SMOOTH",
"321 781 OFFCURVE",
"229 743 OFFCURVE",
"152 667 CURVE SMOOTH",
"76 590 OFFCURVE",
"38 499 OFFCURVE",
"38 391 CURVE SMOOTH",
"38 283 OFFCURVE",
"76 190 OFFCURVE",
"152 114 CURVE SMOOTH",
"229 38 OFFCURVE",
"321 0 OFFCURVE",
"429 0 CURVE SMOOTH"
);
}
);
width = 723;
},
{
layerId = "952115DE-4B60-44C8-B7C0-A1F0450151B4";
paths = (
{
closed = 1;
nodes = (
"521 0 OFFCURVE",
"603 30 OFFCURVE",
"676 87 CURVE",
"681 92 OFFCURVE",
"683 99 OFFCURVE",
"683 107 CURVE SMOOTH",
"683 124 OFFCURVE",
"670 137 OFFCURVE",
"653 137 CURVE SMOOTH",
"646 137 OFFCURVE",
"641 136 OFFCURVE",
"637 133 CURVE",
"578 84 OFFCURVE",
"508 60 OFFCURVE",
"430 60 CURVE SMOOTH",
"248 60 OFFCURVE",
"99 209 OFFCURVE",
"99 391 CURVE SMOOTH",
"99 572 OFFCURVE",
"250 721 OFFCURVE",
"430 721 CURVE SMOOTH",
"508 721 OFFCURVE",
"575 698 OFFCURVE",
"631 653 CURVE",
"640 645 OFFCURVE",
"648 641 OFFCURVE",
"656 641 CURVE SMOOTH",
"672 641 OFFCURVE",
"686 655 OFFCURVE",
"686 671 CURVE SMOOTH",
"686 679 OFFCURVE",
"683 687 OFFCURVE",
"677 692 CURVE",
"605 751 OFFCURVE",
"522 781 OFFCURVE",
"430 781 CURVE SMOOTH",
"322 781 OFFCURVE",
"230 743 OFFCURVE",
"153 667 CURVE SMOOTH",
"77 590 OFFCURVE",
"39 499 OFFCURVE",
"39 391 CURVE SMOOTH",
"39 178 OFFCURVE",
"217 0 OFFCURVE",
"430 0 CURVE SMOOTH"
);
}
);
width = 723;
},
{
layerId = "E42B920F-7E89-45C7-8F78-304483CE0F77";
width = 600;
}
);
unicode = 0043;
},
{
glyphname = D;
layers = (
{
layerId = UUID0;
paths = (
{
closed = 1;
nodes = (
"240 0 LINE SMOOTH",
"348 0 OFFCURVE",
"439 38 OFFCURVE",
"516 114 CURVE SMOOTH",
"592 191 OFFCURVE",
"630 283 OFFCURVE",
"630 391 CURVE SMOOTH",
"630 500 OFFCURVE",
"592 590 OFFCURVE",
"516 667 CURVE SMOOTH",
"439 743 OFFCURVE",
"347 781 OFFCURVE",
"240 781 CURVE SMOOTH",
"89 781 LINE SMOOTH",
"61 781 OFFCURVE",
"37 758 OFFCURVE",
"37 729 CURVE SMOOTH",
"37 52 LINE SMOOTH",
"37 23 OFFCURVE",
"61 0 OFFCURVE",
"89 0 CURVE SMOOTH"
);
},
{
closed = 1;
nodes = (
"141 678 LINE",
"240 678 LINE SMOOTH",
"396 678 OFFCURVE",
"527 547 OFFCURVE",
"527 391 CURVE SMOOTH",
"527 233 OFFCURVE",
"397 104 OFFCURVE",
"240 104 CURVE SMOOTH",
"141 104 LINE"
);
}
);
width = 664;
},
{
layerId = "952115DE-4B60-44C8-B7C0-A1F0450151B4";
paths = (
{
closed = 1;
nodes = (
"229 0 LINE SMOOTH",
"337 0 OFFCURVE",
"429 38 OFFCURVE",
"505 114 CURVE SMOOTH",
"582 191 OFFCURVE",
"620 283 OFFCURVE",
"620 391 CURVE SMOOTH",
"620 499 OFFCURVE",
"582 590 OFFCURVE",
"505 667 CURVE SMOOTH",
"429 743 OFFCURVE",
"337 781 OFFCURVE",
"229 781 CURVE SMOOTH",
"69 781 LINE SMOOTH",
"53 781 OFFCURVE",
"39 768 OFFCURVE",
"39 751 CURVE SMOOTH",
"39 30 LINE SMOOTH",
"39 13 OFFCURVE",
"53 0 OFFCURVE",
"69 0 CURVE SMOOTH"
);
},
{
closed = 1;
nodes = (
"99 721 LINE",
"229 721 LINE SMOOTH",
"408 721 OFFCURVE",
"560 571 OFFCURVE",
"560 391 CURVE SMOOTH",
"560 209 OFFCURVE",
"410 60 OFFCURVE",
"229 60 CURVE SMOOTH",
"99 60 LINE"
);
}
);
width = 664;
},
{
layerId = "E42B920F-7E89-45C7-8F78-304483CE0F77";
width = 600;
}
);
unicode = 0044;
},
{
glyphname = Eth;
layers = (
{
layerId = UUID0;
paths = (
{
closed = 1;
nodes = (
"315 0 LINE SMOOTH",
"423 0 OFFCURVE",
"515 38 OFFCURVE",
"591 114 CURVE SMOOTH",
"667 191 OFFCURVE",
"706 283 OFFCURVE",
"706 391 CURVE SMOOTH",
"706 500 OFFCURVE",
"667 590 OFFCURVE",
"591 667 CURVE SMOOTH",
"514 743 OFFCURVE",
"422 781 OFFCURVE",
"315 781 CURVE SMOOTH",
"164 781 LINE SMOOTH",
"136 781 OFFCURVE",
"112 758 OFFCURVE",
"112 729 CURVE SMOOTH",
"112 442 LINE",
"52 442 LINE SMOOTH",
"22 442 OFFCURVE",
"0 420 OFFCURVE",
"0 391 CURVE SMOOTH",
"0 361 OFFCURVE",
"22 339 OFFCURVE",
"52 339 CURVE SMOOTH",
"112 339 LINE",
"112 52 LINE SMOOTH",
"112 23 OFFCURVE",
"136 0 OFFCURVE",
"164 0 CURVE SMOOTH"
);
},
{
closed = 1;
nodes = (
"216 339 LINE",
"353 339 LINE SMOOTH",
"382 339 OFFCURVE",
"404 361 OFFCURVE",
"404 391 CURVE SMOOTH",
"404 420 OFFCURVE",
"382 442 OFFCURVE",
"353 442 CURVE SMOOTH",
"216 442 LINE",
"216 678 LINE",
"315 678 LINE SMOOTH",
"471 678 OFFCURVE",
"602 547 OFFCURVE",
"602 391 CURVE SMOOTH",
"602 233 OFFCURVE",
"472 104 OFFCURVE",
"315 104 CURVE SMOOTH",
"216 104 LINE"
);
}
);
width = 742;
},
{
layerId = "952115DE-4B60-44C8-B7C0-A1F0450151B4";
paths = (
{
closed = 1;
nodes = (
"310 0 LINE SMOOTH",
"417 0 OFFCURVE",
"509 38 OFFCURVE",
"585 114 CURVE SMOOTH",
"662 191 OFFCURVE",
"700 283 OFFCURVE",
"700 391 CURVE SMOOTH",
"700 499 OFFCURVE",
"662 590 OFFCURVE",
"585 667 CURVE SMOOTH",
"509 743 OFFCURVE",
"417 781 OFFCURVE",
"310 781 CURVE SMOOTH",
"149 781 LINE SMOOTH",
"132 781 OFFCURVE",
"119 768 OFFCURVE",
"119 751 CURVE SMOOTH",
"119 421 LINE",
"30 421 LINE SMOOTH",
"13 421 OFFCURVE",
"0 408 OFFCURVE",
"0 391 CURVE SMOOTH",
"0 374 OFFCURVE",
"13 360 OFFCURVE",
"30 360 CURVE SMOOTH",
"119 360 LINE",
"119 30 LINE SMOOTH",
"119 13 OFFCURVE",
"132 0 OFFCURVE",
"149 0 CURVE SMOOTH"
);
},
{
closed = 1;
nodes = (
"179 360 LINE",
"350 360 LINE SMOOTH",
"367 360 OFFCURVE",
"380 374 OFFCURVE",
"380 391 CURVE SMOOTH",
"380 408 OFFCURVE",
"367 421 OFFCURVE",
"350 421 CURVE SMOOTH",
"179 421 LINE",
"179 721 LINE",
"310 721 LINE SMOOTH",
"490 721 OFFCURVE",
"640 571 OFFCURVE",
"640 391 CURVE SMOOTH",
"640 210 OFFCURVE",
"491 60 OFFCURVE",
"310 60 CURVE SMOOTH",
"179 60 LINE"
);
}
);
width = 742;
},
{
layerId = "E42B920F-7E89-45C7-8F78-304483CE0F77";
width = 600;
}
);
unicode = 00D0;
},
{
glyphname = E;
layers = (
{
layerId = UUID0;
paths = (
{
closed = 1;
nodes = (
"541 0 LINE SMOOTH",
"569 0 OFFCURVE",
"592 23 OFFCURVE",
"592 52 CURVE SMOOTH",
"592 81 OFFCURVE",
"569 104 OFFCURVE",
"541 104 CURVE SMOOTH",
"141 104 LINE",
"141 339 LINE",
"428 339 LINE SMOOTH",
"457 339 OFFCURVE",
"479 362 OFFCURVE",
"479 391 CURVE SMOOTH",
"479 419 OFFCURVE",
"457 442 OFFCURVE",
"428 442 CURVE SMOOTH",
"141 442 LINE",
"141 678 LINE",
"541 678 LINE SMOOTH",
"569 678 OFFCURVE",
"592 701 OFFCURVE",
"592 729 CURVE SMOOTH",
"592 758 OFFCURVE",
"569 781 OFFCURVE",
"541 781 CURVE SMOOTH",
"89 781 LINE SMOOTH",
"60 781 OFFCURVE",
"37 759 OFFCURVE",
"37 729 CURVE SMOOTH",
"37 52 LINE SMOOTH",
"37 22 OFFCURVE",
"60 0 OFFCURVE",
"89 0 CURVE SMOOTH"
);
}
);
width = 625;
},
{
layerId = "952115DE-4B60-44C8-B7C0-A1F0450151B4";
paths = (
{
closed = 1;
nodes = (
"550 0 LINE SMOOTH",
"566 0 OFFCURVE",
"580 13 OFFCURVE",
"580 30 CURVE SMOOTH",
"580 46 OFFCURVE",
"566 60 OFFCURVE",
"550 60 CURVE SMOOTH",
"99 60 LINE",
"99 360 LINE",
"430 360 LINE SMOOTH",
"447 360 OFFCURVE",
"460 374 OFFCURVE",
"460 391 CURVE SMOOTH",
"460 408 OFFCURVE",
"447 421 OFFCURVE",
"430 421 CURVE SMOOTH",
"99 421 LINE",
"99 721 LINE",
"550 721 LINE SMOOTH",
"566 721 OFFCURVE",
"580 735 OFFCURVE",
"580 751 CURVE SMOOTH",
"580 768 OFFCURVE",
"566 781 OFFCURVE",
"550 781 CURVE SMOOTH",
"69 781 LINE SMOOTH",
"52 781 OFFCURVE",
"39 768 OFFCURVE",
"39 751 CURVE SMOOTH",
"39 30 LINE SMOOTH",
"39 13 OFFCURVE",
"52 0 OFFCURVE",
"69 0 CURVE SMOOTH"
);
}
);
width = 625;
},
{
layerId = "E42B920F-7E89-45C7-8F78-304483CE0F77";
width = 600;
}
);
unicode = 0045;
},
{
glyphname = F;
layers = (
{
layerId = UUID0;
paths = (
{
closed = 1;
nodes = (
"118 0 OFFCURVE",
"141 23 OFFCURVE",
"141 52 CURVE SMOOTH",
"141 339 LINE",
"428 339 LINE SMOOTH",
"457 339 OFFCURVE",
"479 362 OFFCURVE",
"479 391 CURVE SMOOTH",
"479 419 OFFCURVE",
"457 442 OFFCURVE",
"428 442 CURVE SMOOTH",
"141 442 LINE",
"141 678 LINE",
"541 678 LINE SMOOTH",
"569 678 OFFCURVE",
"592 701 OFFCURVE",
"592 729 CURVE SMOOTH",
"592 758 OFFCURVE",
"569 781 OFFCURVE",
"541 781 CURVE SMOOTH",
"89 781 LINE SMOOTH",
"60 781 OFFCURVE",
"37 759 OFFCURVE",
"37 729 CURVE SMOOTH",
"37 52 LINE SMOOTH",
"37 23 OFFCURVE",
"60 0 OFFCURVE",
"89 0 CURVE SMOOTH"
);
}
);
width = 625;
},
{
layerId = "952115DE-4B60-44C8-B7C0-A1F0450151B4";
paths = (
{
closed = 1;
nodes = (
"86 0 OFFCURVE",
"99 13 OFFCURVE",
"99 30 CURVE SMOOTH",
"99 360 LINE",
"430 360 LINE SMOOTH",
"447 360 OFFCURVE",
"460 374 OFFCURVE",
"460 391 CURVE SMOOTH",
"460 408 OFFCURVE",
"447 421 OFFCURVE",
"430 421 CURVE SMOOTH",
"99 421 LINE",
"99 721 LINE",
"550 721 LINE SMOOTH",
"566 721 OFFCURVE",
"580 735 OFFCURVE",
"580 751 CURVE SMOOTH",
"580 768 OFFCURVE",
"566 781 OFFCURVE",
"550 781 CURVE SMOOTH",
"69 781 LINE SMOOTH",
"52 781 OFFCURVE",
"39 768 OFFCURVE",
"39 751 CURVE SMOOTH",
"39 30 LINE SMOOTH",
"39 13 OFFCURVE",
"52 0 OFFCURVE",
"69 0 CURVE SMOOTH"
);
}
);
width = 625;
},
{
layerId = "E42B920F-7E89-45C7-8F78-304483CE0F77";
width = 600;
}
);
unicode = 0046;
},
{
glyphname = G;
layers = (
{
layerId = UUID0;
paths = (
{
closed = 1;
nodes = (
"520 0 OFFCURVE",
"602 29 OFFCURVE",
"674 87 CURVE",
"685 98 OFFCURVE",
"690 110 OFFCURVE",
"690 124 CURVE SMOOTH",
"690 353 LINE SMOOTH",
"690 381 OFFCURVE",
"667 405 OFFCURVE",
"639 405 CURVE SMOOTH",
"452 405 LINE SMOOTH",
"423 405 OFFCURVE",
"400 382 OFFCURVE",
"400 353 CURVE SMOOTH",
"400 324 OFFCURVE",
"423 301 OFFCURVE",
"452 301 CURVE SMOOTH",
"587 301 LINE",
"587 150 LINE",
"541 119 OFFCURVE",
"488 104 OFFCURVE",
"429 104 CURVE SMOOTH",
"271 104 OFFCURVE",
"142 231 OFFCURVE",
"142 391 CURVE SMOOTH",
"142 549 OFFCURVE",
"271 678 OFFCURVE",
"429 678 CURVE SMOOTH",
"496 678 OFFCURVE",
"556 656 OFFCURVE",
"605 617 CURVE",
"616 607 OFFCURVE",
"628 603 OFFCURVE",
"641 603 CURVE SMOOTH",
"670 603 OFFCURVE",
"693 625 OFFCURVE",
"693 654 CURVE SMOOTH",
"693 669 OFFCURVE",
"688 682 OFFCURVE",
"679 690 CURVE SMOOTH",
"605 751 OFFCURVE",
"520 781 OFFCURVE",
"429 781 CURVE SMOOTH",
"321 781 OFFCURVE",
"229 743 OFFCURVE",
"152 667 CURVE SMOOTH",
"76 590 OFFCURVE",
"38 499 OFFCURVE",
"38 391 CURVE SMOOTH",
"38 283 OFFCURVE",
"76 190 OFFCURVE",
"152 114 CURVE SMOOTH",
"229 38 OFFCURVE",
"321 0 OFFCURVE",
"429 0 CURVE SMOOTH"
);
}
);
width = 732;
},
{
layerId = "952115DE-4B60-44C8-B7C0-A1F0450151B4";
paths = (
{
closed = 1;
nodes = (
"521 0 OFFCURVE",
"604 30 OFFCURVE",
"676 87 CURVE SMOOTH",
"681 91 OFFCURVE",
"683 98 OFFCURVE",
"683 107 CURVE SMOOTH",
"683 351 LINE SMOOTH",
"683 367 OFFCURVE",
"669 380 OFFCURVE",
"653 380 CURVE SMOOTH",
"455 380 LINE SMOOTH",
"438 380 OFFCURVE",
"425 368 OFFCURVE",
"425 351 CURVE SMOOTH",
"425 333 OFFCURVE",
"438 320 OFFCURVE",
"455 320 CURVE SMOOTH",
"623 320 LINE",
"623 122 LINE",
"566 81 OFFCURVE",
"501 60 OFFCURVE",
"430 60 CURVE SMOOTH",
"248 60 OFFCURVE",
"99 209 OFFCURVE",
"99 391 CURVE SMOOTH",
"99 572 OFFCURVE",
"250 721 OFFCURVE",
"430 721 CURVE SMOOTH",
"508 721 OFFCURVE",
"575 698 OFFCURVE",
"631 653 CURVE",
"640 645 OFFCURVE",
"648 641 OFFCURVE",
"656 641 CURVE SMOOTH",
"672 641 OFFCURVE",
"686 655 OFFCURVE",
"686 671 CURVE SMOOTH",
"686 679 OFFCURVE",
"683 687 OFFCURVE",
"677 692 CURVE",
"605 751 OFFCURVE",
"522 781 OFFCURVE",
"430 781 CURVE SMOOTH",
"322 781 OFFCURVE",
"230 743 OFFCURVE",
"153 667 CURVE SMOOTH",
"77 590 OFFCURVE",
"39 499 OFFCURVE",
"39 391 CURVE SMOOTH",
"39 178 OFFCURVE",
"217 0 OFFCURVE",
"430 0 CURVE SMOOTH"
);
}
);
width = 732;
},
{
layerId = "E42B920F-7E89-45C7-8F78-304483CE0F77";
width = 600;
}
);
unicode = 0047;
},
{
glyphname = H;
layers = (
{
background = {
paths = (
{
closed = 1;
nodes = (
"118 0 OFFCURVE",
"141 23 OFFCURVE",
"141 52 CURVE SMOOTH",
"141 339 LINE",
"489 339 LINE",
"489 52 LINE SMOOTH",
"489 23 OFFCURVE",
"512 0 OFFCURVE",
"541 0 CURVE SMOOTH",
"569 0 OFFCURVE",
"592 23 OFFCURVE",
"592 52 CURVE SMOOTH",
"592 729 LINE SMOOTH",
"592 758 OFFCURVE",
"569 781 OFFCURVE",
"541 781 CURVE SMOOTH",
"512 781 OFFCURVE",
"489 758 OFFCURVE",
"489 729 CURVE SMOOTH",
"489 442 LINE",
"141 442 LINE",
"141 729 LINE SMOOTH",
"141 758 OFFCURVE",
"118 781 OFFCURVE",
"89 781 CURVE SMOOTH",
"60 781 OFFCURVE",
"37 758 OFFCURVE",
"37 729 CURVE SMOOTH",
"37 52 LINE SMOOTH",
"37 23 OFFCURVE",
"60 0 OFFCURVE",
"89 0 CURVE SMOOTH"
);
}
);
};
layerId = UUID0;
paths = (
{
closed = 1;
nodes = (
"118 0 OFFCURVE",
"141 23 OFFCURVE",
"141 52 CURVE SMOOTH",
"141 346 LINE",
"489 346 LINE",
"489 52 LINE SMOOTH",
"489 23 OFFCURVE",
"512 0 OFFCURVE",
"541 0 CURVE SMOOTH",
"569 0 OFFCURVE",
"592 23 OFFCURVE",
"592 52 CURVE SMOOTH",
"592 729 LINE SMOOTH",
"592 758 OFFCURVE",
"569 781 OFFCURVE",
"541 781 CURVE SMOOTH",
"512 781 OFFCURVE",
"489 758 OFFCURVE",
"489 729 CURVE SMOOTH",
"489 442 LINE",
"141 442 LINE",
"141 729 LINE SMOOTH",
"141 758 OFFCURVE",
"118 781 OFFCURVE",
"89 781 CURVE SMOOTH",
"60 781 OFFCURVE",
"37 758 OFFCURVE",
"37 729 CURVE SMOOTH",
"37 52 LINE SMOOTH",
"37 23 OFFCURVE",
"60 0 OFFCURVE",
"89 0 CURVE SMOOTH"
);
}
);
width = 625;
},
{
background = {
paths = (
{
closed = 1;
nodes = (
"107 0 OFFCURVE",
"120 13 OFFCURVE",
"120 30 CURVE SMOOTH",
"120 360 LINE",
"541 360 LINE",
"541 30 LINE SMOOTH",
"541 13 OFFCURVE",
"554 0 OFFCURVE",
"571 0 CURVE SMOOTH",
"587 0 OFFCURVE",
"601 13 OFFCURVE",
"601 30 CURVE SMOOTH",
"601 751 LINE SMOOTH",
"601 768 OFFCURVE",
"587 781 OFFCURVE",
"571 781 CURVE SMOOTH",
"554 781 OFFCURVE",
"541 768 OFFCURVE",
"541 751 CURVE SMOOTH",
"541 421 LINE",
"120 421 LINE",
"120 751 LINE SMOOTH",
"120 768 OFFCURVE",
"107 781 OFFCURVE",
"90 781 CURVE SMOOTH",
"73 781 OFFCURVE",
"60 768 OFFCURVE",
"60 751 CURVE SMOOTH",
"60 30 LINE SMOOTH",
"60 13 OFFCURVE",
"73 0 OFFCURVE",
"90 0 CURVE SMOOTH"
);
}
);
};
layerId = "952115DE-4B60-44C8-B7C0-A1F0450151B4";
paths = (
{
closed = 1;
nodes = (
"107 0 OFFCURVE",
"120 13 OFFCURVE",
"120 30 CURVE SMOOTH",
"120 367 LINE",
"541 367 LINE",
"541 30 LINE SMOOTH",
"541 13 OFFCURVE",
"554 0 OFFCURVE",
"571 0 CURVE SMOOTH",
"587 0 OFFCURVE",
"601 13 OFFCURVE",
"601 30 CURVE SMOOTH",
"601 751 LINE SMOOTH",
"601 768 OFFCURVE",
"587 781 OFFCURVE",
"571 781 CURVE SMOOTH",
"554 781 OFFCURVE",
"541 768 OFFCURVE",
"541 751 CURVE SMOOTH",
"541 421 LINE",
"120 421 LINE",
"120 751 LINE SMOOTH",
"120 768 OFFCURVE",
"107 781 OFFCURVE",
"90 781 CURVE SMOOTH",
"73 781 OFFCURVE",
"60 768 OFFCURVE",
"60 751 CURVE SMOOTH",
"60 30 LINE SMOOTH",
"60 13 OFFCURVE",
"73 0 OFFCURVE",
"90 0 CURVE SMOOTH"
);
}
);
width = 661;
},
{
layerId = "E42B920F-7E89-45C7-8F78-304483CE0F77";
width = 600;
},
{
associatedMasterId = "952115DE-4B60-44C8-B7C0-A1F0450151B4";
background = {
paths = (
{
closed = 1;
nodes = (
"86 0 OFFCURVE",
"99 13 OFFCURVE",
"99 30 CURVE SMOOTH",
"99 360 LINE",
"520 360 LINE",
"520 30 LINE SMOOTH",
"520 13 OFFCURVE",
"533 0 OFFCURVE",
"550 0 CURVE SMOOTH",
"566 0 OFFCURVE",
"580 13 OFFCURVE",
"580 30 CURVE SMOOTH",
"580 751 LINE SMOOTH",
"580 768 OFFCURVE",
"566 781 OFFCURVE",
"550 781 CURVE SMOOTH",
"533 781 OFFCURVE",
"520 768 OFFCURVE",
"520 751 CURVE SMOOTH",
"520 421 LINE",
"99 421 LINE",
"99 751 LINE SMOOTH",
"99 768 OFFCURVE",
"86 781 OFFCURVE",
"69 781 CURVE SMOOTH",
"52 781 OFFCURVE",
"39 768 OFFCURVE",
"39 751 CURVE SMOOTH",
"39 30 LINE SMOOTH",
"39 13 OFFCURVE",
"52 0 OFFCURVE",
"69 0 CURVE SMOOTH"
);
}
);
};
layerId = "128D6D89-96C2-44DD-B506-EDFB7B8D18CA";
name = "Oct 19 16, 15:45";
paths = (
{
closed = 1;
nodes = (
"86 0 OFFCURVE",
"99 13 OFFCURVE",
"99 30 CURVE SMOOTH",
"99 360 LINE",
"520 360 LINE",
"520 30 LINE SMOOTH",
"520 13 OFFCURVE",
"533 0 OFFCURVE",
"550 0 CURVE SMOOTH",
"566 0 OFFCURVE",
"580 13 OFFCURVE",
"580 30 CURVE SMOOTH",
"580 751 LINE SMOOTH",
"580 768 OFFCURVE",
"566 781 OFFCURVE",
"550 781 CURVE SMOOTH",
"533 781 OFFCURVE",
"520 768 OFFCURVE",
"520 751 CURVE SMOOTH",
"520 421 LINE",
"99 421 LINE",
"99 751 LINE SMOOTH",
"99 768 OFFCURVE",
"86 781 OFFCURVE",
"69 781 CURVE SMOOTH",
"52 781 OFFCURVE",
"39 768 OFFCURVE",
"39 751 CURVE SMOOTH",
"39 30 LINE SMOOTH",
"39 13 OFFCURVE",
"52 0 OFFCURVE",
"69 0 CURVE SMOOTH"
);
}
);
width = 625;
}
);
unicode = 0048;
},
{
glyphname = Hbar;
layers = (
{
layerId = UUID0;
paths = (
{
closed = 1;
nodes = (
"195 0 OFFCURVE",
"217 22 OFFCURVE",
"217 52 CURVE SMOOTH",
"217 339 LINE",
"565 339 LINE",
"565 52 LINE SMOOTH",
"565 22 OFFCURVE",
"588 0 OFFCURVE",
"617 0 CURVE SMOOTH",
"646 0 OFFCURVE",
"669 22 OFFCURVE",
"669 52 CURVE SMOOTH",
"669 546 LINE",
"692 546 LINE SMOOTH",
"722 546 OFFCURVE",
"744 568 OFFCURVE",
"744 598 CURVE SMOOTH",
"744 627 OFFCURVE",
"722 649 OFFCURVE",
"692 649 CURVE SMOOTH",
"669 649 LINE",
"669 729 LINE SMOOTH",
"669 759 OFFCURVE",
"646 781 OFFCURVE",
"617 781 CURVE SMOOTH",
"588 781 OFFCURVE",
"565 759 OFFCURVE",
"565 729 CURVE SMOOTH",
"565 649 LINE",
"217 649 LINE",
"217 729 LINE SMOOTH",
"217 759 OFFCURVE",
"195 781 OFFCURVE",
"166 781 CURVE SMOOTH",
"136 781 OFFCURVE",
"114 759 OFFCURVE",
"114 729 CURVE SMOOTH",
"114 649 LINE",
"90 649 LINE SMOOTH",
"61 649 OFFCURVE",
"39 627 OFFCURVE",
"39 598 CURVE SMOOTH",
"39 568 OFFCURVE",
"61 546 OFFCURVE",
"90 546 CURVE SMOOTH",
"114 546 LINE",
"114 52 LINE SMOOTH",
"114 22 OFFCURVE",
"136 0 OFFCURVE",
"166 0 CURVE SMOOTH"
);
},
{
closed = 1;
nodes = (
"217 546 LINE",
"565 546 LINE",
"565 442 LINE",
"217 442 LINE"
);
}
);
width = 781;
},
{
layerId = "952115DE-4B60-44C8-B7C0-A1F0450151B4";
paths = (
{
closed = 1;
nodes = (
"167 0 OFFCURVE",
"179 13 OFFCURVE",
"179 30 CURVE SMOOTH",
"179 360 LINE",
"600 360 LINE",
"600 30 LINE SMOOTH",
"600 13 OFFCURVE",
"613 0 OFFCURVE",
"630 0 CURVE SMOOTH",
"646 0 OFFCURVE",
"660 13 OFFCURVE",
"660 30 CURVE SMOOTH",
"660 581 LINE",
"710 581 LINE SMOOTH",
"728 581 OFFCURVE",
"740 594 OFFCURVE",
"740 611 CURVE SMOOTH",
"740 628 OFFCURVE",
"728 641 OFFCURVE",
"710 641 CURVE SMOOTH",
"660 641 LINE",
"660 751 LINE SMOOTH",
"660 768 OFFCURVE",
"646 781 OFFCURVE",
"630 781 CURVE SMOOTH",
"613 781 OFFCURVE",
"600 768 OFFCURVE",
"600 751 CURVE SMOOTH",
"600 641 LINE",
"179 641 LINE",
"179 751 LINE SMOOTH",
"179 768 OFFCURVE",
"167 781 OFFCURVE",
"149 781 CURVE SMOOTH",
"132 781 OFFCURVE",
"119 768 OFFCURVE",
"119 751 CURVE SMOOTH",
"119 641 LINE",
"69 641 LINE SMOOTH",
"52 641 OFFCURVE",
"39 628 OFFCURVE",
"39 611 CURVE SMOOTH",
"39 594 OFFCURVE",
"52 581 OFFCURVE",
"69 581 CURVE SMOOTH",
"119 581 LINE",
"119 30 LINE SMOOTH",
"119 13 OFFCURVE",
"132 0 OFFCURVE",
"149 0 CURVE SMOOTH"
);
},
{
closed = 1;
nodes = (
"179 581 LINE",
"600 581 LINE",
"600 421 LINE",
"179 421 LINE"
);
}
);
width = 781;
},
{
layerId = "E42B920F-7E89-45C7-8F78-304483CE0F77";
width = 600;
}
);
unicode = 0126;
},
{
glyphname = I;
layers = (
{
layerId = UUID0;
paths = (
{
closed = 1;
nodes = (
"152 0 OFFCURVE",
"175 23 OFFCURVE",
"175 52 CURVE SMOOTH",
"175 729 LINE SMOOTH",
"175 758 OFFCURVE",
"152 781 OFFCURVE",
"123 781 CURVE SMOOTH",
"94 781 OFFCURVE",
"71 758 OFFCURVE",
"71 729 CURVE SMOOTH",
"71 52 LINE SMOOTH",
"71 23 OFFCURVE",
"94 0 OFFCURVE",
"123 0 CURVE SMOOTH"
);
}
);
width = 234;
},
{
layerId = "952115DE-4B60-44C8-B7C0-A1F0450151B4";
paths = (
{
closed = 1;
nodes = (
"134 0 OFFCURVE",
"147 13 OFFCURVE",
"147 30 CURVE SMOOTH",
"147 751 LINE SMOOTH",
"147 768 OFFCURVE",
"134 781 OFFCURVE",
"117 781 CURVE SMOOTH",
"100 781 OFFCURVE",
"87 768 OFFCURVE",
"87 751 CURVE SMOOTH",
"87 30 LINE SMOOTH",
"87 13 OFFCURVE",
"100 0 OFFCURVE",
"117 0 CURVE SMOOTH"
);
}
);
width = 234;
},
{
layerId = "E42B920F-7E89-45C7-8F78-304483CE0F77";
width = 600;
}
);
unicode = 0049;
},
{
glyphname = J;
layers = (
{
layerId = UUID0;
paths = (
{
closed = 1;
nodes = (
"408 0 OFFCURVE",
"516 109 OFFCURVE",
"516 240 CURVE SMOOTH",
"516 729 LINE SMOOTH",
"516 758 OFFCURVE",
"493 781 OFFCURVE",
"464 781 CURVE SMOOTH",
"436 781 OFFCURVE",
"413 758 OFFCURVE",
"413 729 CURVE SMOOTH",
"413 240 LINE SMOOTH",
"413 165 OFFCURVE",
"352 104 OFFCURVE",
"276 104 CURVE SMOOTH",
"200 104 OFFCURVE",
"140 164 OFFCURVE",
"140 240 CURVE SMOOTH",
"140 269 OFFCURVE",
"117 292 OFFCURVE",
"88 292 CURVE SMOOTH",
"59 292 OFFCURVE",
"36 269 OFFCURVE",
"36 240 CURVE SMOOTH",
"36 109 OFFCURVE",
"144 0 OFFCURVE",
"276 0 CURVE SMOOTH"
);
}
);
width = 547;
},
{
layerId = "952115DE-4B60-44C8-B7C0-A1F0450151B4";
paths = (
{
closed = 1;
nodes = (
"396 0 OFFCURVE",
"500 104 OFFCURVE",
"500 230 CURVE SMOOTH",
"500 751 LINE SMOOTH",
"500 768 OFFCURVE",
"487 781 OFFCURVE",
"470 781 CURVE SMOOTH",
"454 781 OFFCURVE",
"440 768 OFFCURVE",
"440 751 CURVE SMOOTH",
"440 230 LINE SMOOTH",
"440 138 OFFCURVE",
"364 60 OFFCURVE",
"270 60 CURVE SMOOTH",
"177 60 OFFCURVE",
"99 136 OFFCURVE",
"99 230 CURVE SMOOTH",
"99 248 OFFCURVE",
"86 260 OFFCURVE",
"69 260 CURVE SMOOTH",
"52 260 OFFCURVE",
"39 248 OFFCURVE",
"39 230 CURVE SMOOTH",
"39 105 OFFCURVE",
"142 0 OFFCURVE",
"270 0 CURVE SMOOTH"
);
}
);
width = 547;
},
{
layerId = "E42B920F-7E89-45C7-8F78-304483CE0F77";
width = 600;
}
);
unicode = 004A;
},
{
glyphname = K;
layers = (
{
layerId = UUID0;
paths = (
{
closed = 1;
nodes = (
"117 0 OFFCURVE",
"140 23 OFFCURVE",
"140 52 CURVE SMOOTH",
"140 293 LINE",
"209 362 LINE",
"460 22 LINE",
"470 7 OFFCURVE",
"484 0 OFFCURVE",
"503 0 CURVE SMOOTH",
"532 0 OFFCURVE",
"554 25 OFFCURVE",
"554 53 CURVE",
"554 63 OFFCURVE",
"551 73 OFFCURVE",
"544 83 CURVE SMOOTH",
"283 437 LINE",
"539 693 LINE SMOOTH",
"549 703 OFFCURVE",
"554 715 OFFCURVE",
"554 729 CURVE SMOOTH",
"554 759 OFFCURVE",
"532 781 OFFCURVE",
"502 781 CURVE SMOOTH",
"488 781 OFFCURVE",
"476 776 OFFCURVE",
"465 765 CURVE SMOOTH",
"140 440 LINE",
"140 729 LINE SMOOTH",
"140 758 OFFCURVE",
"117 781 OFFCURVE",
"88 781 CURVE SMOOTH",
"60 781 OFFCURVE",
"37 758 OFFCURVE",
"37 729 CURVE SMOOTH",
"37 52 LINE SMOOTH",
"37 23 OFFCURVE",
"60 0 OFFCURVE",
"88 0 CURVE SMOOTH"
);
}
);
width = 586;
},
{
layerId = "952115DE-4B60-44C8-B7C0-A1F0450151B4";
paths = (
{
closed = 1;
nodes = (
"86 0 OFFCURVE",
"99 13 OFFCURVE",
"99 30 CURVE SMOOTH",
"99 297 LINE",
"200 398 LINE",
"485 13 LINE SMOOTH",
"491 4 OFFCURVE",
"500 0 OFFCURVE",
"511 0 CURVE SMOOTH",
"528 0 OFFCURVE",
"540 15 OFFCURVE",
"540 32 CURVE",
"539 37 OFFCURVE",
"538 42 OFFCURVE",
"534 48 CURVE SMOOTH",
"244 442 LINE",
"531 729 LINE",
"537 736 OFFCURVE",
"540 744 OFFCURVE",
"540 751 CURVE SMOOTH",
"540 768 OFFCURVE",
"527 781 OFFCURVE",
"510 781 CURVE SMOOTH",
"501 781 OFFCURVE",
"494 778 OFFCURVE",
"487 772 CURVE SMOOTH",
"99 384 LINE",
"99 751 LINE SMOOTH",
"99 768 OFFCURVE",
"86 781 OFFCURVE",
"69 781 CURVE SMOOTH",
"53 781 OFFCURVE",
"39 768 OFFCURVE",
"39 751 CURVE SMOOTH",
"39 30 LINE SMOOTH",
"39 13 OFFCURVE",
"53 0 OFFCURVE",
"69 0 CURVE SMOOTH"
);
}
);
width = 586;
},
{
layerId = "E42B920F-7E89-45C7-8F78-304483CE0F77";
width = 600;
}
);
unicode = 004B;
},
{
glyphname = L;
layers = (
{
layerId = UUID0;
paths = (
{
closed = 1;
nodes = (
"502 0 LINE SMOOTH",
"531 0 OFFCURVE",
"554 23 OFFCURVE",
"554 52 CURVE SMOOTH",
"554 81 OFFCURVE",
"531 104 OFFCURVE",
"502 104 CURVE SMOOTH",
"140 104 LINE",
"140 729 LINE SMOOTH",
"140 758 OFFCURVE",
"117 781 OFFCURVE",
"88 781 CURVE SMOOTH",
"60 781 OFFCURVE",
"37 758 OFFCURVE",
"37 729 CURVE SMOOTH",
"37 52 LINE SMOOTH",
"37 22 OFFCURVE",
"59 0 OFFCURVE",
"88 0 CURVE SMOOTH"
);
}
);
width = 586;
},
{
layerId = "952115DE-4B60-44C8-B7C0-A1F0450151B4";
paths = (
{
closed = 1;
nodes = (
"510 0 LINE SMOOTH",
"527 0 OFFCURVE",
"540 13 OFFCURVE",
"540 30 CURVE SMOOTH",
"540 46 OFFCURVE",
"527 60 OFFCURVE",
"510 60 CURVE SMOOTH",
"99 60 LINE",
"99 751 LINE SMOOTH",
"99 768 OFFCURVE",
"86 781 OFFCURVE",
"69 781 CURVE SMOOTH",
"53 781 OFFCURVE",
"39 768 OFFCURVE",
"39 751 CURVE SMOOTH",
"39 30 LINE SMOOTH",
"39 13 OFFCURVE",
"53 0 OFFCURVE",
"69 0 CURVE SMOOTH"
);
}
);
width = 586;
},
{
layerId = "E42B920F-7E89-45C7-8F78-304483CE0F77";
width = 600;
}
);
unicode = 004C;
},
{
glyphname = Lslash;
layers = (
{
layerId = UUID0;
paths = (
{
closed = 1;
nodes = (
"578 0 LINE SMOOTH",
"607 0 OFFCURVE",
"630 22 OFFCURVE",
"630 52 CURVE SMOOTH",
"630 81 OFFCURVE",
"607 104 OFFCURVE",
"578 104 CURVE SMOOTH",
"216 104 LINE",
"216 371 LINE",
"314 467 LINE SMOOTH",
"324 477 OFFCURVE",
"329 489 OFFCURVE",
"329 503 CURVE SMOOTH",
"329 530 OFFCURVE",
"306 556 OFFCURVE",
"277 556 CURVE SMOOTH",
"263 556 OFFCURVE",
"250 551 OFFCURVE",
"240 541 CURVE SMOOTH",
"216 516 LINE",
"216 729 LINE SMOOTH",
"216 759 OFFCURVE",
"193 781 OFFCURVE",
"164 781 CURVE SMOOTH",
"135 781 OFFCURVE",
"112 759 OFFCURVE",
"112 729 CURVE SMOOTH",
"112 414 LINE",
"26 328 LINE SMOOTH",
"16 318 OFFCURVE",
"11 306 OFFCURVE",
"11 292 CURVE SMOOTH",
"11 262 OFFCURVE",
"35 240 OFFCURVE",
"65 240 CURVE SMOOTH",
"79 240 OFFCURVE",
"90 245 OFFCURVE",
"100 255 CURVE SMOOTH",
"112 268 LINE",
"112 52 LINE SMOOTH",
"112 22 OFFCURVE",
"135 0 OFFCURVE",
"164 0 CURVE SMOOTH"
);
}
);
width = 664;
},
{
layerId = "952115DE-4B60-44C8-B7C0-A1F0450151B4";
paths = (
{
closed = 1;
nodes = (
"591 0 LINE SMOOTH",
"608 0 OFFCURVE",
"621 13 OFFCURVE",
"621 30 CURVE SMOOTH",
"621 46 OFFCURVE",
"608 60 OFFCURVE",
"591 60 CURVE SMOOTH",
"180 60 LINE",
"180 379 LINE",
"292 490 LINE SMOOTH",
"298 496 OFFCURVE",
"301 503 OFFCURVE",
"301 511 CURVE SMOOTH",
"301 527 OFFCURVE",
"287 542 OFFCURVE",
"271 542 CURVE SMOOTH",
"262 542 OFFCURVE",
"255 538 OFFCURVE",
"250 532 CURVE SMOOTH",
"180 464 LINE",
"180 751 LINE SMOOTH",
"180 768 OFFCURVE",
"167 781 OFFCURVE",
"150 781 CURVE SMOOTH",
"133 781 OFFCURVE",
"120 768 OFFCURVE",
"120 751 CURVE SMOOTH",
"120 405 LINE",
"21 307 LINE SMOOTH",
"16 301 OFFCURVE",
"13 294 OFFCURVE",
"13 286 CURVE SMOOTH",
"13 268 OFFCURVE",
"27 255 OFFCURVE",
"42 255 CURVE SMOOTH",
"51 255 OFFCURVE",
"58 258 OFFCURVE",
"63 264 CURVE",
"120 320 LINE",
"120 30 LINE SMOOTH",
"120 13 OFFCURVE",
"133 0 OFFCURVE",
"150 0 CURVE SMOOTH"
);
}
);
width = 664;
},
{
layerId = "E42B920F-7E89-45C7-8F78-304483CE0F77";
width = 600;
}
);
unicode = 0141;
},
{
glyphname = M;
layers = (
{
layerId = UUID0;
paths = (
{
closed = 1;
nodes = (
"120 0 OFFCURVE",
"143 23 OFFCURVE",
"143 52 CURVE SMOOTH",
"143 510 LINE",
"382 31 LINE SMOOTH",
"393 10 OFFCURVE",
"408 0 OFFCURVE",
"430 0 CURVE SMOOTH",
"450 0 OFFCURVE",
"464 9 OFFCURVE",
"475 26 CURVE",
"717 510 LINE",
"717 52 LINE SMOOTH",
"717 23 OFFCURVE",
"740 0 OFFCURVE",
"769 0 CURVE SMOOTH",
"797 0 OFFCURVE",
"820 23 OFFCURVE",
"820 52 CURVE SMOOTH",
"820 729 LINE SMOOTH",
"820 759 OFFCURVE",
"798 781 OFFCURVE",
"769 781 CURVE SMOOTH",
"750 781 OFFCURVE",
"734 772 OFFCURVE",
"723 753 CURVE",
"430 168 LINE",
"137 753 LINE",
"126 772 OFFCURVE",
"111 781 OFFCURVE",
"91 781 CURVE SMOOTH",
"62 781 OFFCURVE",
"39 759 OFFCURVE",
"39 729 CURVE SMOOTH",
"39 52 LINE SMOOTH",
"39 23 OFFCURVE",
"62 0 OFFCURVE",
"91 0 CURVE SMOOTH"
);
}
);
width = 859;
},
{
layerId = "952115DE-4B60-44C8-B7C0-A1F0450151B4";
paths = (
{
closed = 1;
nodes = (
"86 0 OFFCURVE",
"99 13 OFFCURVE",
"99 30 CURVE SMOOTH",
"99 624 LINE",
"402 19 LINE",
"407 6 OFFCURVE",
"417 0 OFFCURVE",
"430 0 CURVE SMOOTH",
"441 0 OFFCURVE",
"450 5 OFFCURVE",
"456 14 CURVE",
"760 624 LINE",
"760 30 LINE SMOOTH",
"760 13 OFFCURVE",
"773 0 OFFCURVE",
"791 0 CURVE SMOOTH",
"808 0 OFFCURVE",
"820 13 OFFCURVE",
"820 30 CURVE SMOOTH",
"820 751 LINE SMOOTH",
"820 768 OFFCURVE",
"808 781 OFFCURVE",
"791 781 CURVE SMOOTH",
"778 781 OFFCURVE",
"770 776 OFFCURVE",
"764 766 CURVE",
"430 97 LINE",
"96 766 LINE SMOOTH",
"90 776 OFFCURVE",
"82 781 OFFCURVE",
"69 781 CURVE SMOOTH",
"52 781 OFFCURVE",
"39 768 OFFCURVE",
"39 751 CURVE SMOOTH",
"39 30 LINE SMOOTH",
"39 13 OFFCURVE",
"52 0 OFFCURVE",
"69 0 CURVE SMOOTH"
);
}
);
width = 859;
},
{
layerId = "E42B920F-7E89-45C7-8F78-304483CE0F77";
width = 600;
}
);
unicode = 004D;
},
{
glyphname = N;
layers = (
{
layerId = "E42B920F-7E89-45C7-8F78-304483CE0F77";
width = 600;
},
{
layerId = UUID0;
paths = (
{
closed = 1;
nodes = (
"118 0 OFFCURVE",
"141 23 OFFCURVE",
"141 52 CURVE SMOOTH",
"141 578 LINE",
"577 18 LINE",
"588 6 OFFCURVE",
"602 0 OFFCURVE",
"617 0 CURVE SMOOTH",
"646 0 OFFCURVE",
"668 22 OFFCURVE",
"668 52 CURVE SMOOTH",
"668 729 LINE SMOOTH",
"668 758 OFFCURVE",
"646 781 OFFCURVE",
"617 781 CURVE SMOOTH",
"588 781 OFFCURVE",
"565 758 OFFCURVE",
"565 729 CURVE SMOOTH",
"565 202 LINE",
"129 762 LINE",
"118 775 OFFCURVE",
"104 781 OFFCURVE",
"89 781 CURVE SMOOTH",
"60 781 OFFCURVE",
"38 759 OFFCURVE",
"38 729 CURVE SMOOTH",
"38 52 LINE SMOOTH",
"38 23 OFFCURVE",
"61 0 OFFCURVE",
"89 0 CURVE SMOOTH"
);
}
);
width = 703;
},
{
layerId = "952115DE-4B60-44C8-B7C0-A1F0450151B4";
paths = (
{
closed = 1;
nodes = (
"86 0 OFFCURVE",
"99 13 OFFCURVE",
"99 30 CURVE SMOOTH",
"99 663 LINE",
"608 9 LINE",
"613 3 OFFCURVE",
"621 0 OFFCURVE",
"630 0 CURVE SMOOTH",
"646 0 OFFCURVE",
"660 13 OFFCURVE",
"660 30 CURVE SMOOTH",
"660 751 LINE SMOOTH",
"660 768 OFFCURVE",
"646 781 OFFCURVE",
"630 781 CURVE SMOOTH",
"613 781 OFFCURVE",
"600 768 OFFCURVE",
"600 751 CURVE SMOOTH",
"600 118 LINE",
"92 771 LINE SMOOTH",
"86 778 OFFCURVE",
"79 781 OFFCURVE",
"69 781 CURVE SMOOTH",
"52 781 OFFCURVE",
"39 768 OFFCURVE",
"39 751 CURVE SMOOTH",
"39 30 LINE SMOOTH",
"39 13 OFFCURVE",
"52 0 OFFCURVE",
"69 0 CURVE SMOOTH"
);
}
);
width = 703;
}
);
unicode = 004E;
},
{
glyphname = Eng;
layers = (
{
layerId = "E42B920F-7E89-45C7-8F78-304483CE0F77";
width = 600;
},
{
layerId = UUID0;
paths = (
{
closed = 1;
nodes = (
"119 0 OFFCURVE",
"141 22 OFFCURVE",
"141 52 CURVE SMOOTH",
"141 466 LINE SMOOTH",
"141 582 OFFCURVE",
"235 678 OFFCURVE",
"353 678 CURVE SMOOTH",
"470 678 OFFCURVE",
"565 582 OFFCURVE",
"565 466 CURVE SMOOTH",
"565 240 LINE SMOOTH",
"565 166 OFFCURVE",
"504 104 OFFCURVE",
"428 104 CURVE SMOOTH",
"389 104 OFFCURVE",
"359 117 OFFCURVE",
"332 144 CURVE SMOOTH",
"321 154 OFFCURVE",
"309 159 OFFCURVE",
"295 159 CURVE SMOOTH",
"267 159 OFFCURVE",
"243 136 OFFCURVE",
"243 107 CURVE SMOOTH",
"243 92 OFFCURVE",
"249 81 OFFCURVE",
"259 71 CURVE SMOOTH",
"306 23 OFFCURVE",
"361 0 OFFCURVE",
"428 0 CURVE SMOOTH",
"561 0 OFFCURVE",
"668 109 OFFCURVE",
"668 240 CURVE SMOOTH",
"668 466 LINE SMOOTH",
"668 638 OFFCURVE",
"525 781 OFFCURVE",
"353 781 CURVE SMOOTH",
"271 781 OFFCURVE",
"201 754 OFFCURVE",
"141 699 CURVE",
"141 729 LINE SMOOTH",
"141 759 OFFCURVE",
"119 781 OFFCURVE",
"89 781 CURVE SMOOTH",
"60 781 OFFCURVE",
"38 759 OFFCURVE",
"38 729 CURVE SMOOTH",
"38 52 LINE SMOOTH",
"38 22 OFFCURVE",
"60 0 OFFCURVE",
"89 0 CURVE SMOOTH"
);
}
);
width = 703;
},
{
layerId = "952115DE-4B60-44C8-B7C0-A1F0450151B4";
paths = (
{
closed = 1;
nodes = (
"87 0 OFFCURVE",
"100 13 OFFCURVE",
"100 30 CURVE SMOOTH",
"100 471 LINE SMOOTH",
"100 608 OFFCURVE",
"214 721 OFFCURVE",
"350 721 CURVE SMOOTH",
"488 721 OFFCURVE",
"601 607 OFFCURVE",
"601 471 CURVE SMOOTH",
"601 230 LINE SMOOTH",
"601 138 OFFCURVE",
"524 60 OFFCURVE",
"430 60 CURVE SMOOTH",
"383 60 OFFCURVE",
"344 77 OFFCURVE",
"310 111 CURVE SMOOTH",
"305 116 OFFCURVE",
"296 119 OFFCURVE",
"289 119 CURVE SMOOTH",
"271 119 OFFCURVE",
"259 105 OFFCURVE",
"259 89 CURVE SMOOTH",
"259 81 OFFCURVE",
"262 74 OFFCURVE",
"268 68 CURVE SMOOTH",
"312 22 OFFCURVE",
"366 0 OFFCURVE",
"430 0 CURVE SMOOTH",
"559 0 OFFCURVE",
"661 104 OFFCURVE",
"661 230 CURVE SMOOTH",
"661 471 LINE SMOOTH",
"661 640 OFFCURVE",
"520 781 OFFCURVE",
"350 781 CURVE SMOOTH",
"246 781 OFFCURVE",
"173 738 OFFCURVE",
"100 657 CURVE",
"100 751 LINE SMOOTH",
"100 768 OFFCURVE",
"87 781 OFFCURVE",
"70 781 CURVE SMOOTH",
"53 781 OFFCURVE",
"40 768 OFFCURVE",
"40 751 CURVE SMOOTH",
"40 30 LINE SMOOTH",
"40 13 OFFCURVE",
"53 0 OFFCURVE",
"70 0 CURVE SMOOTH"
);
}
);
width = 703;
}
);
unicode = 014A;
},
{
glyphname = O;
layers = (
{
background = {
paths = (
{
closed = 1;
nodes = (
"648 0 OFFCURVE",
"820 174 OFFCURVE",
"820 391 CURVE SMOOTH",
"820 610 OFFCURVE",
"645 781 OFFCURVE",
"430 781 CURVE SMOOTH",
"212 781 OFFCURVE",
"39 608 OFFCURVE",
"39 391 CURVE SMOOTH",
"39 172 OFFCURVE",
"211 0 OFFCURVE",
"430 0 CURVE SMOOTH"
);
},
{
closed = 1;
nodes = (
"272 104 OFFCURVE",
"143 233 OFFCURVE",
"143 391 CURVE SMOOTH",
"143 548 OFFCURVE",
"272 678 OFFCURVE",
"430 678 CURVE SMOOTH",
"587 678 OFFCURVE",
"717 547 OFFCURVE",
"717 391 CURVE SMOOTH",
"717 233 OFFCURVE",
"587 104 OFFCURVE",
"430 104 CURVE SMOOTH"
);
}
);
};
layerId = UUID0;
paths = (
{
closed = 1;
nodes = (
"664 -10 OFFCURVE",
"830 156 OFFCURVE",
"830 391 CURVE SMOOTH",
"830 625 OFFCURVE",
"664 791 OFFCURVE",
"430 791 CURVE SMOOTH",
"195 791 OFFCURVE",
"29 625 OFFCURVE",
"29 391 CURVE SMOOTH",
"29 156 OFFCURVE",
"195 -10 OFFCURVE",
"430 -10 CURVE SMOOTH"
);
},
{
closed = 1;
nodes = (
"256 94 OFFCURVE",
"133 217 OFFCURVE",
"133 391 CURVE SMOOTH",
"133 565 OFFCURVE",
"256 688 OFFCURVE",
"430 688 CURVE SMOOTH",
"604 688 OFFCURVE",
"727 565 OFFCURVE",
"727 391 CURVE SMOOTH",
"727 217 OFFCURVE",
"604 94 OFFCURVE",
"430 94 CURVE SMOOTH"
);
}
);
width = 859;
},
{
layerId = "952115DE-4B60-44C8-B7C0-A1F0450151B4";
paths = (
{
closed = 1;
nodes = (
"679 -10 OFFCURVE",
"851 162 OFFCURVE",
"851 391 CURVE SMOOTH",
"851 619 OFFCURVE",
"679 791 OFFCURVE",
"451 791 CURVE SMOOTH",
"222 791 OFFCURVE",
"50 619 OFFCURVE",
"50 391 CURVE SMOOTH",
"50 162 OFFCURVE",
"222 -10 OFFCURVE",
"451 -10 CURVE SMOOTH"
);
},
{
closed = 1;
nodes = (
"257 50 OFFCURVE",
"110 197 OFFCURVE",
"110 391 CURVE SMOOTH",
"110 584 OFFCURVE",
"257 731 OFFCURVE",
"451 731 CURVE SMOOTH",
"644 731 OFFCURVE",
"791 584 OFFCURVE",
"791 391 CURVE SMOOTH",
"791 197 OFFCURVE",
"644 50 OFFCURVE",
"451 50 CURVE SMOOTH"
);
}
);
width = 901;
},
{
layerId = "E42B920F-7E89-45C7-8F78-304483CE0F77";
width = 600;
},
{
associatedMasterId = "952115DE-4B60-44C8-B7C0-A1F0450151B4";
layerId = "C6ADB0AB-265E-4DE4-9438-1102989ED6CC";
name = "Oct 19 16, 15:46";
paths = (
{
closed = 1;
nodes = (
"650 0 OFFCURVE",
"820 175 OFFCURVE",
"820 391 CURVE SMOOTH",
"820 603 OFFCURVE",
"644 781 OFFCURVE",
"430 781 CURVE SMOOTH",
"212 781 OFFCURVE",
"39 608 OFFCURVE",
"39 391 CURVE SMOOTH",
"39 178 OFFCURVE",
"217 0 OFFCURVE",
"430 0 CURVE SMOOTH"
);
},
{
closed = 1;
nodes = (
"249 60 OFFCURVE",
"99 208 OFFCURVE",
"99 391 CURVE SMOOTH",
"99 574 OFFCURVE",
"251 721 OFFCURVE",
"430 721 CURVE SMOOTH",
"609 721 OFFCURVE",
"760 572 OFFCURVE",
"760 391 CURVE SMOOTH",
"760 209 OFFCURVE",
"611 60 OFFCURVE",
"430 60 CURVE SMOOTH"
);
}
);
width = 859;
}
);
unicode = 004F;
},
{
glyphname = Oslash;
layers = (
{
layerId = UUID0;
paths = (
{
closed = 1;
nodes = (
"104 0 OFFCURVE",
"117 4 OFFCURVE",
"127 15 CURVE SMOOTH",
"192 80 LINE",
"261 25 OFFCURVE",
"338 0 OFFCURVE",
"430 0 CURVE SMOOTH",
"538 0 OFFCURVE",
"629 38 OFFCURVE",
"706 114 CURVE SMOOTH",
"782 191 OFFCURVE",
"820 283 OFFCURVE",
"820 391 CURVE SMOOTH",
"820 482 OFFCURVE",
"795 559 OFFCURVE",
"740 628 CURVE",
"809 697 LINE",
"816 706 OFFCURVE",
"820 717 OFFCURVE",
"820 729 CURVE SMOOTH",
"820 759 OFFCURVE",
"798 781 OFFCURVE",
"769 781 CURVE SMOOTH",
"754 781 OFFCURVE",
"742 776 OFFCURVE",
"732 766 CURVE SMOOTH",
"667 701 LINE",
"598 756 OFFCURVE",
"521 781 OFFCURVE",
"430 781 CURVE SMOOTH",
"322 781 OFFCURVE",
"230 743 OFFCURVE",
"153 667 CURVE SMOOTH",
"77 590 OFFCURVE",
"39 499 OFFCURVE",
"39 391 CURVE SMOOTH",
"39 299 OFFCURVE",
"64 222 OFFCURVE",
"119 153 CURVE",
"53 87 LINE SMOOTH",
"43 78 OFFCURVE",
"39 66 OFFCURVE",
"39 52 CURVE SMOOTH",
"39 22 OFFCURVE",
"62 0 OFFCURVE",
"91 0 CURVE SMOOTH"
);
},
{
closed = 1;
nodes = (
"159 275 OFFCURVE",
"143 329 OFFCURVE",
"143 391 CURVE SMOOTH",
"143 548 OFFCURVE",
"272 678 OFFCURVE",
"430 678 CURVE SMOOTH",
"491 678 OFFCURVE",
"546 661 OFFCURVE",
"593 627 CURVE",
"193 228 LINE"
);
},
{
closed = 1;
nodes = (
"368 104 OFFCURVE",
"314 120 OFFCURVE",
"267 154 CURVE",
"666 554 LINE",
"700 505 OFFCURVE",
"717 451 OFFCURVE",
"717 391 CURVE SMOOTH",
"717 233 OFFCURVE",
"587 104 OFFCURVE",
"430 104 CURVE SMOOTH"
);
}
);
width = 859;
},
{
layerId = "952115DE-4B60-44C8-B7C0-A1F0450151B4";
paths = (
{
closed = 1;
nodes = (
"77 0 OFFCURVE",
"84 2 OFFCURVE",
"90 8 CURVE SMOOTH",
"175 94 LINE",
"250 31 OFFCURVE",
"334 0 OFFCURVE",
"429 0 CURVE SMOOTH",
"537 0 OFFCURVE",
"629 38 OFFCURVE",
"705 114 CURVE SMOOTH",
"782 191 OFFCURVE",
"820 283 OFFCURVE",
"820 391 CURVE SMOOTH",
"820 486 OFFCURVE",
"789 570 OFFCURVE",
"726 645 CURVE",
"813 731 LINE",
"817 737 OFFCURVE",
"820 743 OFFCURVE",
"820 751 CURVE SMOOTH",
"820 768 OFFCURVE",
"807 781 OFFCURVE",
"790 781 CURVE SMOOTH",
"782 781 OFFCURVE",
"774 778 OFFCURVE",
"769 773 CURVE SMOOTH",
"683 688 LINE",
"608 750 OFFCURVE",
"523 781 OFFCURVE",
"429 781 CURVE SMOOTH",
"321 781 OFFCURVE",
"229 743 OFFCURVE",
"153 667 CURVE SMOOTH",
"77 590 OFFCURVE",
"39 499 OFFCURVE",
"39 391 CURVE SMOOTH",
"39 296 OFFCURVE",
"70 211 OFFCURVE",
"132 137 CURVE",
"46 51 LINE SMOOTH",
"41 45 OFFCURVE",
"39 39 OFFCURVE",
"39 30 CURVE SMOOTH",
"39 13 OFFCURVE",
"52 0 OFFCURVE",
"69 0 CURVE SMOOTH"
);
},
{
closed = 1;
nodes = (
"124 243 OFFCURVE",
"99 314 OFFCURVE",
"99 391 CURVE SMOOTH",
"99 574 OFFCURVE",
"251 721 OFFCURVE",
"429 721 CURVE SMOOTH",
"507 721 OFFCURVE",
"577 696 OFFCURVE",
"641 645 CURVE",
"175 179 LINE"
);
},
{
closed = 1;
nodes = (
"352 60 OFFCURVE",
"282 85 OFFCURVE",
"218 136 CURVE",
"684 603 LINE",
"734 539 OFFCURVE",
"760 468 OFFCURVE",
"760 391 CURVE SMOOTH",
"760 209 OFFCURVE",
"610 60 OFFCURVE",
"429 60 CURVE SMOOTH"
);
}
);
width = 859;
},
{
layerId = "E42B920F-7E89-45C7-8F78-304483CE0F77";
width = 600;
}
);
unicode = 00D8;
},
{
glyphname = OE;
layers = (
{
layerId = UUID0;
paths = (
{
closed = 1;
nodes = (
"958 0 LINE SMOOTH",
"988 0 OFFCURVE",
"1010 22 OFFCURVE",
"1010 52 CURVE SMOOTH",
"1010 81 OFFCURVE",
"988 104 OFFCURVE",
"958 104 CURVE SMOOTH",
"559 104 LINE",
"559 338 LINE",
"846 338 LINE SMOOTH",
"875 338 OFFCURVE",
"898 361 OFFCURVE",
"898 391 CURVE SMOOTH",
"898 420 OFFCURVE",
"875 442 OFFCURVE",
"846 442 CURVE SMOOTH",
"559 442 LINE",
"559 678 LINE",
"959 678 LINE SMOOTH",
"988 678 OFFCURVE",
"1011 700 OFFCURVE",
"1011 729 CURVE SMOOTH",
"1011 759 OFFCURVE",
"988 781 OFFCURVE",
"959 781 CURVE SMOOTH",
"432 781 LINE SMOOTH",
"324 781 OFFCURVE",
"232 743 OFFCURVE",
"155 667 CURVE SMOOTH",
"79 590 OFFCURVE",
"41 499 OFFCURVE",
"41 391 CURVE SMOOTH",
"41 283 OFFCURVE",
"79 190 OFFCURVE",
"155 114 CURVE SMOOTH",
"231 38 OFFCURVE",
"324 0 OFFCURVE",
"432 0 CURVE SMOOTH"
);
},
{
closed = 1;
nodes = (
"274 104 OFFCURVE",
"145 231 OFFCURVE",
"145 391 CURVE SMOOTH",
"145 549 OFFCURVE",
"274 678 OFFCURVE",
"432 678 CURVE SMOOTH",
"455 678 LINE",
"455 104 LINE",
"432 104 LINE SMOOTH"
);
}
);
width = 1055;
},
{
layerId = "952115DE-4B60-44C8-B7C0-A1F0450151B4";
paths = (
{
closed = 1;
nodes = (
"989 0 LINE SMOOTH",
"1006 0 OFFCURVE",
"1019 13 OFFCURVE",
"1019 30 CURVE SMOOTH",
"1019 46 OFFCURVE",
"1006 60 OFFCURVE",
"989 60 CURVE SMOOTH",
"538 60 LINE",
"538 360 LINE",
"869 360 LINE SMOOTH",
"886 360 OFFCURVE",
"899 374 OFFCURVE",
"899 391 CURVE SMOOTH",
"899 408 OFFCURVE",
"886 421 OFFCURVE",
"869 421 CURVE SMOOTH",
"538 421 LINE",
"538 721 LINE",
"989 721 LINE SMOOTH",
"1006 721 OFFCURVE",
"1020 735 OFFCURVE",
"1020 751 CURVE SMOOTH",
"1020 768 OFFCURVE",
"1006 781 OFFCURVE",
"989 781 CURVE SMOOTH",
"428 781 LINE SMOOTH",
"320 781 OFFCURVE",
"228 743 OFFCURVE",
"152 667 CURVE SMOOTH",
"76 590 OFFCURVE",
"38 499 OFFCURVE",
"38 391 CURVE SMOOTH",
"38 179 OFFCURVE",
"214 0 OFFCURVE",
"428 0 CURVE SMOOTH"
);
},
{
closed = 1;
nodes = (
"247 60 OFFCURVE",
"98 208 OFFCURVE",
"98 391 CURVE SMOOTH",
"98 573 OFFCURVE",
"249 721 OFFCURVE",
"428 721 CURVE SMOOTH",
"478 721 LINE",
"478 60 LINE",
"428 60 LINE SMOOTH"
);
}
);
width = 1055;
},
{
layerId = "E42B920F-7E89-45C7-8F78-304483CE0F77";
width = 600;
}
);
unicode = 0152;
},
{
glyphname = P;
layers = (
{
layerId = UUID0;
paths = (
{
closed = 1;
nodes = (
"117 0 OFFCURVE",
"140 23 OFFCURVE",
"140 52 CURVE SMOOTH",
"140 264 LINE",
"238 264 LINE SMOOTH",
"382 264 OFFCURVE",
"498 384 OFFCURVE",
"498 522 CURVE SMOOTH",
"498 664 OFFCURVE",
"379 781 OFFCURVE",
"238 781 CURVE SMOOTH",
"88 781 LINE SMOOTH",
"59 781 OFFCURVE",
"36 759 OFFCURVE",
"36 729 CURVE SMOOTH",
"36 52 LINE SMOOTH",
"36 23 OFFCURVE",
"59 0 OFFCURVE",
"88 0 CURVE SMOOTH"
);
},
{
closed = 1;
nodes = (
"140 678 LINE",
"238 678 LINE SMOOTH",
"322 678 OFFCURVE",
"394 610 OFFCURVE",
"394 522 CURVE SMOOTH",
"394 437 OFFCURVE",
"322 367 OFFCURVE",
"238 367 CURVE SMOOTH",
"140 367 LINE"
);
}
);
width = 527;
},
{
layerId = "952115DE-4B60-44C8-B7C0-A1F0450151B4";
paths = (
{
closed = 1;
nodes = (
"86 0 OFFCURVE",
"99 13 OFFCURVE",
"99 30 CURVE SMOOTH",
"99 280 LINE",
"229 280 LINE SMOOTH",
"367 280 OFFCURVE",
"479 395 OFFCURVE",
"479 531 CURVE SMOOTH",
"479 668 OFFCURVE",
"366 781 OFFCURVE",
"229 781 CURVE SMOOTH",
"69 781 LINE SMOOTH",
"52 781 OFFCURVE",
"39 768 OFFCURVE",
"39 751 CURVE SMOOTH",
"39 30 LINE SMOOTH",
"39 13 OFFCURVE",
"52 0 OFFCURVE",
"69 0 CURVE SMOOTH"
);
},
{
closed = 1;
nodes = (
"99 721 LINE",
"229 721 LINE SMOOTH",
"333 721 OFFCURVE",
"419 634 OFFCURVE",
"419 531 CURVE SMOOTH",
"419 428 OFFCURVE",
"333 340 OFFCURVE",
"229 340 CURVE SMOOTH",
"99 340 LINE"
);
}
);
width = 527;
},
{
layerId = "E42B920F-7E89-45C7-8F78-304483CE0F77";
width = 600;
}
);
unicode = 0050;
},
{
glyphname = Thorn;
layers = (
{
layerId = "E42B920F-7E89-45C7-8F78-304483CE0F77";
width = 600;
},
{
layerId = UUID0;
paths = (
{
closed = 1;
nodes = (
"118 0 OFFCURVE",
"141 22 OFFCURVE",
"141 52 CURVE SMOOTH",
"141 150 LINE",
"353 150 LINE SMOOTH",
"482 150 OFFCURVE",
"592 258 OFFCURVE",
"592 391 CURVE SMOOTH",
"592 522 OFFCURVE",
"483 631 OFFCURVE",
"353 631 CURVE SMOOTH",
"141 631 LINE",
"141 729 LINE SMOOTH",
"141 759 OFFCURVE",
"118 781 OFFCURVE",
"89 781 CURVE SMOOTH",
"60 781 OFFCURVE",
"37 759 OFFCURVE",
"37 729 CURVE SMOOTH",
"37 52 LINE SMOOTH",
"37 22 OFFCURVE",
"60 0 OFFCURVE",
"89 0 CURVE SMOOTH"
);
},
{
closed = 1;
nodes = (
"141 527 LINE",
"353 527 LINE SMOOTH",
"427 527 OFFCURVE",
"489 466 OFFCURVE",
"489 391 CURVE SMOOTH",
"489 315 OFFCURVE",
"428 254 OFFCURVE",
"353 254 CURVE SMOOTH",
"141 254 LINE"
);
}
);
width = 625;
},
{
layerId = "952115DE-4B60-44C8-B7C0-A1F0450151B4";
paths = (
{
closed = 1;
nodes = (
"87 0 OFFCURVE",
"100 13 OFFCURVE",
"100 30 CURVE SMOOTH",
"100 160 LINE",
"351 160 LINE SMOOTH",
"477 160 OFFCURVE",
"581 264 OFFCURVE",
"581 391 CURVE SMOOTH",
"581 518 OFFCURVE",
"476 621 OFFCURVE",
"351 621 CURVE SMOOTH",
"100 621 LINE",
"100 751 LINE SMOOTH",
"100 768 OFFCURVE",
"87 781 OFFCURVE",
"70 781 CURVE SMOOTH",
"53 781 OFFCURVE",
"40 768 OFFCURVE",
"40 751 CURVE SMOOTH",
"40 30 LINE SMOOTH",
"40 13 OFFCURVE",
"53 0 OFFCURVE",
"70 0 CURVE SMOOTH"
);
},
{
closed = 1;
nodes = (
"100 561 LINE",
"351 561 LINE SMOOTH",
"444 561 OFFCURVE",
"521 482 OFFCURVE",
"521 391 CURVE SMOOTH",
"521 299 OFFCURVE",
"446 220 OFFCURVE",
"351 220 CURVE SMOOTH",
"100 220 LINE"
);
}
);
width = 625;
}
);
unicode = 00DE;
},
{
glyphname = Q;
layers = (
{
layerId = UUID0;
paths = (
{
closed = 1;
nodes = (
"521 0 OFFCURVE",
"598 25 OFFCURVE",
"667 80 CURVE",
"731 15 LINE SMOOTH",
"742 5 OFFCURVE",
"753 0 OFFCURVE",
"769 0 CURVE SMOOTH",
"798 0 OFFCURVE",
"820 22 OFFCURVE",
"820 52 CURVE SMOOTH",
"820 65 OFFCURVE",
"815 77 OFFCURVE",
"806 88 CURVE",
"740 153 LINE",
"795 222 OFFCURVE",
"820 299 OFFCURVE",
"820 391 CURVE SMOOTH",
"820 500 OFFCURVE",
"782 590 OFFCURVE",
"706 667 CURVE SMOOTH",
"629 743 OFFCURVE",
"537 781 OFFCURVE",
"430 781 CURVE SMOOTH",
"322 781 OFFCURVE",
"230 743 OFFCURVE",
"153 667 CURVE SMOOTH",
"77 590 OFFCURVE",
"39 499 OFFCURVE",
"39 391 CURVE SMOOTH",
"39 283 OFFCURVE",
"77 190 OFFCURVE",
"153 114 CURVE SMOOTH",
"229 38 OFFCURVE",
"322 0 OFFCURVE",
"430 0 CURVE SMOOTH"
);
},
{
closed = 1;
nodes = (
"272 104 OFFCURVE",
"143 233 OFFCURVE",
"143 391 CURVE SMOOTH",
"143 548 OFFCURVE",
"272 678 OFFCURVE",
"430 678 CURVE SMOOTH",
"587 678 OFFCURVE",
"717 547 OFFCURVE",
"717 391 CURVE SMOOTH",
"717 329 OFFCURVE",
"700 275 OFFCURVE",
"667 228 CURVE",
"598 295 LINE SMOOTH",
"588 306 OFFCURVE",
"576 311 OFFCURVE",
"562 311 CURVE SMOOTH",
"532 311 OFFCURVE",
"510 288 OFFCURVE",
"510 259 CURVE SMOOTH",
"510 246 OFFCURVE",
"515 233 OFFCURVE",
"524 222 CURVE",
"593 154 LINE",
"546 120 OFFCURVE",
"491 104 OFFCURVE",
"430 104 CURVE SMOOTH"
);
}
);
width = 859;
},
{
layerId = "952115DE-4B60-44C8-B7C0-A1F0450151B4";
paths = (
{
closed = 1;
nodes = (
"524 0 OFFCURVE",
"609 31 OFFCURVE",
"684 94 CURVE",
"769 9 LINE SMOOTH",
"775 3 OFFCURVE",
"782 0 OFFCURVE",
"791 0 CURVE SMOOTH",
"808 0 OFFCURVE",
"820 13 OFFCURVE",
"820 30 CURVE SMOOTH",
"820 38 OFFCURVE",
"817 45 OFFCURVE",
"812 51 CURVE",
"727 137 LINE",
"789 211 OFFCURVE",
"820 295 OFFCURVE",
"820 391 CURVE SMOOTH",
"820 603 OFFCURVE",
"644 781 OFFCURVE",
"430 781 CURVE SMOOTH",
"322 781 OFFCURVE",
"230 743 OFFCURVE",
"153 667 CURVE SMOOTH",
"77 590 OFFCURVE",
"39 499 OFFCURVE",
"39 391 CURVE SMOOTH",
"39 178 OFFCURVE",
"217 0 OFFCURVE",
"430 0 CURVE SMOOTH"
);
},
{
closed = 1;
nodes = (
"249 60 OFFCURVE",
"99 208 OFFCURVE",
"99 391 CURVE SMOOTH",
"99 573 OFFCURVE",
"250 721 OFFCURVE",
"430 721 CURVE SMOOTH",
"609 721 OFFCURVE",
"760 572 OFFCURVE",
"760 391 CURVE SMOOTH",
"760 313 OFFCURVE",
"735 243 OFFCURVE",
"684 179 CURVE",
"592 272 LINE",
"585 277 OFFCURVE",
"578 280 OFFCURVE",
"570 280 CURVE SMOOTH",
"552 280 OFFCURVE",
"540 267 OFFCURVE",
"540 249 CURVE",
"540 240 OFFCURVE",
"543 234 OFFCURVE",
"548 229 CURVE SMOOTH",
"641 136 LINE",
"578 85 OFFCURVE",
"507 60 OFFCURVE",
"430 60 CURVE SMOOTH"
);
}
);
width = 859;
},
{
layerId = "E42B920F-7E89-45C7-8F78-304483CE0F77";
width = 600;
}
);
unicode = 0051;
},
{
glyphname = R;
layers = (
{
layerId = UUID0;
paths = (
{
closed = 1;
nodes = (
"117 0 OFFCURVE",
"140 23 OFFCURVE",
"140 52 CURVE SMOOTH",
"140 301 LINE",
"286 301 LINE",
"458 25 LINE SMOOTH",
"469 8 OFFCURVE",
"485 0 OFFCURVE",
"502 0 CURVE SMOOTH",
"532 0 OFFCURVE",
"554 22 OFFCURVE",
"554 52 CURVE SMOOTH",
"554 62 OFFCURVE",
"551 71 OFFCURVE",
"546 80 CURVE",
"390 330 LINE",
"474 376 OFFCURVE",
"517 455 OFFCURVE",
"517 541 CURVE SMOOTH",
"517 672 OFFCURVE",
"408 781 OFFCURVE",
"277 781 CURVE SMOOTH",
"88 781 LINE SMOOTH",
"59 781 OFFCURVE",
"37 759 OFFCURVE",
"37 729 CURVE SMOOTH",
"37 52 LINE SMOOTH",
"37 23 OFFCURVE",
"60 0 OFFCURVE",
"88 0 CURVE SMOOTH"
);
},
{
closed = 1;
nodes = (
"140 678 LINE",
"277 678 LINE SMOOTH",
"352 678 OFFCURVE",
"413 617 OFFCURVE",
"413 541 CURVE SMOOTH",
"413 467 OFFCURVE",
"353 405 OFFCURVE",
"277 405 CURVE SMOOTH",
"140 405 LINE"
);
}
);
width = 586;
},
{
layerId = "952115DE-4B60-44C8-B7C0-A1F0450151B4";
paths = (
{
closed = 1;
nodes = (
"86 0 OFFCURVE",
"99 13 OFFCURVE",
"99 30 CURVE SMOOTH",
"99 320 LINE",
"270 320 LINE SMOOTH",
"278 320 OFFCURVE",
"286 321 OFFCURVE",
"292 321 CURVE",
"483 16 LINE SMOOTH",
"490 5 OFFCURVE",
"500 0 OFFCURVE",
"510 0 CURVE SMOOTH",
"527 0 OFFCURVE",
"540 13 OFFCURVE",
"540 30 CURVE SMOOTH",
"540 36 OFFCURVE",
"538 41 OFFCURVE",
"535 46 CURVE SMOOTH",
"354 335 LINE",
"451 379 OFFCURVE",
"500 458 OFFCURVE",
"500 551 CURVE SMOOTH",
"500 677 OFFCURVE",
"396 781 OFFCURVE",
"270 781 CURVE SMOOTH",
"69 781 LINE SMOOTH",
"53 781 OFFCURVE",
"39 768 OFFCURVE",
"39 751 CURVE SMOOTH",
"39 30 LINE SMOOTH",
"39 13 OFFCURVE",
"53 0 OFFCURVE",
"69 0 CURVE SMOOTH"
);
},
{
closed = 1;
nodes = (
"99 721 LINE",
"270 721 LINE SMOOTH",
"360 721 OFFCURVE",
"439 646 OFFCURVE",
"439 551 CURVE SMOOTH",
"439 457 OFFCURVE",
"362 380 OFFCURVE",
"270 380 CURVE SMOOTH",
"99 380 LINE"
);
}
);
width = 586;
},
{
layerId = "E42B920F-7E89-45C7-8F78-304483CE0F77";
width = 600;
}
);
unicode = 0052;
},
{
glyphname = S;
layers = (
{
layerId = UUID0;
paths = (
{
closed = 1;
nodes = (
"307 0 OFFCURVE",
"358 19 OFFCURVE",
"404 58 CURVE",
"403 58 LINE",
"459 105 OFFCURVE",
"488 167 OFFCURVE",
"488 243 CURVE SMOOTH",
"488 325 OFFCURVE",
"443 433 OFFCURVE",
"269 482 CURVE SMOOTH",
"201 501 OFFCURVE",
"177 528 OFFCURVE",
"177 578 CURVE SMOOTH",
"177 634 OFFCURVE",
"226 677 OFFCURVE",
"275 677 CURVE SMOOTH",
"306 677 OFFCURVE",
"335 666 OFFCURVE",
"351 643 CURVE SMOOTH",
"367 619 OFFCURVE",
"379 603 OFFCURVE",
"405 603 CURVE SMOOTH",
"435 603 OFFCURVE",
"457 625 OFFCURVE",
"457 654 CURVE SMOOTH",
"457 665 OFFCURVE",
"455 674 OFFCURVE",
"450 682 CURVE SMOOTH",
"408 749 OFFCURVE",
"341 781 OFFCURVE",
"276 781 CURVE SMOOTH",
"226 781 OFFCURVE",
"182 765 OFFCURVE",
"144 732 CURVE",
"145 732 LINE",
"98 692 OFFCURVE",
"73 641 OFFCURVE",
"73 577 CURVE SMOOTH",
"73 503 OFFCURVE",
"109 421 OFFCURVE",
"245 380 CURVE SMOOTH",
"372 343 OFFCURVE",
"384 286 OFFCURVE",
"384 241 CURVE SMOOTH",
"384 166 OFFCURVE",
"323 104 OFFCURVE",
"249 104 CURVE SMOOTH",
"202 104 OFFCURVE",
"158 125 OFFCURVE",
"131 167 CURVE SMOOTH",
"121 184 OFFCURVE",
"107 191 OFFCURVE",
"88 191 CURVE SMOOTH",
"59 191 OFFCURVE",
"36 169 OFFCURVE",
"36 140 CURVE SMOOTH",
"36 127 OFFCURVE",
"40 117 OFFCURVE",
"46 108 CURVE",
"93 39 OFFCURVE",
"173 0 OFFCURVE",
"250 0 CURVE SMOOTH"
);
}
);
width = 518;
},
{
layerId = "952115DE-4B60-44C8-B7C0-A1F0450151B4";
paths = (
{
closed = 1;
nodes = (
"355 0 OFFCURVE",
"470 88 OFFCURVE",
"470 234 CURVE SMOOTH",
"470 335 OFFCURVE",
"399 434 OFFCURVE",
"276 457 CURVE SMOOTH",
"175 476 OFFCURVE",
"139 526 OFFCURVE",
"139 590 CURVE SMOOTH",
"139 660 OFFCURVE",
"198 720 OFFCURVE",
"270 720 CURVE SMOOTH",
"320 720 OFFCURVE",
"353 696 OFFCURVE",
"387 649 CURVE SMOOTH",
"391 644 OFFCURVE",
"398 641 OFFCURVE",
"407 641 CURVE SMOOTH",
"423 641 OFFCURVE",
"437 655 OFFCURVE",
"437 671 CURVE SMOOTH",
"437 686 OFFCURVE",
"425 701 OFFCURVE",
"414 713 CURVE SMOOTH",
"373 759 OFFCURVE",
"324 781 OFFCURVE",
"270 781 CURVE SMOOTH",
"164 781 OFFCURVE",
"79 696 OFFCURVE",
"79 588 CURVE SMOOTH",
"79 502 OFFCURVE",
"131 423 OFFCURVE",
"253 400 CURVE",
"348 384 OFFCURVE",
"410 317 OFFCURVE",
"410 232 CURVE SMOOTH",
"410 121 OFFCURVE",
"320 60 OFFCURVE",
"241 60 CURVE",
"167 63 OFFCURVE",
"125 97 OFFCURVE",
"95 140 CURVE SMOOTH",
"88 149 OFFCURVE",
"80 154 OFFCURVE",
"69 154 CURVE SMOOTH",
"52 154 OFFCURVE",
"39 141 OFFCURVE",
"39 124 CURVE SMOOTH",
"39 108 OFFCURVE",
"55 90 OFFCURVE",
"63 82 CURVE SMOOTH",
"113 27 OFFCURVE",
"173 0 OFFCURVE",
"241 0 CURVE SMOOTH"
);
}
);
width = 518;
},
{
layerId = "E42B920F-7E89-45C7-8F78-304483CE0F77";
width = 600;
}
);
unicode = 0053;
},
{
glyphname = T;
layers = (
{
layerId = UUID0;
paths = (
{
closed = 1;
nodes = (
"363 0 OFFCURVE",
"386 23 OFFCURVE",
"386 52 CURVE SMOOTH",
"386 678 LINE",
"579 678 LINE SMOOTH",
"607 678 OFFCURVE",
"630 701 OFFCURVE",
"630 729 CURVE SMOOTH",
"630 758 OFFCURVE",
"607 781 OFFCURVE",
"579 781 CURVE SMOOTH",
"89 781 LINE SMOOTH",
"61 781 OFFCURVE",
"38 758 OFFCURVE",
"38 729 CURVE SMOOTH",
"38 701 OFFCURVE",
"61 678 OFFCURVE",
"89 678 CURVE SMOOTH",
"282 678 LINE",
"282 52 LINE SMOOTH",
"282 23 OFFCURVE",
"305 0 OFFCURVE",
"334 0 CURVE SMOOTH"
);
}
);
width = 664;
},
{
layerId = "952115DE-4B60-44C8-B7C0-A1F0450151B4";
paths = (
{
closed = 1;
nodes = (
"347 0 OFFCURVE",
"360 13 OFFCURVE",
"360 30 CURVE SMOOTH",
"360 721 LINE",
"590 721 LINE SMOOTH",
"607 721 OFFCURVE",
"621 735 OFFCURVE",
"621 751 CURVE SMOOTH",
"621 768 OFFCURVE",
"607 781 OFFCURVE",
"590 781 CURVE SMOOTH",
"69 781 LINE SMOOTH",
"53 781 OFFCURVE",
"40 768 OFFCURVE",
"40 751 CURVE SMOOTH",
"40 735 OFFCURVE",
"53 721 OFFCURVE",
"69 721 CURVE SMOOTH",
"300 721 LINE",
"300 30 LINE SMOOTH",
"300 13 OFFCURVE",
"313 0 OFFCURVE",
"330 0 CURVE SMOOTH"
);
}
);
width = 664;
},
{
layerId = "E42B920F-7E89-45C7-8F78-304483CE0F77";
width = 600;
}
);
unicode = 0054;
},
{
glyphname = Tbar;
layers = (
{
layerId = UUID0;
paths = (
{
closed = 1;
nodes = (
"363 0 OFFCURVE",
"386 22 OFFCURVE",
"386 52 CURVE SMOOTH",
"386 301 LINE",
"522 301 LINE SMOOTH",
"551 301 OFFCURVE",
"574 324 OFFCURVE",
"574 353 CURVE SMOOTH",
"574 382 OFFCURVE",
"551 405 OFFCURVE",
"522 405 CURVE SMOOTH",
"386 405 LINE",
"386 678 LINE",
"579 678 LINE SMOOTH",
"608 678 OFFCURVE",
"630 700 OFFCURVE",
"630 729 CURVE SMOOTH",
"630 759 OFFCURVE",
"608 781 OFFCURVE",
"579 781 CURVE SMOOTH",
"89 781 LINE SMOOTH",
"61 781 OFFCURVE",
"37 758 OFFCURVE",
"37 729 CURVE SMOOTH",
"37 701 OFFCURVE",
"61 678 OFFCURVE",
"89 678 CURVE SMOOTH",
"282 678 LINE",
"282 405 LINE",
"146 405 LINE SMOOTH",
"116 405 OFFCURVE",
"94 382 OFFCURVE",
"94 353 CURVE SMOOTH",
"94 324 OFFCURVE",
"116 301 OFFCURVE",
"146 301 CURVE SMOOTH",
"282 301 LINE",
"282 52 LINE SMOOTH",
"282 22 OFFCURVE",
"305 0 OFFCURVE",
"334 0 CURVE SMOOTH"
);
}
);
width = 664;
},
{
layerId = "952115DE-4B60-44C8-B7C0-A1F0450151B4";
paths = (
{
closed = 1;
nodes = (
"348 0 OFFCURVE",
"360 13 OFFCURVE",
"360 30 CURVE SMOOTH",
"360 320 LINE",
"531 320 LINE SMOOTH",
"548 320 OFFCURVE",
"561 333 OFFCURVE",
"561 351 CURVE SMOOTH",
"561 368 OFFCURVE",
"548 380 OFFCURVE",
"531 380 CURVE SMOOTH",
"360 380 LINE",
"360 721 LINE",
"591 721 LINE SMOOTH",
"608 721 OFFCURVE",
"621 735 OFFCURVE",
"621 751 CURVE SMOOTH",
"621 768 OFFCURVE",
"608 781 OFFCURVE",
"591 781 CURVE SMOOTH",
"70 781 LINE SMOOTH",
"54 781 OFFCURVE",
"40 768 OFFCURVE",
"40 751 CURVE SMOOTH",
"40 735 OFFCURVE",
"54 721 OFFCURVE",
"70 721 CURVE SMOOTH",
"300 721 LINE",
"300 380 LINE",
"130 380 LINE SMOOTH",
"114 380 OFFCURVE",
"100 368 OFFCURVE",
"100 351 CURVE SMOOTH",
"100 333 OFFCURVE",
"114 320 OFFCURVE",
"130 320 CURVE SMOOTH",
"300 320 LINE",
"300 30 LINE SMOOTH",
"300 13 OFFCURVE",
"313 0 OFFCURVE",
"331 0 CURVE SMOOTH"
);
}
);
width = 664;
},
{
layerId = "E42B920F-7E89-45C7-8F78-304483CE0F77";
width = 600;
}
);
unicode = 0166;
},
{
glyphname = U;
layers = (
{
layerId = UUID0;
paths = (
{
closed = 1;
nodes = (
"467 0 OFFCURVE",
"592 126 OFFCURVE",
"592 278 CURVE SMOOTH",
"592 729 LINE SMOOTH",
"592 758 OFFCURVE",
"569 781 OFFCURVE",
"541 781 CURVE SMOOTH",
"512 781 OFFCURVE",
"489 758 OFFCURVE",
"489 729 CURVE SMOOTH",
"489 278 LINE SMOOTH",
"489 182 OFFCURVE",
"411 104 OFFCURVE",
"314 104 CURVE SMOOTH",
"218 104 OFFCURVE",
"141 183 OFFCURVE",
"141 278 CURVE SMOOTH",
"141 729 LINE SMOOTH",
"141 758 OFFCURVE",
"118 781 OFFCURVE",
"89 781 CURVE SMOOTH",
"60 781 OFFCURVE",
"37 758 OFFCURVE",
"37 729 CURVE SMOOTH",
"37 278 LINE SMOOTH",
"37 126 OFFCURVE",
"162 0 OFFCURVE",
"314 0 CURVE SMOOTH"
);
}
);
width = 625;
},
{
layerId = "952115DE-4B60-44C8-B7C0-A1F0450151B4";
paths = (
{
closed = 1;
nodes = (
"458 0 OFFCURVE",
"581 122 OFFCURVE",
"581 271 CURVE SMOOTH",
"581 751 LINE SMOOTH",
"581 768 OFFCURVE",
"567 781 OFFCURVE",
"551 781 CURVE SMOOTH",
"534 781 OFFCURVE",
"521 768 OFFCURVE",
"521 751 CURVE SMOOTH",
"521 271 LINE SMOOTH",
"521 155 OFFCURVE",
"426 60 OFFCURVE",
"310 60 CURVE SMOOTH",
"195 60 OFFCURVE",
"100 155 OFFCURVE",
"100 271 CURVE SMOOTH",
"100 751 LINE SMOOTH",
"100 768 OFFCURVE",
"87 781 OFFCURVE",
"70 781 CURVE SMOOTH",
"53 781 OFFCURVE",
"40 768 OFFCURVE",
"40 751 CURVE SMOOTH",
"40 271 LINE SMOOTH",
"40 121 OFFCURVE",
"162 0 OFFCURVE",
"310 0 CURVE SMOOTH"
);
}
);
width = 625;
},
{
layerId = "E42B920F-7E89-45C7-8F78-304483CE0F77";
width = 600;
}
);
unicode = 0055;
},
{
glyphname = V;
layers = (
{
layerId = UUID0;
paths = (
{
closed = 1;
nodes = (
"376 0 OFFCURVE",
"392 11 OFFCURVE",
"400 33 CURVE SMOOTH",
"663 703 LINE SMOOTH",
"666 712 OFFCURVE",
"668 721 OFFCURVE",
"668 729 CURVE SMOOTH",
"668 759 OFFCURVE",
"646 781 OFFCURVE",
"617 781 CURVE SMOOTH",
"593 781 OFFCURVE",
"577 771 OFFCURVE",
"569 750 CURVE SMOOTH",
"353 195 LINE",
"137 750 LINE",
"128 771 OFFCURVE",
"112 781 OFFCURVE",
"89 781 CURVE SMOOTH",
"60 781 OFFCURVE",
"38 759 OFFCURVE",
"38 729 CURVE SMOOTH",
"38 722 OFFCURVE",
"40 713 OFFCURVE",
"43 703 CURVE SMOOTH",
"306 33 LINE SMOOTH",
"314 11 OFFCURVE",
"330 0 OFFCURVE",
"353 0 CURVE SMOOTH"
);
}
);
width = 703;
},
{
layerId = "952115DE-4B60-44C8-B7C0-A1F0450151B4";
paths = (
{
closed = 1;
nodes = (
"359 0 OFFCURVE",
"371 4 OFFCURVE",
"377 19 CURVE SMOOTH",
"656 732 LINE SMOOTH",
"659 739 OFFCURVE",
"660 746 OFFCURVE",
"660 751 CURVE SMOOTH",
"660 768 OFFCURVE",
"646 781 OFFCURVE",
"630 781 CURVE SMOOTH",
"616 781 OFFCURVE",
"607 776 OFFCURVE",
"603 765 CURVE SMOOTH",
"350 113 LINE",
"97 764 LINE SMOOTH",
"92 775 OFFCURVE",
"83 781 OFFCURVE",
"69 781 CURVE SMOOTH",
"52 781 OFFCURVE",
"39 768 OFFCURVE",
"39 751 CURVE SMOOTH",
"39 746 OFFCURVE",
"41 739 OFFCURVE",
"43 732 CURVE SMOOTH",
"323 19 LINE",
"329 5 OFFCURVE",
"337 0 OFFCURVE",
"350 0 CURVE SMOOTH"
);
}
);
width = 703;
},
{
layerId = "E42B920F-7E89-45C7-8F78-304483CE0F77";
width = 600;
}
);
unicode = 0056;
},
{
glyphname = W;
layers = (
{
layerId = UUID0;
paths = (
{
closed = 1;
nodes = (
"304 0 OFFCURVE",
"323 17 OFFCURVE",
"332 42 CURVE",
"468 535 LINE",
"604 41 LINE",
"612 18 OFFCURVE",
"631 0 OFFCURVE",
"656 0 CURVE SMOOTH",
"680 0 OFFCURVE",
"699 17 OFFCURVE",
"708 42 CURVE",
"893 709 LINE SMOOTH",
"895 716 OFFCURVE",
"896 723 OFFCURVE",
"896 729 CURVE SMOOTH",
"896 758 OFFCURVE",
"874 781 OFFCURVE",
"845 781 CURVE SMOOTH",
"824 781 OFFCURVE",
"803 768 OFFCURVE",
"796 747 CURVE",
"656 245 LINE",
"517 747 LINE",
"510 769 OFFCURVE",
"489 781 OFFCURVE",
"468 781 CURVE SMOOTH",
"444 781 OFFCURVE",
"424 766 OFFCURVE",
"418 746 CURVE SMOOTH",
"280 245 LINE",
"141 747 LINE",
"133 768 OFFCURVE",
"113 781 OFFCURVE",
"92 781 CURVE SMOOTH",
"63 781 OFFCURVE",
"40 758 OFFCURVE",
"40 729 CURVE SMOOTH",
"40 724 OFFCURVE",
"41 717 OFFCURVE",
"43 709 CURVE SMOOTH",
"228 41 LINE",
"236 15 OFFCURVE",
"256 0 OFFCURVE",
"280 0 CURVE SMOOTH"
);
}
);
width = 938;
},
{
layerId = "952115DE-4B60-44C8-B7C0-A1F0450151B4";
paths = (
{
closed = 1;
nodes = (
"283 0 OFFCURVE",
"294 10 OFFCURVE",
"300 26 CURVE",
"468 637 LINE",
"638 26 LINE SMOOTH",
"642 11 OFFCURVE",
"653 0 OFFCURVE",
"669 0 CURVE SMOOTH",
"682 0 OFFCURVE",
"695 9 OFFCURVE",
"700 26 CURVE SMOOTH",
"896 736 LINE SMOOTH",
"898 742 OFFCURVE",
"899 747 OFFCURVE",
"899 751 CURVE SMOOTH",
"899 768 OFFCURVE",
"886 781 OFFCURVE",
"869 781 CURVE SMOOTH",
"855 781 OFFCURVE",
"844 773 OFFCURVE",
"840 761 CURVE",
"669 143 LINE",
"497 761 LINE",
"493 773 OFFCURVE",
"481 781 OFFCURVE",
"468 781 CURVE SMOOTH",
"456 781 OFFCURVE",
"444 773 OFFCURVE",
"440 762 CURVE SMOOTH",
"268 143 LINE",
"96 761 LINE",
"92 774 OFFCURVE",
"81 781 OFFCURVE",
"68 781 CURVE SMOOTH",
"51 781 OFFCURVE",
"38 768 OFFCURVE",
"38 751 CURVE SMOOTH",
"38 747 OFFCURVE",
"39 742 OFFCURVE",
"40 736 CURVE SMOOTH",
"237 26 LINE SMOOTH",
"241 12 OFFCURVE",
"253 0 OFFCURVE",
"268 0 CURVE SMOOTH"
);
}
);
width = 938;
},
{
layerId = "E42B920F-7E89-45C7-8F78-304483CE0F77";
width = 600;
}
);
unicode = 0057;
},
{
glyphname = X;
layers = (
{
layerId = UUID0;
paths = (
{
closed = 1;
nodes = (
"103 0 OFFCURVE",
"115 5 OFFCURVE",
"125 15 CURVE",
"353 306 LINE",
"577 19 LINE SMOOTH",
"586 6 OFFCURVE",
"600 0 OFFCURVE",
"617 0 CURVE SMOOTH",
"646 0 OFFCURVE",
"668 22 OFFCURVE",
"668 51 CURVE SMOOTH",
"668 63 OFFCURVE",
"665 75 OFFCURVE",
"658 84 CURVE SMOOTH",
"419 391 LINE",
"659 699 LINE SMOOTH",
"665 708 OFFCURVE",
"668 719 OFFCURVE",
"668 729 CURVE SMOOTH",
"668 758 OFFCURVE",
"646 781 OFFCURVE",
"617 781 CURVE SMOOTH",
"602 781 OFFCURVE",
"589 776 OFFCURVE",
"580 766 CURVE",
"353 475 LINE",
"126 766 LINE",
"117 776 OFFCURVE",
"105 781 OFFCURVE",
"89 781 CURVE SMOOTH",
"59 781 OFFCURVE",
"38 757 OFFCURVE",
"38 727 CURVE SMOOTH",
"38 716 OFFCURVE",
"41 707 OFFCURVE",
"47 699 CURVE SMOOTH",
"287 391 LINE",
"48 84 LINE SMOOTH",
"41 75 OFFCURVE",
"37 63 OFFCURVE",
"37 51 CURVE SMOOTH",
"37 22 OFFCURVE",
"60 0 OFFCURVE",
"89 0 CURVE SMOOTH"
);
}
);
width = 703;
},
{
layerId = "952115DE-4B60-44C8-B7C0-A1F0450151B4";
paths = (
{
closed = 1;
nodes = (
"79 0 OFFCURVE",
"86 3 OFFCURVE",
"92 10 CURVE SMOOTH",
"350 341 LINE",
"607 10 LINE SMOOTH",
"613 3 OFFCURVE",
"622 0 OFFCURVE",
"630 0 CURVE SMOOTH",
"646 0 OFFCURVE",
"660 13 OFFCURVE",
"660 30 CURVE SMOOTH",
"660 38 OFFCURVE",
"658 44 OFFCURVE",
"654 49 CURVE SMOOTH",
"388 391 LINE",
"655 734 LINE SMOOTH",
"659 739 OFFCURVE",
"660 745 OFFCURVE",
"660 751 CURVE SMOOTH",
"660 768 OFFCURVE",
"646 781 OFFCURVE",
"630 781 CURVE SMOOTH",
"621 781 OFFCURVE",
"611 776 OFFCURVE",
"605 768 CURVE SMOOTH",
"350 440 LINE",
"94 768 LINE SMOOTH",
"87 777 OFFCURVE",
"79 781 OFFCURVE",
"69 781 CURVE SMOOTH",
"52 781 OFFCURVE",
"39 768 OFFCURVE",
"39 751 CURVE SMOOTH",
"39 744 OFFCURVE",
"41 739 OFFCURVE",
"44 734 CURVE SMOOTH",
"311 391 LINE",
"46 49 LINE SMOOTH",
"42 43 OFFCURVE",
"39 38 OFFCURVE",
"39 30 CURVE SMOOTH",
"39 13 OFFCURVE",
"52 0 OFFCURVE",
"69 0 CURVE SMOOTH"
);
}
);
width = 703;
},
{
layerId = "E42B920F-7E89-45C7-8F78-304483CE0F77";
width = 600;
}
);
unicode = 0058;
},
{
glyphname = Y;
layers = (
{
layerId = UUID0;
paths = (
{
closed = 1;
nodes = (
"343 0 OFFCURVE",
"366 23 OFFCURVE",
"366 52 CURVE SMOOTH",
"366 375 LINE",
"584 700 LINE SMOOTH",
"589 708 OFFCURVE",
"592 718 OFFCURVE",
"592 729 CURVE SMOOTH",
"592 758 OFFCURVE",
"569 781 OFFCURVE",
"541 781 CURVE SMOOTH",
"522 781 OFFCURVE",
"508 774 OFFCURVE",
"498 760 CURVE",
"314 485 LINE",
"131 760 LINE SMOOTH",
"121 774 OFFCURVE",
"107 781 OFFCURVE",
"89 781 CURVE SMOOTH",
"60 781 OFFCURVE",
"37 758 OFFCURVE",
"37 729 CURVE SMOOTH",
"37 718 OFFCURVE",
"40 708 OFFCURVE",
"45 700 CURVE SMOOTH",
"263 375 LINE",
"263 52 LINE SMOOTH",
"263 23 OFFCURVE",
"286 0 OFFCURVE",
"314 0 CURVE SMOOTH"
);
}
);
width = 625;
},
{
layerId = "952115DE-4B60-44C8-B7C0-A1F0450151B4";
paths = (
{
closed = 1;
nodes = (
"327 0 OFFCURVE",
"340 13 OFFCURVE",
"340 30 CURVE SMOOTH",
"340 382 LINE",
"576 734 LINE",
"579 739 OFFCURVE",
"581 745 OFFCURVE",
"581 751 CURVE SMOOTH",
"581 768 OFFCURVE",
"567 781 OFFCURVE",
"551 781 CURVE SMOOTH",
"541 781 OFFCURVE",
"532 777 OFFCURVE",
"526 769 CURVE SMOOTH",
"310 445 LINE",
"94 769 LINE",
"87 777 OFFCURVE",
"80 781 OFFCURVE",
"70 781 CURVE SMOOTH",
"53 781 OFFCURVE",
"40 768 OFFCURVE",
"40 751 CURVE SMOOTH",
"40 745 OFFCURVE",
"41 740 OFFCURVE",
"44 734 CURVE SMOOTH",
"280 382 LINE",
"280 30 LINE SMOOTH",
"280 13 OFFCURVE",
"293 0 OFFCURVE",
"310 0 CURVE SMOOTH"
);
}
);
width = 625;
},
{
layerId = "E42B920F-7E89-45C7-8F78-304483CE0F77";
width = 600;
}
);
unicode = 0059;
},
{
glyphname = Z;
layers = (
{
layerId = UUID0;
paths = (
{
closed = 1;
nodes = (
"617 0 LINE SMOOTH",
"646 0 OFFCURVE",
"668 22 OFFCURVE",
"668 51 CURVE SMOOTH",
"668 80 OFFCURVE",
"646 103 OFFCURVE",
"617 104 CURVE",
"195 104 LINE",
"659 699 LINE",
"665 708 OFFCURVE",
"668 719 OFFCURVE",
"668 729 CURVE SMOOTH",
"668 759 OFFCURVE",
"646 781 OFFCURVE",
"617 781 CURVE SMOOTH",
"89 781 LINE SMOOTH",
"61 781 OFFCURVE",
"38 758 OFFCURVE",
"38 729 CURVE SMOOTH",
"38 701 OFFCURVE",
"61 678 OFFCURVE",
"89 678 CURVE SMOOTH",
"511 678 LINE",
"48 84 LINE SMOOTH",
"41 75 OFFCURVE",
"38 64 OFFCURVE",
"38 52 CURVE SMOOTH",
"38 22 OFFCURVE",
"60 0 OFFCURVE",
"89 0 CURVE SMOOTH"
);
}
);
width = 703;
},
{
layerId = "952115DE-4B60-44C8-B7C0-A1F0450151B4";
paths = (
{
closed = 1;
nodes = (
"630 0 LINE SMOOTH",
"646 0 OFFCURVE",
"660 13 OFFCURVE",
"660 30 CURVE SMOOTH",
"660 46 OFFCURVE",
"646 60 OFFCURVE",
"630 60 CURVE SMOOTH",
"131 60 LINE",
"655 734 LINE SMOOTH",
"659 739 OFFCURVE",
"660 745 OFFCURVE",
"660 751 CURVE SMOOTH",
"660 768 OFFCURVE",
"646 781 OFFCURVE",
"630 781 CURVE SMOOTH",
"69 781 LINE SMOOTH",
"52 781 OFFCURVE",
"39 768 OFFCURVE",
"39 751 CURVE SMOOTH",
"39 735 OFFCURVE",
"52 721 OFFCURVE",
"69 721 CURVE SMOOTH",
"568 721 LINE",
"46 49 LINE SMOOTH",
"41 43 OFFCURVE",
"39 36 OFFCURVE",
"39 30 CURVE SMOOTH",
"39 13 OFFCURVE",
"52 0 OFFCURVE",
"69 0 CURVE SMOOTH"
);
}
);
width = 703;
},
{
layerId = "E42B920F-7E89-45C7-8F78-304483CE0F77";
width = 600;
}
);
unicode = 005A;
},
{
color = 4;
glyphname = a;
layers = (
{
layerId = "E42B920F-7E89-45C7-8F78-304483CE0F77";
width = 600;
},
{
background = {
paths = (
{
closed = 1;
nodes = (
"451 -6 OFFCURVE",
"537 62 OFFCURVE",
"571 167 CURVE",
"608 188 LINE",
"615 215 OFFCURVE",
"619 243 OFFCURVE",
"619 273 CURVE SMOOTH",
"619 437 OFFCURVE",
"503 553 OFFCURVE",
"340 553 CURVE SMOOTH",
"176 553 OFFCURVE",
"60 437 OFFCURVE",
"60 273 CURVE SMOOTH",
"60 110 OFFCURVE",
"176 -6 OFFCURVE",
"340 -6 CURVE SMOOTH"
);
}
);
};
layerId = UUID0;
paths = (
{
closed = 1;
nodes = (
"456 -4 OFFCURVE",
"554 111 OFFCURVE",
"554 273 CURVE",
"613 273 LINE",
"612 436 OFFCURVE",
"498 551 OFFCURVE",
"338 551 CURVE SMOOTH",
"176 551 OFFCURVE",
"62 436 OFFCURVE",
"62 273 CURVE",
"62 111 OFFCURVE",
"168 -4 OFFCURVE",
"318 -4 CURVE SMOOTH"
);
},
{
closed = 1;
nodes = (
"234 86 OFFCURVE",
"160 163 OFFCURVE",
"160 273 CURVE SMOOTH",
"160 383 OFFCURVE",
"234 461 OFFCURVE",
"338 461 CURVE SMOOTH",
"442 461 OFFCURVE",
"515 383 OFFCURVE",
"515 273 CURVE SMOOTH",
"515 163 OFFCURVE",
"442 86 OFFCURVE",
"338 86 CURVE SMOOTH"
);
},
{
closed = 1;
nodes = (
"592 -1 OFFCURVE",
"613 20 OFFCURVE",
"613 50 CURVE SMOOTH",
"613 273 LINE",
"530 309 LINE",
"511 203 LINE",
"511 50 LINE SMOOTH",
"511 20 OFFCURVE",
"532 -1 OFFCURVE",
"562 -1 CURVE SMOOTH"
);
}
);
width = 675;
},
{
background = {
paths = (
{
closed = 1;
nodes = (
"456 -4 OFFCURVE",
"554 111 OFFCURVE",
"554 273 CURVE",
"613 273 LINE",
"612 436 OFFCURVE",
"498 551 OFFCURVE",
"338 551 CURVE SMOOTH",
"176 551 OFFCURVE",
"62 436 OFFCURVE",
"62 273 CURVE",
"62 111 OFFCURVE",
"168 -4 OFFCURVE",
"318 -4 CURVE SMOOTH"
);
}
);
};
layerId = "952115DE-4B60-44C8-B7C0-A1F0450151B4";
paths = (
{
closed = 1;
nodes = (
"483 -6 OFFCURVE",
"584 93 OFFCURVE",
"584 233 CURVE",
"619 273 LINE",
"619 437 OFFCURVE",
"503 553 OFFCURVE",
"340 553 CURVE SMOOTH",
"176 553 OFFCURVE",
"60 437 OFFCURVE",
"60 273 CURVE SMOOTH",
"60 110 OFFCURVE",
"176 -6 OFFCURVE",
"340 -6 CURVE SMOOTH"
);
},
{
closed = 1;
nodes = (
"211 50 OFFCURVE",
"120 142 OFFCURVE",
"120 273 CURVE SMOOTH",
"120 404 OFFCURVE",
"211 497 OFFCURVE",
"340 497 CURVE SMOOTH",
"468 497 OFFCURVE",
"559 404 OFFCURVE",
"559 273 CURVE SMOOTH",
"559 142 OFFCURVE",
"468 50 OFFCURVE",
"340 50 CURVE SMOOTH"
);
},
{
closed = 1;
nodes = (
"607 0 OFFCURVE",
"619 12 OFFCURVE",
"619 30 CURVE SMOOTH",
"619 273 LINE",
"578 273 LINE",
"559 213 LINE",
"559 30 LINE SMOOTH",
"559 12 OFFCURVE",
"571 0 OFFCURVE",
"589 0 CURVE SMOOTH"
);
}
);
width = 679;
}
);
unicode = 0061;
},
{
glyphname = ae;
layers = (
{
layerId = UUID0;
paths = (
{
closed = 1;
nodes = (
"383 0 OFFCURVE",
"441 21 OFFCURVE",
"490 61 CURVE",
"490 51 LINE SMOOTH",
"490 23 OFFCURVE",
"512 0 OFFCURVE",
"541 0 CURVE SMOOTH",
"569 0 OFFCURVE",
"592 23 OFFCURVE",
"592 51 CURVE SMOOTH",
"592 61 LINE",
"641 21 OFFCURVE",
"698 0 OFFCURVE",
"763 0 CURVE SMOOTH",
"832 0 OFFCURVE",
"892 22 OFFCURVE",
"942 66 CURVE SMOOTH",
"952 76 OFFCURVE",
"957 89 OFFCURVE",
"957 103 CURVE SMOOTH",
"957 132 OFFCURVE",
"935 154 OFFCURVE",
"906 154 CURVE SMOOTH",
"894 154 OFFCURVE",
"882 149 OFFCURVE",
"872 141 CURVE SMOOTH",
"841 115 OFFCURVE",
"805 102 OFFCURVE",
"763 102 CURVE SMOOTH",
"689 102 OFFCURVE",
"622 149 OFFCURVE",
"599 223 CURVE",
"986 223 LINE SMOOTH",
"1015 223 OFFCURVE",
"1037 244 OFFCURVE",
"1037 273 CURVE SMOOTH",
"1037 423 OFFCURVE",
"913 547 OFFCURVE",
"763 547 CURVE SMOOTH",
"671 547 OFFCURVE",
"604 509 OFFCURVE",
"541 433 CURVE",
"480 509 OFFCURVE",
"410 547 OFFCURVE",
"318 547 CURVE SMOOTH",
"168 547 OFFCURVE",
"45 423 OFFCURVE",
"45 273 CURVE SMOOTH",
"45 124 OFFCURVE",
"168 0 OFFCURVE",
"318 0 CURVE SMOOTH"
);
},
{
closed = 1;
nodes = (
"223 102 OFFCURVE",
"147 178 OFFCURVE",
"147 273 CURVE SMOOTH",
"147 369 OFFCURVE",
"223 445 OFFCURVE",
"318 445 CURVE SMOOTH",
"414 445 OFFCURVE",
"490 369 OFFCURVE",
"490 273 CURVE SMOOTH",
"490 178 OFFCURVE",
"414 102 OFFCURVE",
"318 102 CURVE SMOOTH"
);
},
{
closed = 1;
nodes = (
"620 396 OFFCURVE",
"690 445 OFFCURVE",
"763 445 CURVE SMOOTH",
"837 445 OFFCURVE",
"905 396 OFFCURVE",
"928 324 CURVE",
"599 324 LINE"
);
}
);
width = 1094;
},
{
layerId = "952115DE-4B60-44C8-B7C0-A1F0450151B4";
paths = (
{
closed = 1;
nodes = (
"384 0 OFFCURVE",
"455 33 OFFCURVE",
"521 99 CURVE",
"521 30 LINE SMOOTH",
"521 13 OFFCURVE",
"534 0 OFFCURVE",
"551 0 CURVE SMOOTH",
"568 0 OFFCURVE",
"582 13 OFFCURVE",
"582 30 CURVE SMOOTH",
"582 99 LINE",
"647 33 OFFCURVE",
"719 0 OFFCURVE",
"794 0 CURVE SMOOTH",
"862 0 OFFCURVE",
"922 22 OFFCURVE",
"973 66 CURVE SMOOTH",
"978 70 OFFCURVE",
"980 78 OFFCURVE",
"980 87 CURVE SMOOTH",
"980 104 OFFCURVE",
"967 118 OFFCURVE",
"950 118 CURVE SMOOTH",
"943 118 OFFCURVE",
"936 115 OFFCURVE",
"931 111 CURVE SMOOTH",
"893 78 OFFCURVE",
"847 61 OFFCURVE",
"794 61 CURVE SMOOTH",
"695 61 OFFCURVE",
"605 127 OFFCURVE",
"583 243 CURVE",
"1037 243 LINE SMOOTH",
"1054 243 OFFCURVE",
"1068 256 OFFCURVE",
"1068 273 CURVE SMOOTH",
"1068 423 OFFCURVE",
"944 547 OFFCURVE",
"794 547 CURVE SMOOTH",
"692 547 OFFCURVE",
"614 501 OFFCURVE",
"551 401 CURVE",
"487 502 OFFCURVE",
"411 547 OFFCURVE",
"308 547 CURVE SMOOTH",
"158 547 OFFCURVE",
"35 423 OFFCURVE",
"35 273 CURVE SMOOTH",
"35 124 OFFCURVE",
"158 0 OFFCURVE",
"308 0 CURVE SMOOTH"
);
},
{
closed = 1;
nodes = (
"192 61 OFFCURVE",
"95 157 OFFCURVE",
"95 273 CURVE SMOOTH",
"95 390 OFFCURVE",
"192 486 OFFCURVE",
"308 486 CURVE SMOOTH",
"424 486 OFFCURVE",
"521 390 OFFCURVE",
"521 273 CURVE SMOOTH",
"521 157 OFFCURVE",
"424 61 OFFCURVE",
"308 61 CURVE SMOOTH"
);
},
{
closed = 1;
nodes = (
"605 417 OFFCURVE",
"693 486 OFFCURVE",
"794 486 CURVE SMOOTH",
"892 486 OFFCURVE",
"982 421 OFFCURVE",
"1006 304 CURVE",
"583 304 LINE"
);
}
);
width = 1094;
},
{
layerId = "E42B920F-7E89-45C7-8F78-304483CE0F77";
width = 600;
}
);
unicode = 00E6;
},
{
glyphname = c;
layers = (
{
layerId = UUID0;
paths = (
{
closed = 1;
nodes = (
"380 0 OFFCURVE",
"439 22 OFFCURVE",
"490 66 CURVE",
"500 77 OFFCURVE",
"506 90 OFFCURVE",
"506 104 CURVE SMOOTH",
"506 133 OFFCURVE",
"484 155 OFFCURVE",
"455 155 CURVE",
"443 154 OFFCURVE",
"431 151 OFFCURVE",
"423 144 CURVE SMOOTH",
"389 116 OFFCURVE",
"355 102 OFFCURVE",
"312 102 CURVE SMOOTH",
"216 102 OFFCURVE",
"140 178 OFFCURVE",
"140 273 CURVE SMOOTH",
"140 369 OFFCURVE",
"216 445 OFFCURVE",
"312 445 CURVE SMOOTH",
"354 445 OFFCURVE",
"390 430 OFFCURVE",
"423 402 CURVE SMOOTH",
"433 395 OFFCURVE",
"444 391 OFFCURVE",
"457 391 CURVE SMOOTH",
"486 391 OFFCURVE",
"507 413 OFFCURVE",
"507 442 CURVE SMOOTH",
"507 457 OFFCURVE",
"501 470 OFFCURVE",
"490 480 CURVE SMOOTH",
"439 525 OFFCURVE",
"380 547 OFFCURVE",
"312 547 CURVE SMOOTH",
"162 547 OFFCURVE",
"38 423 OFFCURVE",
"38 273 CURVE SMOOTH",
"38 124 OFFCURVE",
"162 0 OFFCURVE",
"312 0 CURVE SMOOTH"
);
}
);
width = 547;
},
{
layerId = "952115DE-4B60-44C8-B7C0-A1F0450151B4";
paths = (
{
closed = 1;
nodes = (
"379 0 OFFCURVE",
"442 23 OFFCURVE",
"491 66 CURVE SMOOTH",
"497 71 OFFCURVE",
"500 80 OFFCURVE",
"500 88 CURVE SMOOTH",
"500 105 OFFCURVE",
"487 119 OFFCURVE",
"470 119 CURVE SMOOTH",
"462 119 OFFCURVE",
"457 117 OFFCURVE",
"452 113 CURVE SMOOTH",
"413 81 OFFCURVE",
"364 61 OFFCURVE",
"313 61 CURVE SMOOTH",
"196 61 OFFCURVE",
"100 156 OFFCURVE",
"100 273 CURVE SMOOTH",
"100 391 OFFCURVE",
"196 486 OFFCURVE",
"313 486 CURVE SMOOTH",
"366 486 OFFCURVE",
"412 469 OFFCURVE",
"452 434 CURVE SMOOTH",
"457 429 OFFCURVE",
"463 427 OFFCURVE",
"471 427 CURVE SMOOTH",
"488 427 OFFCURVE",
"501 440 OFFCURVE",
"501 457 CURVE SMOOTH",
"501 466 OFFCURVE",
"497 476 OFFCURVE",
"491 481 CURVE SMOOTH",
"442 523 OFFCURVE",
"379 547 OFFCURVE",
"313 547 CURVE SMOOTH",
"163 547 OFFCURVE",
"39 423 OFFCURVE",
"39 273 CURVE SMOOTH",
"39 124 OFFCURVE",
"163 0 OFFCURVE",
"313 0 CURVE SMOOTH"
);
}
);
width = 547;
},
{
layerId = "E42B920F-7E89-45C7-8F78-304483CE0F77";
width = 600;
}
);
unicode = 0063;
},
{
glyphname = eth;
layers = (
{
layerId = UUID0;
paths = (
{
closed = 1;
nodes = (
"461 0 OFFCURVE",
"589 123 OFFCURVE",
"589 277 CURVE SMOOTH",
"589 326 OFFCURVE",
"578 372 OFFCURVE",
"555 411 CURVE SMOOTH",
"412 661 LINE",
"454 686 LINE SMOOTH",
"471 695 OFFCURVE",
"479 712 OFFCURVE",
"479 730 CURVE SMOOTH",
"479 761 OFFCURVE",
"455 782 OFFCURVE",
"428 782 CURVE SMOOTH",
"419 782 OFFCURVE",
"412 780 OFFCURVE",
"406 777 CURVE",
"359 750 LINE",
"348 766 LINE",
"340 776 OFFCURVE",
"328 782 OFFCURVE",
"312 782 CURVE SMOOTH",
"283 782 OFFCURVE",
"259 758 OFFCURVE",
"259 730 CURVE SMOOTH",
"259 723 OFFCURVE",
"260 717 OFFCURVE",
"263 711 CURVE",
"271 698 LINE",
"219 668 LINE SMOOTH",
"202 659 OFFCURVE",
"194 642 OFFCURVE",
"194 624 CURVE SMOOTH",
"194 593 OFFCURVE",
"218 573 OFFCURVE",
"246 573 CURVE SMOOTH",
"254 573 OFFCURVE",
"262 574 OFFCURVE",
"268 578 CURVE SMOOTH",
"322 608 LINE",
"354 552 LINE",
"340 554 OFFCURVE",
"326 555 OFFCURVE",
"312 555 CURVE SMOOTH",
"160 555 OFFCURVE",
"34 429 OFFCURVE",
"34 277 CURVE SMOOTH",
"34 125 OFFCURVE",
"159 0 OFFCURVE",
"312 0 CURVE SMOOTH"
);
},
{
closed = 1;
nodes = (
"214 104 OFFCURVE",
"138 182 OFFCURVE",
"138 277 CURVE SMOOTH",
"138 373 OFFCURVE",
"214 451 OFFCURVE",
"312 451 CURVE SMOOTH",
"408 451 OFFCURVE",
"485 372 OFFCURVE",
"485 277 CURVE SMOOTH",
"485 183 OFFCURVE",
"408 104 OFFCURVE",
"312 104 CURVE SMOOTH"
);
}
);
width = 625;
},
{
layerId = "952115DE-4B60-44C8-B7C0-A1F0450151B4";
paths = (
{
closed = 1;
nodes = (
"462 0 OFFCURVE",
"586 124 OFFCURVE",
"586 273 CURVE SMOOTH",
"586 320 OFFCURVE",
"574 366 OFFCURVE",
"553 405 CURVE",
"514 473 LINE SMOOTH",
"500 496 OFFCURVE",
"460 566 OFFCURVE",
"393 683 CURVE",
"470 728 LINE SMOOTH",
"479 733 OFFCURVE",
"485 744 OFFCURVE",
"485 754 CURVE SMOOTH",
"485 774 OFFCURVE",
"470 785 OFFCURVE",
"455 785 CURVE SMOOTH",
"449 785 OFFCURVE",
"444 783 OFFCURVE",
"439 781 CURVE SMOOTH",
"362 736 LINE",
"338 776 LINE SMOOTH",
"333 786 OFFCURVE",
"323 790 OFFCURVE",
"313 790 CURVE SMOOTH",
"295 790 OFFCURVE",
"282 777 OFFCURVE",
"282 760 CURVE SMOOTH",
"282 754 OFFCURVE",
"283 748 OFFCURVE",
"287 742 CURVE SMOOTH",
"309 705 LINE",
"229 658 LINE SMOOTH",
"220 653 OFFCURVE",
"215 642 OFFCURVE",
"215 632 CURVE SMOOTH",
"215 614 OFFCURVE",
"229 602 OFFCURVE",
"245 602 CURVE SMOOTH",
"250 602 OFFCURVE",
"255 603 OFFCURVE",
"260 605 CURVE SMOOTH",
"339 652 LINE",
"409 531 LINE",
"370 542 OFFCURVE",
"339 547 OFFCURVE",
"313 547 CURVE SMOOTH",
"163 547 OFFCURVE",
"39 423 OFFCURVE",
"39 273 CURVE SMOOTH",
"39 124 OFFCURVE",
"163 0 OFFCURVE",
"313 0 CURVE SMOOTH"
);
},
{
closed = 1;
nodes = (
"196 61 OFFCURVE",
"100 157 OFFCURVE",
"100 273 CURVE SMOOTH",
"100 390 OFFCURVE",
"196 486 OFFCURVE",
"313 486 CURVE SMOOTH",
"429 486 OFFCURVE",
"525 391 OFFCURVE",
"525 273 CURVE SMOOTH",
"525 156 OFFCURVE",
"429 61 OFFCURVE",
"313 61 CURVE SMOOTH"
);
}
);
width = 625;
},
{
layerId = "E42B920F-7E89-45C7-8F78-304483CE0F77";
width = 600;
}
);
unicode = 00F0;
},
{
glyphname = dslash;
layers = (
{
layerId = UUID0;
paths = (
{
closed = 1;
nodes = (
"460 0 OFFCURVE",
"587 121 OFFCURVE",
"587 273 CURVE SMOOTH",
"587 604 LINE",
"610 604 LINE SMOOTH",
"639 604 OFFCURVE",
"661 626 OFFCURVE",
"661 655 CURVE SMOOTH",
"661 684 OFFCURVE",
"638 707 OFFCURVE",
"610 707 CURVE SMOOTH",
"587 707 LINE",
"587 730 LINE SMOOTH",
"587 760 OFFCURVE",
"564 781 OFFCURVE",
"536 781 CURVE SMOOTH",
"506 781 OFFCURVE",
"485 760 OFFCURVE",
"485 730 CURVE SMOOTH",
"485 707 LINE",
"351 707 LINE SMOOTH",
"322 707 OFFCURVE",
"299 684 OFFCURVE",
"299 655 CURVE SMOOTH",
"299 626 OFFCURVE",
"321 604 OFFCURVE",
"351 604 CURVE SMOOTH",
"485 604 LINE",
"485 487 LINE",
"436 527 OFFCURVE",
"378 547 OFFCURVE",
"313 547 CURVE SMOOTH",
"164 547 OFFCURVE",
"40 423 OFFCURVE",
"40 273 CURVE SMOOTH",
"40 124 OFFCURVE",
"164 0 OFFCURVE",
"313 0 CURVE SMOOTH"
);
},
{
closed = 1;
nodes = (
"218 102 OFFCURVE",
"142 180 OFFCURVE",
"142 273 CURVE SMOOTH",
"142 367 OFFCURVE",
"218 445 OFFCURVE",
"313 445 CURVE SMOOTH",
"409 445 OFFCURVE",
"485 367 OFFCURVE",
"485 273 CURVE SMOOTH",
"485 180 OFFCURVE",
"409 102 OFFCURVE",
"313 102 CURVE SMOOTH"
);
}
);
width = 703;
},
{
layerId = "952115DE-4B60-44C8-B7C0-A1F0450151B4";
paths = (
{
closed = 1;
nodes = (
"461 0 OFFCURVE",
"585 122 OFFCURVE",
"585 273 CURVE SMOOTH",
"585 648 LINE",
"636 648 LINE SMOOTH",
"653 648 OFFCURVE",
"666 662 OFFCURVE",
"666 679 CURVE SMOOTH",
"666 696 OFFCURVE",
"653 709 OFFCURVE",
"636 709 CURVE SMOOTH",
"585 709 LINE",
"585 761 LINE SMOOTH",
"585 778 OFFCURVE",
"572 791 OFFCURVE",
"555 791 CURVE SMOOTH",
"538 791 OFFCURVE",
"524 778 OFFCURVE",
"524 761 CURVE SMOOTH",
"524 709 LINE",
"352 709 LINE SMOOTH",
"335 709 OFFCURVE",
"322 696 OFFCURVE",
"322 679 CURVE SMOOTH",
"322 662 OFFCURVE",
"335 648 OFFCURVE",
"352 648 CURVE SMOOTH",
"524 648 LINE",
"524 448 LINE",
"505 467 LINE SMOOTH",
"452 520 OFFCURVE",
"387 547 OFFCURVE",
"312 547 CURVE SMOOTH",
"162 547 OFFCURVE",
"38 423 OFFCURVE",
"38 273 CURVE SMOOTH",
"38 124 OFFCURVE",
"162 0 OFFCURVE",
"312 0 CURVE SMOOTH"
);
},
{
closed = 1;
nodes = (
"195 61 OFFCURVE",
"99 156 OFFCURVE",
"99 273 CURVE SMOOTH",
"99 391 OFFCURVE",
"195 486 OFFCURVE",
"312 486 CURVE SMOOTH",
"428 486 OFFCURVE",
"524 390 OFFCURVE",
"524 273 CURVE SMOOTH",
"524 157 OFFCURVE",
"428 61 OFFCURVE",
"312 61 CURVE SMOOTH"
);
}
);
width = 703;
},
{
layerId = "E42B920F-7E89-45C7-8F78-304483CE0F77";
width = 600;
}
);
unicode = 0111;
},
{
glyphname = e;
layers = (
{
background = {
components = (
{
name = o;
transform = "{1, 0, 0, 1, -1, 0}";
}
);
};
layerId = UUID0;
paths = (
{
closed = 1;
nodes = (
"408 -4 OFFCURVE",
"483 21 OFFCURVE",
"528 57 CURVE SMOOTH",
"550 74 OFFCURVE",
"549 101 OFFCURVE",
"526 121 CURVE",
"509 135 OFFCURVE",
"483 135 OFFCURVE",
"463 120 CURVE SMOOTH",
"436 100 OFFCURVE",
"388 82 OFFCURVE",
"347 82 CURVE SMOOTH",
"233 82 OFFCURVE",
"152 163 OFFCURVE",
"152 273 CURVE SMOOTH",
"152 383 OFFCURVE",
"227 465 OFFCURVE",
"332 465 CURVE SMOOTH",
"422 465 OFFCURVE",
"488 390 OFFCURVE",
"491 290 CURVE",
"532 318 LINE",
"132 318 LINE",
"132 238 LINE",
"535 238 LINE SMOOTH",
"562 238 OFFCURVE",
"581 256 OFFCURVE",
"581 282 CURVE SMOOTH",
"581 440 OFFCURVE",
"478 551 OFFCURVE",
"332 551 CURVE SMOOTH",
"174 551 OFFCURVE",
"62 436 OFFCURVE",
"62 273 CURVE SMOOTH",
"62 111 OFFCURVE",
"180 -4 OFFCURVE",
"347 -4 CURVE SMOOTH"
);
}
);
width = 643;
},
{
background = {
components = (
{
name = o;
}
);
};
layerId = "952115DE-4B60-44C8-B7C0-A1F0450151B4";
paths = (
{
closed = 1;
nodes = (
"395 -5 OFFCURVE",
"471 23 OFFCURVE",
"514 62 CURVE SMOOTH",
"527 74 OFFCURVE",
"526 90 OFFCURVE",
"512 102 CURVE SMOOTH",
"501 111 OFFCURVE",
"484 110 OFFCURVE",
"473 100 CURVE SMOOTH",
"442 71 OFFCURVE",
"384 51 OFFCURVE",
"332 51 CURVE SMOOTH",
"208 51 OFFCURVE",
"120 143 OFFCURVE",
"120 273 CURVE SMOOTH",
"120 404 OFFCURVE",
"202 496 OFFCURVE",
"317 496 CURVE SMOOTH",
"436 496 OFFCURVE",
"516 404 OFFCURVE",
"512 274 CURVE",
"556 307 LINE",
"100 307 LINE",
"100 255 LINE",
"540 255 LINE SMOOTH",
"557 255 OFFCURVE",
"569 266 OFFCURVE",
"569 283 CURVE SMOOTH",
"569 440 OFFCURVE",
"465 552 OFFCURVE",
"317 552 CURVE SMOOTH",
"166 552 OFFCURVE",
"60 436 OFFCURVE",
"60 273 CURVE SMOOTH",
"60 110 OFFCURVE",
"173 -5 OFFCURVE",
"332 -5 CURVE SMOOTH"
);
}
);
width = 629;
},
{
background = {
paths = (
{
closed = 0;
nodes = (
"491 108 LINE",
"449 59 OFFCURVE",
"385 30 OFFCURVE",
"310 30 CURVE SMOOTH",
"169 30 OFFCURVE",
"70 130 OFFCURVE",
"70 273 CURVE SMOOTH",
"70 416 OFFCURVE",
"160 517 OFFCURVE",
"295 517 CURVE SMOOTH",
"423 517 OFFCURVE",
"519 420 OFFCURVE",
"519 283 CURVE",
"70 283 LINE"
);
}
);
};
layerId = "E42B920F-7E89-45C7-8F78-304483CE0F77";
paths = (
{
closed = 0;
nodes = (
"491 108 LINE",
"449 59 OFFCURVE",
"385 30 OFFCURVE",
"310 30 CURVE SMOOTH",
"169 30 OFFCURVE",
"70 130 OFFCURVE",
"70 273 CURVE SMOOTH",
"70 416 OFFCURVE",
"160 517 OFFCURVE",
"295 517 CURVE SMOOTH",
"423 517 OFFCURVE",
"519 420 OFFCURVE",
"519 283 CURVE",
"70 283 LINE"
);
}
);
width = 600;
},
{
associatedMasterId = "952115DE-4B60-44C8-B7C0-A1F0450151B4";
background = {
paths = (
{
closed = 0;
nodes = (
"491 108 LINE",
"449 59 OFFCURVE",
"385 30 OFFCURVE",
"310 30 CURVE SMOOTH",
"169 30 OFFCURVE",
"70 130 OFFCURVE",
"70 273 CURVE SMOOTH",
"70 416 OFFCURVE",
"160 517 OFFCURVE",
"295 517 CURVE SMOOTH",
"423 517 OFFCURVE",
"519 420 OFFCURVE",
"519 283 CURVE",
"70 283 LINE"
);
}
);
};
layerId = "D1A5971B-7350-41D3-9A4D-7E3DA535A08C";
name = "Oct 19 16, 17:43";
paths = (
{
closed = 1;
nodes = (
"380 0 OFFCURVE",
"440 21 OFFCURVE",
"491 66 CURVE SMOOTH",
"496 71 OFFCURVE",
"499 79 OFFCURVE",
"499 87 CURVE SMOOTH",
"499 104 OFFCURVE",
"485 118 OFFCURVE",
"468 118 CURVE SMOOTH",
"461 118 OFFCURVE",
"454 115 OFFCURVE",
"449 111 CURVE SMOOTH",
"411 78 OFFCURVE",
"366 61 OFFCURVE",
"313 61 CURVE SMOOTH",
"212 61 OFFCURVE",
"124 128 OFFCURVE",
"101 243 CURVE",
"556 243 LINE SMOOTH",
"573 243 OFFCURVE",
"586 256 OFFCURVE",
"586 273 CURVE SMOOTH",
"586 423 OFFCURVE",
"462 547 OFFCURVE",
"313 547 CURVE SMOOTH",
"163 547 OFFCURVE",
"39 423 OFFCURVE",
"39 273 CURVE SMOOTH",
"39 124 OFFCURVE",
"163 0 OFFCURVE",
"313 0 CURVE SMOOTH"
);
},
{
closed = 1;
nodes = (
"124 418 OFFCURVE",
"212 486 OFFCURVE",
"313 486 CURVE SMOOTH",
"413 486 OFFCURVE",
"502 417 OFFCURVE",
"524 304 CURVE",
"101 304 LINE"
);
}
);
width = 625;
},
{
associatedMasterId = UUID0;
background = {
paths = (
{
closed = 1;
nodes = (
"379 -15 OFFCURVE",
"442 7 OFFCURVE",
"491 46 CURVE SMOOTH",
"514 64 OFFCURVE",
"513 89 OFFCURVE",
"489 110 CURVE",
"468 128 OFFCURVE",
"449 126 OFFCURVE",
"426 109 CURVE SMOOTH",
"394 87 OFFCURVE",
"355 75 OFFCURVE",
"310 75 CURVE SMOOTH",
"193.788 75 OFFCURVE",
"115 154.906 OFFCURVE",
"115 273 CURVE SMOOTH",
"115 393.194 OFFCURVE",
"186.862 472 OFFCURVE",
"295 472 CURVE SMOOTH",
"384.714 472 OFFCURVE",
"452.282 414.336 OFFCURVE",
"469.637 328 CURVE",
"115 328 LINE SMOOTH",
"86 328 OFFCURVE",
"70 312 OFFCURVE",
"70 283 CURVE SMOOTH",
"70 254 OFFCURVE",
"86 238 OFFCURVE",
"115 238 CURVE SMOOTH",
"518 238 LINE SMOOTH",
"546 238 OFFCURVE",
"564 253 OFFCURVE",
"564 282 CURVE SMOOTH",
"565 442 OFFCURVE",
"450 562 OFFCURVE",
"295 562 CURVE SMOOTH",
"136.525 562 OFFCURVE",
"25 442.193 OFFCURVE",
"25 273 CURVE SMOOTH",
"25 105.443 OFFCURVE",
"144.124 -15 OFFCURVE",
"310 -15 CURVE SMOOTH"
);
}
);
};
layerId = "26F2D820-ABCD-4A92-A906-6A81E46BF4B2";
name = "Oct 19 16, 17:44";
paths = (
{
closed = 1;
nodes = (
"381 0 OFFCURVE",
"441 22 OFFCURVE",
"491 66 CURVE",
"501 77 OFFCURVE",
"506 89 OFFCURVE",
"506 103 CURVE SMOOTH",
"506 132 OFFCURVE",
"484 154 OFFCURVE",
"455 154 CURVE",
"442 153 OFFCURVE",
"431 149 OFFCURVE",
"421 141 CURVE SMOOTH",
"391 115 OFFCURVE",
"355 102 OFFCURVE",
"313 102 CURVE SMOOTH",
"237 102 OFFCURVE",
"170 151 OFFCURVE",
"148 223 CURVE",
"535 223 LINE SMOOTH",
"563 223 OFFCURVE",
"586 244 OFFCURVE",
"586 273 CURVE SMOOTH",
"586 426 OFFCURVE",
"459 547 OFFCURVE",
"313 547 CURVE SMOOTH",
"163 547 OFFCURVE",
"39 423 OFFCURVE",
"39 273 CURVE SMOOTH",
"39 124 OFFCURVE",
"163 0 OFFCURVE",
"313 0 CURVE SMOOTH"
);
},
{
closed = 1;
nodes = (
"169 396 OFFCURVE",
"238 445 OFFCURVE",
"313 445 CURVE SMOOTH",
"387 445 OFFCURVE",
"455 396 OFFCURVE",
"477 324 CURVE",
"148 324 LINE"
);
}
);
width = 625;
}
);
leftMetricsKey = o;
rightMetricsKey = o;
unicode = 0065;
},
{
glyphname = f;
layers = (
{
layerId = UUID0;
paths = (
{
closed = 1;
nodes = (
"186 0 OFFCURVE",
"208 23 OFFCURVE",
"208 51 CURVE SMOOTH",
"208 417 LINE",
"306 417 LINE SMOOTH",
"333 417 OFFCURVE",
"356 439 OFFCURVE",
"356 468 CURVE SMOOTH",
"356 496 OFFCURVE",
"333 519 OFFCURVE",
"306 519 CURVE SMOOTH",
"208 519 LINE",
"208 544 LINE SMOOTH",
"208 634 OFFCURVE",
"252 679 OFFCURVE",
"342 679 CURVE SMOOTH",
"370 679 OFFCURVE",
"393 701 OFFCURVE",
"393 730 CURVE SMOOTH",
"393 758 OFFCURVE",
"370 781 OFFCURVE",
"342 781 CURVE SMOOTH",
"185 781 OFFCURVE",
"106 702 OFFCURVE",
"106 544 CURVE SMOOTH",
"106 519 LINE",
"83 519 LINE SMOOTH",
"53 519 OFFCURVE",
"32 498 OFFCURVE",
"32 468 CURVE SMOOTH",
"32 439 OFFCURVE",
"53 417 OFFCURVE",
"83 417 CURVE SMOOTH",
"106 417 LINE",
"106 51 LINE SMOOTH",
"106 23 OFFCURVE",
"128 0 OFFCURVE",
"157 0 CURVE SMOOTH"
);
}
);
width = 391;
},
{
layerId = "952115DE-4B60-44C8-B7C0-A1F0450151B4";
paths = (
{
closed = 1;
nodes = (
"169 0 OFFCURVE",
"183 13 OFFCURVE",
"183 30 CURVE SMOOTH",
"183 456 LINE",
"315 456 LINE SMOOTH",
"332 456 OFFCURVE",
"345 469 OFFCURVE",
"345 486 CURVE SMOOTH",
"345 503 OFFCURVE",
"332 517 OFFCURVE",
"315 517 CURVE SMOOTH",
"183 517 LINE",
"183 548 LINE SMOOTH",
"183 663 OFFCURVE",
"240 720 OFFCURVE",
"355 720 CURVE SMOOTH",
"372 720 OFFCURVE",
"385 734 OFFCURVE",
"385 751 CURVE SMOOTH",
"385 768 OFFCURVE",
"372 781 OFFCURVE",
"355 781 CURVE SMOOTH",
"199 781 OFFCURVE",
"122 704 OFFCURVE",
"122 548 CURVE SMOOTH",
"122 517 LINE",
"71 517 LINE SMOOTH",
"54 517 OFFCURVE",
"41 503 OFFCURVE",
"41 486 CURVE SMOOTH",
"41 469 OFFCURVE",
"54 456 OFFCURVE",
"71 456 CURVE SMOOTH",
"122 456 LINE",
"122 30 LINE SMOOTH",
"122 13 OFFCURVE",
"135 0 OFFCURVE",
"152 0 CURVE SMOOTH"
);
}
);
width = 391;
},
{
layerId = "E42B920F-7E89-45C7-8F78-304483CE0F77";
width = 600;
}
);
unicode = 0066;
},
{
glyphname = g;
layers = (
{
layerId = UUID0;
paths = (
{
closed = 1;
nodes = (
"448 -234 OFFCURVE",
"586 -139 OFFCURVE",
"586 2 CURVE SMOOTH",
"586 273 LINE SMOOTH",
"586 425 OFFCURVE",
"460 547 OFFCURVE",
"313 547 CURVE SMOOTH",
"163 547 OFFCURVE",
"39 423 OFFCURVE",
"39 273 CURVE SMOOTH",
"39 124 OFFCURVE",
"163 0 OFFCURVE",
"313 0 CURVE SMOOTH",
"378 0 OFFCURVE",
"435 20 OFFCURVE",
"484 60 CURVE",
"484 2 LINE SMOOTH",
"484 -73 OFFCURVE",
"399 -132 OFFCURVE",
"316 -132 CURVE SMOOTH",
"249 -132 OFFCURVE",
"198 -104 OFFCURVE",
"153 -41 CURVE SMOOTH",
"130 -9 OFFCURVE",
"122 -4 OFFCURVE",
"103 -4 CURVE SMOOTH",
"73 -4 OFFCURVE",
"51 -25 OFFCURVE",
"51 -55 CURVE SMOOTH",
"51 -65 OFFCURVE",
"54 -75 OFFCURVE",
"59 -82 CURVE",
"112 -179 OFFCURVE",
"212 -234 OFFCURVE",
"316 -234 CURVE SMOOTH"
);
},
{
closed = 1;
nodes = (
"217 102 OFFCURVE",
"141 180 OFFCURVE",
"141 273 CURVE SMOOTH",
"141 367 OFFCURVE",
"217 445 OFFCURVE",
"313 445 CURVE SMOOTH",
"408 445 OFFCURVE",
"484 367 OFFCURVE",
"484 273 CURVE SMOOTH",
"484 180 OFFCURVE",
"408 102 OFFCURVE",
"313 102 CURVE SMOOTH"
);
}
);
width = 625;
},
{
layerId = "952115DE-4B60-44C8-B7C0-A1F0450151B4";
paths = (
{
closed = 1;
nodes = (
"448 -234 OFFCURVE",
"586 -141 OFFCURVE",
"586 -2 CURVE SMOOTH",
"586 274 LINE SMOOTH",
"586 424 OFFCURVE",
"462 547 OFFCURVE",
"313 547 CURVE SMOOTH",
"163 547 OFFCURVE",
"39 424 OFFCURVE",
"39 274 CURVE SMOOTH",
"39 125 OFFCURVE",
"162 1 OFFCURVE",
"313 1 CURVE SMOOTH",
"395 1 OFFCURVE",
"465 34 OFFCURVE",
"525 100 CURVE",
"525 -2 LINE SMOOTH",
"525 -98 OFFCURVE",
"420 -174 OFFCURVE",
"317 -174 CURVE SMOOTH",
"233 -174 OFFCURVE",
"158 -133 OFFCURVE",
"112 -53 CURVE",
"105 -40 OFFCURVE",
"94 -34 OFFCURVE",
"83 -34 CURVE SMOOTH",
"66 -34 OFFCURVE",
"53 -47 OFFCURVE",
"53 -64 CURVE SMOOTH",
"53 -87 OFFCURVE",
"86 -125 OFFCURVE",
"109 -148 CURVE SMOOTH",
"167 -206 OFFCURVE",
"235 -234 OFFCURVE",
"317 -234 CURVE SMOOTH"
);
},
{
closed = 1;
nodes = (
"196 62 OFFCURVE",
"100 158 OFFCURVE",
"100 274 CURVE SMOOTH",
"100 391 OFFCURVE",
"196 486 OFFCURVE",
"313 486 CURVE SMOOTH",
"429 486 OFFCURVE",
"525 391 OFFCURVE",
"525 274 CURVE SMOOTH",
"525 158 OFFCURVE",
"429 62 OFFCURVE",
"313 62 CURVE SMOOTH"
);
}
);
width = 625;
},
{
layerId = "E42B920F-7E89-45C7-8F78-304483CE0F77";
width = 600;
}
);
unicode = 0067;
},
{
glyphname = hbar;
layers = (
{
layerId = UUID0;
paths = (
{
closed = 1;
nodes = (
"174 0 OFFCURVE",
"196 23 OFFCURVE",
"196 51 CURVE SMOOTH",
"196 292 LINE SMOOTH",
"196 375 OFFCURVE",
"266 445 OFFCURVE",
"350 445 CURVE SMOOTH",
"433 445 OFFCURVE",
"502 375 OFFCURVE",
"502 292 CURVE SMOOTH",
"502 51 LINE SMOOTH",
"502 23 OFFCURVE",
"524 0 OFFCURVE",
"553 0 CURVE SMOOTH",
"582 0 OFFCURVE",
"604 23 OFFCURVE",
"604 51 CURVE SMOOTH",
"604 292 LINE SMOOTH",
"604 433 OFFCURVE",
"487 547 OFFCURVE",
"350 547 CURVE SMOOTH",
"292 547 OFFCURVE",
"241 530 OFFCURVE",
"196 497 CURVE",
"196 605 LINE",
"331 605 LINE SMOOTH",
"360 605 OFFCURVE",
"382 626 OFFCURVE",
"382 656 CURVE SMOOTH",
"382 685 OFFCURVE",
"360 707 OFFCURVE",
"331 707 CURVE SMOOTH",
"196 707 LINE",
"196 730 LINE SMOOTH",
"196 759 OFFCURVE",
"175 781 OFFCURVE",
"146 781 CURVE SMOOTH",
"116 781 OFFCURVE",
"95 759 OFFCURVE",
"95 730 CURVE SMOOTH",
"95 707 LINE",
"71 707 LINE SMOOTH",
"42 707 OFFCURVE",
"21 685 OFFCURVE",
"21 656 CURVE SMOOTH",
"21 626 OFFCURVE",
"42 605 OFFCURVE",
"71 605 CURVE SMOOTH",
"95 605 LINE",
"95 51 LINE SMOOTH",
"95 23 OFFCURVE",
"117 0 OFFCURVE",
"146 0 CURVE SMOOTH"
);
}
);
width = 645;
},
{
layerId = "952115DE-4B60-44C8-B7C0-A1F0450151B4";
paths = (
{
closed = 1;
nodes = (
"147 0 OFFCURVE",
"161 13 OFFCURVE",
"161 30 CURVE SMOOTH",
"161 293 LINE SMOOTH",
"161 400 OFFCURVE",
"250 486 OFFCURVE",
"353 486 CURVE SMOOTH",
"456 486 OFFCURVE",
"545 401 OFFCURVE",
"545 293 CURVE SMOOTH",
"545 30 LINE SMOOTH",
"545 13 OFFCURVE",
"559 0 OFFCURVE",
"576 0 CURVE SMOOTH",
"593 0 OFFCURVE",
"606 13 OFFCURVE",
"606 30 CURVE SMOOTH",
"606 293 LINE SMOOTH",
"606 433 OFFCURVE",
"491 547 OFFCURVE",
"353 547 CURVE SMOOTH",
"285 547 OFFCURVE",
"221 518 OFFCURVE",
"161 460 CURVE",
"161 640 LINE",
"333 640 LINE SMOOTH",
"350 640 OFFCURVE",
"363 654 OFFCURVE",
"363 671 CURVE SMOOTH",
"363 688 OFFCURVE",
"350 701 OFFCURVE",
"333 701 CURVE SMOOTH",
"161 701 LINE",
"161 752 LINE SMOOTH",
"161 769 OFFCURVE",
"147 782 OFFCURVE",
"130 782 CURVE SMOOTH",
"113 782 OFFCURVE",
"100 769 OFFCURVE",
"100 752 CURVE SMOOTH",
"100 701 LINE",
"49 701 LINE SMOOTH",
"32 701 OFFCURVE",
"19 688 OFFCURVE",
"19 671 CURVE SMOOTH",
"19 654 OFFCURVE",
"32 640 OFFCURVE",
"49 640 CURVE SMOOTH",
"100 640 LINE",
"100 30 LINE SMOOTH",
"100 13 OFFCURVE",
"113 0 OFFCURVE",
"130 0 CURVE SMOOTH"
);
}
);
width = 645;
},
{
layerId = "E42B920F-7E89-45C7-8F78-304483CE0F77";
width = 600;
}
);
unicode = 0127;
},
{
glyphname = idotless;
layers = (
{
anchors = (
{
name = bottom;
position = "{151, 0}";
},
{
name = ogonek;
position = "{256, 10}";
},
{
name = top;
position = "{151, 547}";
}
);
background = {
paths = (
{
closed = 1;
nodes = (
"181 0 OFFCURVE",
"202 21 OFFCURVE",
"202 51 CURVE SMOOTH",
"202 496 LINE SMOOTH",
"202 526 OFFCURVE",
"181 547 OFFCURVE",
"151 547 CURVE SMOOTH",
"121 547 OFFCURVE",
"100 526 OFFCURVE",
"100 496 CURVE SMOOTH",
"100 51 LINE SMOOTH",
"100 21 OFFCURVE",
"121 0 OFFCURVE",
"151 0 CURVE SMOOTH"
);
}
);
};
layerId = UUID0;
paths = (
{
closed = 1;
nodes = (
"181 0 OFFCURVE",
"202 21 OFFCURVE",
"202 51 CURVE SMOOTH",
"202 496 LINE SMOOTH",
"202 526 OFFCURVE",
"181 547 OFFCURVE",
"151 547 CURVE SMOOTH",
"121 547 OFFCURVE",
"100 526 OFFCURVE",
"100 496 CURVE SMOOTH",
"100 51 LINE SMOOTH",
"100 21 OFFCURVE",
"121 0 OFFCURVE",
"151 0 CURVE SMOOTH"
);
}
);
width = 291;
},
{
anchors = (
{
name = bottom;
position = "{130, 0}";
},
{
name = ogonek;
position = "{226, 10}";
},
{
name = top;
position = "{130, 547}";
}
);
layerId = "952115DE-4B60-44C8-B7C0-A1F0450151B4";
paths = (
{
closed = 1;
nodes = (
"148 0 OFFCURVE",
"160 12 OFFCURVE",
"160 30 CURVE SMOOTH",
"160 517 LINE SMOOTH",
"160 535 OFFCURVE",
"148 547 OFFCURVE",
"130 547 CURVE SMOOTH",
"112 547 OFFCURVE",
"100 535 OFFCURVE",
"100 517 CURVE SMOOTH",
"100 30 LINE SMOOTH",
"100 12 OFFCURVE",
"112 0 OFFCURVE",
"130 0 CURVE SMOOTH"
);
}
);
width = 250;
},
{
layerId = "E42B920F-7E89-45C7-8F78-304483CE0F77";
width = 725;
}
);
leftMetricsKey = "=n+10";
rightMetricsKey = "=n+10";
unicode = 0131;
},
{
glyphname = jdotless;
layers = (
{
layerId = "E42B920F-7E89-45C7-8F78-304483CE0F77";
width = 600;
},
{
anchors = (
{
name = bottom;
position = "{143, -234}";
},
{
name = top;
position = "{143, 547}";
}
);
layerId = "952115DE-4B60-44C8-B7C0-A1F0450151B4";
paths = (
{
closed = 1;
nodes = (
"77 -234 OFFCURVE",
"174 -137 OFFCURVE",
"174 -1 CURVE SMOOTH",
"174 517 LINE SMOOTH",
"174 535 OFFCURVE",
"161 547 OFFCURVE",
"143 547 CURVE SMOOTH",
"125 547 OFFCURVE",
"113 535 OFFCURVE",
"113 517 CURVE SMOOTH",
"113 -1 LINE SMOOTH",
"113 -102 OFFCURVE",
"42 -173 OFFCURVE",
"-59 -173 CURVE SMOOTH",
"-77 -173 OFFCURVE",
"-90 -186 OFFCURVE",
"-90 -204 CURVE SMOOTH",
"-90 -222 OFFCURVE",
"-77 -234 OFFCURVE",
"-59 -234 CURVE SMOOTH"
);
}
);
width = 264;
},
{
anchors = (
{
name = bottom;
position = "{142, -234}";
},
{
name = top;
position = "{136, 547}";
}
);
layerId = UUID0;
paths = (
{
closed = 1;
nodes = (
"89 -234 OFFCURVE",
"187 -136 OFFCURVE",
"187 2 CURVE SMOOTH",
"187 496 LINE SMOOTH",
"187 526 OFFCURVE",
"166 547 OFFCURVE",
"136 547 CURVE SMOOTH",
"106 547 OFFCURVE",
"85 526 OFFCURVE",
"85 496 CURVE SMOOTH",
"85 2 LINE SMOOTH",
"85 -76 OFFCURVE",
"29 -132 OFFCURVE",
"-50 -132 CURVE SMOOTH",
"-79 -132 OFFCURVE",
"-100 -153 OFFCURVE",
"-100 -183 CURVE SMOOTH",
"-100 -213 OFFCURVE",
"-79 -234 OFFCURVE",
"-50 -234 CURVE SMOOTH"
);
}
);
width = 276;
}
);
rightMetricsKey = idotless;
unicode = 0237;
},
{
glyphname = jcircumflex;
layers = (
{
layerId = UUID0;
paths = (
{
closed = 1;
nodes = (
"179 -223 OFFCURVE",
"286 -115 OFFCURVE",
"286 14 CURVE SMOOTH",
"286 496 LINE SMOOTH",
"286 524 OFFCURVE",
"264 547 OFFCURVE",
"235 547 CURVE SMOOTH",
"207 547 OFFCURVE",
"184 524 OFFCURVE",
"184 496 CURVE SMOOTH",
"184 14 LINE SMOOTH",
"184 -61 OFFCURVE",
"124 -121 OFFCURVE",
"50 -121 CURVE SMOOTH",
"21 -121 OFFCURVE",
"-1 -142 OFFCURVE",
"-1 -171 CURVE SMOOTH",
"-1 -201 OFFCURVE",
"21 -223 OFFCURVE",
"50 -223 CURVE SMOOTH"
);
},
{
closed = 1;
nodes = (
"134 605 OFFCURVE",
"145 608 OFFCURVE",
"154 616 CURVE",
"233 668 LINE",
"313 616 LINE SMOOTH",
"323 608 OFFCURVE",
"332 605 OFFCURVE",
"345 605 CURVE SMOOTH",
"374 605 OFFCURVE",
"396 626 OFFCURVE",
"396 656 CURVE SMOOTH",
"396 673 OFFCURVE",
"387 688 OFFCURVE",
"371 700 CURVE",
"260 773 LINE SMOOTH",
"251 779 OFFCURVE",
"243 781 OFFCURVE",
"233 781 CURVE SMOOTH",
"224 781 OFFCURVE",
"215 779 OFFCURVE",
"207 773 CURVE SMOOTH",
"95 700 LINE",
"79 688 OFFCURVE",
"71 673 OFFCURVE",
"71 656 CURVE SMOOTH",
"71 626 OFFCURVE",
"93 605 OFFCURVE",
"122 605 CURVE SMOOTH"
);
}
);
width = 371;
},
{
layerId = "952115DE-4B60-44C8-B7C0-A1F0450151B4";
paths = (
{
closed = 1;
nodes = (
"159 -234 OFFCURVE",
"264 -129 OFFCURVE",
"264 -1 CURVE SMOOTH",
"264 517 LINE SMOOTH",
"264 534 OFFCURVE",
"250 547 OFFCURVE",
"233 547 CURVE SMOOTH",
"216 547 OFFCURVE",
"203 534 OFFCURVE",
"203 517 CURVE SMOOTH",
"203 -1 LINE SMOOTH",
"203 -95 OFFCURVE",
"125 -173 OFFCURVE",
"31 -173 CURVE SMOOTH",
"14 -173 OFFCURVE",
"0 -187 OFFCURVE",
"0 -204 CURVE SMOOTH",
"0 -221 OFFCURVE",
"14 -234 OFFCURVE",
"31 -234 CURVE SMOOTH"
);
},
{
closed = 1;
nodes = (
"122 607 OFFCURVE",
"127 611 OFFCURVE",
"132 614 CURVE SMOOTH",
"234 682 LINE",
"336 614 LINE SMOOTH",
"341 610 OFFCURVE",
"347 607 OFFCURVE",
"355 607 CURVE SMOOTH",
"373 607 OFFCURVE",
"386 621 OFFCURVE",
"386 638 CURVE SMOOTH",
"386 648 OFFCURVE",
"380 659 OFFCURVE",
"370 665 CURVE SMOOTH",
"250 746 LINE",
"250 746 LINE",
"245 748 OFFCURVE",
"239 750 OFFCURVE",
"234 750 CURVE SMOOTH",
"229 750 OFFCURVE",
"224 748 OFFCURVE",
"218 746 CURVE",
"219 746 LINE",
"178 718 OFFCURVE",
"138 692 OFFCURVE",
"97 665 CURVE",
"91 660 LINE SMOOTH",
"85 654 OFFCURVE",
"82 646 OFFCURVE",
"82 638 CURVE SMOOTH",
"82 619 OFFCURVE",
"97 607 OFFCURVE",
"115 607 CURVE SMOOTH"
);
}
);
width = 371;
},
{
layerId = "E42B920F-7E89-45C7-8F78-304483CE0F77";
width = 600;
}
);
unicode = 0135;
},
{
color = 4;
glyphname = k;
layers = (
{
background = {
paths = (
{
closed = 1;
nodes = (
"497 504 LINE SMOOTH",
"510 515 OFFCURVE",
"510 529 OFFCURVE",
"498 542 CURVE SMOOTH",
"486 555 OFFCURVE",
"473 555 OFFCURVE",
"460 544 CURVE SMOOTH",
"94 211 LINE",
"130 171 LINE"
);
},
{
closed = 1;
nodes = (
"517 12 OFFCURVE",
"518 25 OFFCURVE",
"507 39 CURVE SMOOTH",
"266 334 LINE",
"223 299 LINE",
"464 4 LINE SMOOTH",
"475 -10 OFFCURVE",
"489 -12 OFFCURVE",
"503 0 CURVE SMOOTH"
);
},
{
closed = 1;
nodes = (
"138 0 OFFCURVE",
"150 12 OFFCURVE",
"150 30 CURVE SMOOTH",
"150 751 LINE SMOOTH",
"150 769 OFFCURVE",
"138 781 OFFCURVE",
"120 781 CURVE SMOOTH",
"102 781 OFFCURVE",
"90 769 OFFCURVE",
"90 751 CURVE SMOOTH",
"90 30 LINE SMOOTH",
"90 12 OFFCURVE",
"102 0 OFFCURVE",
"120 0 CURVE SMOOTH"
);
}
);
};
layerId = UUID0;
paths = (
{
closed = 1;
nodes = (
"493 474 LINE SMOOTH",
"513 492 OFFCURVE",
"514 519 OFFCURVE",
"496 539 CURVE SMOOTH",
"478 559 OFFCURVE",
"451 560 OFFCURVE",
"431 542 CURVE SMOOTH",
"124 268 LINE",
"186 200 LINE"
);
},
{
closed = 1;
nodes = (
"168 0 OFFCURVE",
"188 20 OFFCURVE",
"188 49 CURVE SMOOTH",
"188 732 LINE SMOOTH",
"188 761 OFFCURVE",
"168 781 OFFCURVE",
"139 781 CURVE SMOOTH",
"110 781 OFFCURVE",
"90 761 OFFCURVE",
"90 732 CURVE SMOOTH",
"90 49 LINE SMOOTH",
"90 20 OFFCURVE",
"110 0 OFFCURVE",
"139 0 CURVE SMOOTH"
);
},
{
closed = 1;
nodes = (
"518 23 OFFCURVE",
"520 51 OFFCURVE",
"503 72 CURVE SMOOTH",
"295 328 LINE",
"225 262 LINE",
"428 11 LINE SMOOTH",
"445 -10 OFFCURVE",
"474 -13 OFFCURVE",
"496 5 CURVE SMOOTH"
);
}
);
width = 569;
},
{
background = {
paths = (
{
closed = 1;
nodes = (
"138 0 OFFCURVE",
"150 12 OFFCURVE",
"150 30 CURVE SMOOTH",
"150 751 LINE SMOOTH",
"150 769 OFFCURVE",
"138 781 OFFCURVE",
"120 781 CURVE SMOOTH",
"102 781 OFFCURVE",
"90 769 OFFCURVE",
"90 751 CURVE SMOOTH",
"90 30 LINE SMOOTH",
"90 12 OFFCURVE",
"102 0 OFFCURVE",
"120 0 CURVE SMOOTH"
);
},
{
closed = 0;
nodes = (
"112 173 LINE",
"524 547 LINE"
);
},
{
closed = 0;
nodes = (
"274 317 LINE",
"533 0 LINE"
);
}
);
};
layerId = "952115DE-4B60-44C8-B7C0-A1F0450151B4";
paths = (
{
closed = 1;
nodes = (
"497 504 LINE SMOOTH",
"510 515 OFFCURVE",
"510 529 OFFCURVE",
"498 542 CURVE SMOOTH",
"486 555 OFFCURVE",
"473 555 OFFCURVE",
"460 544 CURVE SMOOTH",
"94 211 LINE",
"130 171 LINE"
);
},
{
closed = 1;
nodes = (
"138 0 OFFCURVE",
"150 12 OFFCURVE",
"150 30 CURVE SMOOTH",
"150 751 LINE SMOOTH",
"150 769 OFFCURVE",
"138 781 OFFCURVE",
"120 781 CURVE SMOOTH",
"102 781 OFFCURVE",
"90 769 OFFCURVE",
"90 751 CURVE SMOOTH",
"90 30 LINE SMOOTH",
"90 12 OFFCURVE",
"102 0 OFFCURVE",
"120 0 CURVE SMOOTH"
);
},
{
closed = 1;
nodes = (
"513 17 OFFCURVE",
"514 30 OFFCURVE",
"503 44 CURVE SMOOTH",
"266 334 LINE",
"223 299 LINE",
"460 9 LINE SMOOTH",
"471 -5 OFFCURVE",
"485 -7 OFFCURVE",
"499 5 CURVE SMOOTH"
);
}
);
width = 574;
},
{
layerId = "E42B920F-7E89-45C7-8F78-304483CE0F77";
width = 600;
}
);
leftMetricsKey = n;
unicode = 006B;
},
{
glyphname = kgreenlandic;
layers = (
{
layerId = "E42B920F-7E89-45C7-8F78-304483CE0F77";
width = 600;
},
{
layerId = UUID0;
paths = (
{
closed = 1;
nodes = (
"117 0 OFFCURVE",
"140 23 OFFCURVE",
"140 51 CURVE SMOOTH",
"140 228 LINE",
"200 267 LINE",
"425 13 LINE",
"435 4 OFFCURVE",
"446 0 OFFCURVE",
"459 0 CURVE SMOOTH",
"488 0 OFFCURVE",
"511 23 OFFCURVE",
"511 51 CURVE SMOOTH",
"511 64 OFFCURVE",
"506 76 OFFCURVE",
"497 86 CURVE SMOOTH",
"287 323 LINE",
"490 455 LINE SMOOTH",
"504 464 OFFCURVE",
"511 478 OFFCURVE",
"511 496 CURVE SMOOTH",
"511 524 OFFCURVE",
"488 547 OFFCURVE",
"459 547 CURVE SMOOTH",
"449 547 OFFCURVE",
"440 544 OFFCURVE",
"432 539 CURVE SMOOTH",
"140 349 LINE",
"140 496 LINE SMOOTH",
"140 525 OFFCURVE",
"118 546 OFFCURVE",
"89 546 CURVE SMOOTH",
"60 546 OFFCURVE",
"38 525 OFFCURVE",
"38 496 CURVE SMOOTH",
"38 51 LINE SMOOTH",
"38 23 OFFCURVE",
"60 0 OFFCURVE",
"89 0 CURVE SMOOTH"
);
}
);
width = 547;
},
{
layerId = "952115DE-4B60-44C8-B7C0-A1F0450151B4";
paths = (
{
closed = 1;
nodes = (
"87 0 OFFCURVE",
"101 13 OFFCURVE",
"101 30 CURVE SMOOTH",
"101 237 LINE",
"196 299 LINE",
"453 10 LINE SMOOTH",
"459 3 OFFCURVE",
"467 0 OFFCURVE",
"475 0 CURVE SMOOTH",
"492 0 OFFCURVE",
"505 13 OFFCURVE",
"505 30 CURVE SMOOTH",
"505 39 OFFCURVE",
"502 46 OFFCURVE",
"497 52 CURVE SMOOTH",
"249 332 LINE",
"496 494 LINE SMOOTH",
"502 498 OFFCURVE",
"505 506 OFFCURVE",
"505 517 CURVE SMOOTH",
"505 534 OFFCURVE",
"492 547 OFFCURVE",
"475 547 CURVE SMOOTH",
"469 547 OFFCURVE",
"463 545 OFFCURVE",
"459 542 CURVE SMOOTH",
"101 310 LINE",
"101 516 LINE SMOOTH",
"101 533 OFFCURVE",
"87 546 OFFCURVE",
"70 546 CURVE SMOOTH",
"53 546 OFFCURVE",
"40 533 OFFCURVE",
"40 516 CURVE SMOOTH",
"40 30 LINE SMOOTH",
"40 13 OFFCURVE",
"53 0 OFFCURVE",
"70 0 CURVE SMOOTH"
);
}
);
width = 547;
}
);
unicode = 0138;
},
{
color = 4;
glyphname = l;
layers = (
{
background = {
paths = (
{
closed = 0;
nodes = (
"120 781 LINE",
"120 188 LINE SMOOTH",
"120 109 OFFCURVE",
"161 53 OFFCURVE",
"220 53 CURVE SMOOTH",
"270 53 LINE"
);
}
);
};
layerId = UUID0;
paths = (
{
closed = 1;
nodes = (
"222 0 LINE SMOOTH",
"262 0 OFFCURVE",
"290 21 OFFCURVE",
"290 50 CURVE SMOOTH",
"290 79 OFFCURVE",
"271 100 OFFCURVE",
"245 100 CURVE SMOOTH",
"220 100 LINE SMOOTH",
"191 100 OFFCURVE",
"170 135 OFFCURVE",
"170 185 CURVE SMOOTH",
"170 731 LINE SMOOTH",
"170 760 OFFCURVE",
"149 781 OFFCURVE",
"120 781 CURVE SMOOTH",
"91 781 OFFCURVE",
"70 760 OFFCURVE",
"70 731 CURVE SMOOTH",
"70 185 LINE SMOOTH",
"70 77 OFFCURVE",
"132 0 OFFCURVE",
"220 0 CURVE SMOOTH"
);
}
);
width = 300;
},
{
background = {
paths = (
{
closed = 0;
nodes = (
"70 781 LINE",
"70 113 LINE",
"70 63 OFFCURVE",
"107 28 OFFCURVE",
"160 28 CURVE"
);
}
);
};
layerId = "952115DE-4B60-44C8-B7C0-A1F0450151B4";
paths = (
{
closed = 1;
nodes = (
"220 0 LINE SMOOTH",
"238 0 OFFCURVE",
"250 12 OFFCURVE",
"250 30 CURVE SMOOTH",
"250 48 OFFCURVE",
"240 60 OFFCURVE",
"225 60 CURVE SMOOTH",
"200 60 LINE SMOOTH",
"159 60 OFFCURVE",
"130 103 OFFCURVE",
"130 165 CURVE SMOOTH",
"130 751 LINE SMOOTH",
"130 769 OFFCURVE",
"118 781 OFFCURVE",
"100 781 CURVE SMOOTH",
"82 781 OFFCURVE",
"70 769 OFFCURVE",
"70 751 CURVE SMOOTH",
"70 165 LINE SMOOTH",
"70 68 OFFCURVE",
"124 0 OFFCURVE",
"200 0 CURVE SMOOTH"
);
}
);
width = 270;
},
{
layerId = "E42B920F-7E89-45C7-8F78-304483CE0F77";
paths = (
{
closed = 0;
nodes = (
"120 781 LINE",
"120 188 LINE SMOOTH",
"120 109 OFFCURVE",
"161 53 OFFCURVE",
"220 53 CURVE SMOOTH",
"270 53 LINE"
);
}
);
width = 290;
}
);
leftMetricsKey = "=n-20";
unicode = 006C;
},
{
glyphname = lslash;
layers = (
{
layerId = UUID0;
paths = (
{
closed = 1;
nodes = (
"234 0 LINE SMOOTH",
"263 0 OFFCURVE",
"285 23 OFFCURVE",
"285 51 CURVE SMOOTH",
"285 80 OFFCURVE",
"264 102 OFFCURVE",
"234 102 CURVE SMOOTH",
"211 102 LINE",
"211 365 LINE",
"308 460 LINE SMOOTH",
"317 470 OFFCURVE",
"322 482 OFFCURVE",
"322 496 CURVE SMOOTH",
"322 524 OFFCURVE",
"299 547 OFFCURVE",
"271 547 CURVE SMOOTH",
"257 547 OFFCURVE",
"246 542 OFFCURVE",
"235 532 CURVE SMOOTH",
"211 508 LINE",
"211 718 LINE SMOOTH",
"211 747 OFFCURVE",
"188 770 OFFCURVE",
"160 770 CURVE SMOOTH",
"131 770 OFFCURVE",
"109 747 OFFCURVE",
"109 718 CURVE SMOOTH",
"109 407 LINE",
"24 323 LINE SMOOTH",
"15 313 OFFCURVE",
"10 301 OFFCURVE",
"10 287 CURVE SMOOTH",
"10 258 OFFCURVE",
"34 236 OFFCURVE",
"61 236 CURVE SMOOTH",
"75 236 OFFCURVE",
"86 240 OFFCURVE",
"97 251 CURVE SMOOTH",
"109 264 LINE",
"109 51 LINE SMOOTH",
"109 23 OFFCURVE",
"131 0 OFFCURVE",
"160 0 CURVE SMOOTH"
);
}
);
width = 352;
},
{
layerId = "952115DE-4B60-44C8-B7C0-A1F0450151B4";
paths = (
{
closed = 1;
nodes = (
"234 0 LINE SMOOTH",
"251 0 OFFCURVE",
"265 13 OFFCURVE",
"265 30 CURVE SMOOTH",
"265 47 OFFCURVE",
"251 61 OFFCURVE",
"234 61 CURVE SMOOTH",
"184 61 LINE",
"184 383 LINE",
"296 495 LINE SMOOTH",
"302 501 OFFCURVE",
"305 509 OFFCURVE",
"305 517 CURVE SMOOTH",
"305 533 OFFCURVE",
"291 547 OFFCURVE",
"275 547 CURVE SMOOTH",
"266 547 OFFCURVE",
"259 544 OFFCURVE",
"253 538 CURVE",
"184 469 LINE",
"184 760 LINE SMOOTH",
"184 777 OFFCURVE",
"170 790 OFFCURVE",
"153 790 CURVE SMOOTH",
"136 790 OFFCURVE",
"123 777 OFFCURVE",
"123 760 CURVE SMOOTH",
"123 409 LINE",
"22 310 LINE SMOOTH",
"17 305 OFFCURVE",
"14 296 OFFCURVE",
"14 289 CURVE SMOOTH",
"14 269 OFFCURVE",
"30 258 OFFCURVE",
"46 258 CURVE SMOOTH",
"53 258 OFFCURVE",
"59 261 OFFCURVE",
"65 267 CURVE SMOOTH",
"123 324 LINE",
"123 30 LINE SMOOTH",
"123 13 OFFCURVE",
"136 0 OFFCURVE",
"153 0 CURVE SMOOTH"
);
}
);
width = 352;
},
{
layerId = "E42B920F-7E89-45C7-8F78-304483CE0F77";
width = 600;
}
);
unicode = 0142;
},
{
color = 4;
glyphname = m;
layers = (
{
background = {
paths = (
{
closed = 1;
nodes = (
"505 -1 OFFCURVE",
"526 20 OFFCURVE",
"526 50 CURVE SMOOTH",
"526 336 LINE SMOOTH",
"526 474 OFFCURVE",
"446 552 OFFCURVE",
"332 552 CURVE SMOOTH",
"225 552 OFFCURVE",
"149 461 OFFCURVE",
"149 332 CURVE",
"192 332 LINE",
"192 407 OFFCURVE",
"242 460 OFFCURVE",
"312 460 CURVE SMOOTH",
"378 460 OFFCURVE",
"424 420 OFFCURVE",
"424 336 CURVE SMOOTH",
"424 50 LINE SMOOTH",
"424 20 OFFCURVE",
"445 -1 OFFCURVE",
"475 -1 CURVE SMOOTH"
);
},
{
closed = 1;
nodes = (
"171 -1 OFFCURVE",
"192 20 OFFCURVE",
"192 50 CURVE SMOOTH",
"192 495 LINE SMOOTH",
"192 525 OFFCURVE",
"171 546 OFFCURVE",
"141 546 CURVE SMOOTH",
"111 546 OFFCURVE",
"90 525 OFFCURVE",
"90 495 CURVE SMOOTH",
"90 50 LINE SMOOTH",
"90 20 OFFCURVE",
"111 -1 OFFCURVE",
"141 -1 CURVE SMOOTH"
);
},
{
closed = 1;
nodes = (
"838 -1 OFFCURVE",
"859 20 OFFCURVE",
"859 50 CURVE SMOOTH",
"859 336 LINE SMOOTH",
"859 474 OFFCURVE",
"779 552 OFFCURVE",
"665 552 CURVE SMOOTH",
"558 552 OFFCURVE",
"483 461 OFFCURVE",
"483 332 CURVE",
"526 332 LINE",
"526 407 OFFCURVE",
"575 460 OFFCURVE",
"645 460 CURVE SMOOTH",
"711 460 OFFCURVE",
"757 420 OFFCURVE",
"757 336 CURVE SMOOTH",
"757 50 LINE SMOOTH",
"757 20 OFFCURVE",
"778 -1 OFFCURVE",
"808 -1 CURVE SMOOTH"
);
}
);
};
layerId = UUID0;
paths = (
{
closed = 1;
nodes = (
"505 -1 OFFCURVE",
"526 20 OFFCURVE",
"526 50 CURVE SMOOTH",
"526 336 LINE SMOOTH",
"526 474 OFFCURVE",
"446 552 OFFCURVE",
"332 552 CURVE SMOOTH",
"225 552 OFFCURVE",
"149 461 OFFCURVE",
"149 332 CURVE",
"192 332 LINE",
"192 407 OFFCURVE",
"242 460 OFFCURVE",
"312 460 CURVE SMOOTH",
"378 460 OFFCURVE",
"424 420 OFFCURVE",
"424 336 CURVE SMOOTH",
"424 50 LINE SMOOTH",
"424 20 OFFCURVE",
"445 -1 OFFCURVE",
"475 -1 CURVE SMOOTH"
);
},
{
closed = 1;
nodes = (
"171 -1 OFFCURVE",
"192 20 OFFCURVE",
"192 50 CURVE SMOOTH",
"192 495 LINE SMOOTH",
"192 525 OFFCURVE",
"171 546 OFFCURVE",
"141 546 CURVE SMOOTH",
"111 546 OFFCURVE",
"90 525 OFFCURVE",
"90 495 CURVE SMOOTH",
"90 50 LINE SMOOTH",
"90 20 OFFCURVE",
"111 -1 OFFCURVE",
"141 -1 CURVE SMOOTH"
);
},
{
closed = 1;
nodes = (
"838 -1 OFFCURVE",
"859 20 OFFCURVE",
"859 50 CURVE SMOOTH",
"859 336 LINE SMOOTH",
"859 474 OFFCURVE",
"779 552 OFFCURVE",
"665 552 CURVE SMOOTH",
"558 552 OFFCURVE",
"483 461 OFFCURVE",
"483 332 CURVE",
"526 332 LINE",
"526 407 OFFCURVE",
"575 460 OFFCURVE",
"645 460 CURVE SMOOTH",
"711 460 OFFCURVE",
"757 420 OFFCURVE",
"757 336 CURVE SMOOTH",
"757 50 LINE SMOOTH",
"757 20 OFFCURVE",
"778 -1 OFFCURVE",
"808 -1 CURVE SMOOTH"
);
}
);
width = 939;
},
{
background = {
paths = (
{
closed = 1;
nodes = (
"465 0 OFFCURVE",
"453 12 OFFCURVE",
"453 30 CURVE SMOOTH",
"453 319 LINE SMOOTH",
"453 422 OFFCURVE",
"393 494 OFFCURVE",
"307 494 CURVE SMOOTH",
"215 494 OFFCURVE",
"150 429 OFFCURVE",
"150 336 CURVE",
"110 338 LINE",
"116 465 OFFCURVE",
"198 554 OFFCURVE",
"307 554 CURVE SMOOTH",
"428 554 OFFCURVE",
"513 457 OFFCURVE",
"513 319 CURVE SMOOTH",
"513 30 LINE SMOOTH",
"513 12 OFFCURVE",
"501 0 OFFCURVE",
"483 0 CURVE SMOOTH"
);
},
{
closed = 1;
nodes = (
"102 0 OFFCURVE",
"90 12 OFFCURVE",
"90 30 CURVE SMOOTH",
"90 517 LINE SMOOTH",
"90 535 OFFCURVE",
"102 547 OFFCURVE",
"120 547 CURVE SMOOTH",
"138 547 OFFCURVE",
"150 535 OFFCURVE",
"150 517 CURVE SMOOTH",
"150 30 LINE SMOOTH",
"150 12 OFFCURVE",
"138 0 OFFCURVE",
"120 0 CURVE SMOOTH"
);
},
{
closed = 1;
nodes = (
"825 0 OFFCURVE",
"813 12 OFFCURVE",
"813 30 CURVE SMOOTH",
"813 319 LINE SMOOTH",
"813 422 OFFCURVE",
"753 494 OFFCURVE",
"667 494 CURVE SMOOTH",
"575 494 OFFCURVE",
"510 429 OFFCURVE",
"513 326 CURVE",
"473 326 LINE",
"476 463 OFFCURVE",
"558 554 OFFCURVE",
"667 554 CURVE SMOOTH",
"788 554 OFFCURVE",
"873 457 OFFCURVE",
"873 319 CURVE SMOOTH",
"873 30 LINE SMOOTH",
"873 12 OFFCURVE",
"861 0 OFFCURVE",
"843 0 CURVE SMOOTH"
);
}
);
};
layerId = "952115DE-4B60-44C8-B7C0-A1F0450151B4";
paths = (
{
closed = 1;
nodes = (
"501 0 OFFCURVE",
"513 12 OFFCURVE",
"513 30 CURVE SMOOTH",
"513 319 LINE SMOOTH",
"513 457 OFFCURVE",
"428 554 OFFCURVE",
"307 554 CURVE SMOOTH",
"198 554 OFFCURVE",
"116 465 OFFCURVE",
"110 338 CURVE",
"150 336 LINE",
"150 429 OFFCURVE",
"215 494 OFFCURVE",
"307 494 CURVE SMOOTH",
"393 494 OFFCURVE",
"453 422 OFFCURVE",
"453 319 CURVE SMOOTH",
"453 30 LINE SMOOTH",
"453 12 OFFCURVE",
"465 0 OFFCURVE",
"483 0 CURVE SMOOTH"
);
},
{
closed = 1;
nodes = (
"138 0 OFFCURVE",
"150 12 OFFCURVE",
"150 30 CURVE SMOOTH",
"150 517 LINE SMOOTH",
"150 535 OFFCURVE",
"138 547 OFFCURVE",
"120 547 CURVE SMOOTH",
"102 547 OFFCURVE",
"90 535 OFFCURVE",
"90 517 CURVE SMOOTH",
"90 30 LINE SMOOTH",
"90 12 OFFCURVE",
"102 0 OFFCURVE",
"120 0 CURVE SMOOTH"
);
},
{
closed = 1;
nodes = (
"861 0 OFFCURVE",
"873 12 OFFCURVE",
"873 30 CURVE SMOOTH",
"873 319 LINE SMOOTH",
"873 457 OFFCURVE",
"788 554 OFFCURVE",
"667 554 CURVE SMOOTH",
"558 554 OFFCURVE",
"476 463 OFFCURVE",
"473 326 CURVE",
"513 326 LINE",
"510 429 OFFCURVE",
"575 494 OFFCURVE",
"667 494 CURVE SMOOTH",
"753 494 OFFCURVE",
"813 422 OFFCURVE",
"813 319 CURVE SMOOTH",
"813 30 LINE SMOOTH",
"813 12 OFFCURVE",
"825 0 OFFCURVE",
"843 0 CURVE SMOOTH"
);
}
);
width = 953;
},
{
layerId = "E42B920F-7E89-45C7-8F78-304483CE0F77";
width = 600;
}
);
leftMetricsKey = n;
rightMetricsKey = n;
unicode = 006D;
},
{
color = 4;
glyphname = n;
layers = (
{
background = {
paths = (
{
closed = 0;
nodes = (
"101 294 LINE",
"101 421 OFFCURVE",
"192 511 OFFCURVE",
"320 511 CURVE SMOOTH",
"447 511 OFFCURVE",
"536 418 OFFCURVE",
"536 286 CURVE SMOOTH",
"536 0 LINE"
);
},
{
closed = 0;
nodes = (
"101 0 LINE",
"101 547 LINE"
);
}
);
};
layerId = "E42B920F-7E89-45C7-8F78-304483CE0F77";
paths = (
{
closed = 1;
nodes = (
"554 0 OFFCURVE",
"566 12 OFFCURVE",
"566 30 CURVE SMOOTH",
"566 286 LINE SMOOTH",
"566 435 OFFCURVE",
"464 541 OFFCURVE",
"320 541 CURVE SMOOTH",
"193 541 OFFCURVE",
"92 449 OFFCURVE",
"80 323 CURVE",
"131 323 LINE",
"131 417 OFFCURVE",
"223 481 OFFCURVE",
"320 481 CURVE SMOOTH",
"429 481 OFFCURVE",
"506 400 OFFCURVE",
"506 286 CURVE SMOOTH",
"506 30 LINE SMOOTH",
"506 12 OFFCURVE",
"518 0 OFFCURVE",
"536 0 CURVE SMOOTH"
);
},
{
closed = 1;
nodes = (
"119 0 OFFCURVE",
"131 12 OFFCURVE",
"131 30 CURVE SMOOTH",
"131 517 LINE SMOOTH",
"131 535 OFFCURVE",
"119 547 OFFCURVE",
"101 547 CURVE SMOOTH",
"83 547 OFFCURVE",
"71 535 OFFCURVE",
"71 517 CURVE SMOOTH",
"71 30 LINE SMOOTH",
"71 12 OFFCURVE",
"83 0 OFFCURVE",
"101 0 CURVE SMOOTH"
);
}
);
width = 600;
},
{
background = {
paths = (
{
closed = 1;
nodes = (
"572 -1 OFFCURVE",
"593 20 OFFCURVE",
"593 50 CURVE SMOOTH",
"593 296 LINE SMOOTH",
"593 446 OFFCURVE",
"493 552 OFFCURVE",
"352 552 CURVE SMOOTH",
"227 552 OFFCURVE",
"139 461 OFFCURVE",
"139 332 CURVE",
"192 332 LINE",
"192 407 OFFCURVE",
"250 460 OFFCURVE",
"332 460 CURVE SMOOTH",
"425 460 OFFCURVE",
"491 392 OFFCURVE",
"491 296 CURVE SMOOTH",
"491 50 LINE SMOOTH",
"491 20 OFFCURVE",
"512 -1 OFFCURVE",
"542 -1 CURVE SMOOTH"
);
},
{
closed = 1;
nodes = (
"171 -1 OFFCURVE",
"192 20 OFFCURVE",
"192 50 CURVE SMOOTH",
"192 495 LINE SMOOTH",
"192 525 OFFCURVE",
"171 546 OFFCURVE",
"141 546 CURVE SMOOTH",
"111 546 OFFCURVE",
"90 525 OFFCURVE",
"90 495 CURVE SMOOTH",
"90 50 LINE SMOOTH",
"90 20 OFFCURVE",
"111 -1 OFFCURVE",
"141 -1 CURVE SMOOTH"
);
}
);
};
layerId = UUID0;
paths = (
{
closed = 1;
nodes = (
"582 -1 OFFCURVE",
"603 20 OFFCURVE",
"603 50 CURVE SMOOTH",
"603 296 LINE SMOOTH",
"603 446 OFFCURVE",
"503 552 OFFCURVE",
"362 552 CURVE SMOOTH",
"231 552 OFFCURVE",
"139 461 OFFCURVE",
"139 332 CURVE",
"192 332 LINE",
"192 407 OFFCURVE",
"254 460 OFFCURVE",
"342 460 CURVE SMOOTH",
"435 460 OFFCURVE",
"501 392 OFFCURVE",
"501 296 CURVE SMOOTH",
"501 50 LINE SMOOTH",
"501 20 OFFCURVE",
"522 -1 OFFCURVE",
"552 -1 CURVE SMOOTH"
);
},
{
closed = 1;
nodes = (
"171 -1 OFFCURVE",
"192 20 OFFCURVE",
"192 50 CURVE SMOOTH",
"192 496 LINE SMOOTH",
"192 526 OFFCURVE",
"171 547 OFFCURVE",
"141 547 CURVE SMOOTH",
"111 547 OFFCURVE",
"90 526 OFFCURVE",
"90 496 CURVE SMOOTH",
"90 50 LINE SMOOTH",
"90 20 OFFCURVE",
"111 -1 OFFCURVE",
"141 -1 CURVE SMOOTH"
);
}
);
width = 682;
},
{
background = {
paths = (
{
closed = 1;
nodes = (
"157 0 OFFCURVE",
"180 22 OFFCURVE",
"180 51 CURVE SMOOTH",
"180 292 LINE SMOOTH",
"180 376 OFFCURVE",
"248 445 OFFCURVE",
"332 445 CURVE SMOOTH",
"416 445 OFFCURVE",
"485 375 OFFCURVE",
"485 292 CURVE SMOOTH",
"485 51 LINE SMOOTH",
"485 22 OFFCURVE",
"508 0 OFFCURVE",
"537 0 CURVE SMOOTH",
"564 0 OFFCURVE",
"587 22 OFFCURVE",
"587 51 CURVE SMOOTH",
"587 292 LINE SMOOTH",
"587 433 OFFCURVE",
"469 547 OFFCURVE",
"332 547 CURVE SMOOTH",
"274 547 OFFCURVE",
"223 530 OFFCURVE",
"180 497 CURVE",
"180 522 OFFCURVE",
"157 547 OFFCURVE",
"129 547 CURVE SMOOTH",
"101 547 OFFCURVE",
"78 524 OFFCURVE",
"78 496 CURVE SMOOTH",
"78 51 LINE SMOOTH",
"78 22 OFFCURVE",
"100 0 OFFCURVE",
"129 0 CURVE SMOOTH"
);
}
);
};
layerId = "952115DE-4B60-44C8-B7C0-A1F0450151B4";
paths = (
{
closed = 1;
nodes = (
"581 0 OFFCURVE",
"593 12 OFFCURVE",
"593 30 CURVE SMOOTH",
"593 299 LINE SMOOTH",
"593 448 OFFCURVE",
"488 554 OFFCURVE",
"340 554 CURVE SMOOTH",
"213 554 OFFCURVE",
"117 465 OFFCURVE",
"110 338 CURVE",
"150 336 LINE",
"150 429 OFFCURVE",
"229 494 OFFCURVE",
"340 494 CURVE SMOOTH",
"453 494 OFFCURVE",
"533 413 OFFCURVE",
"533 299 CURVE SMOOTH",
"533 30 LINE SMOOTH",
"533 12 OFFCURVE",
"545 0 OFFCURVE",
"563 0 CURVE SMOOTH"
);
},
{
closed = 1;
nodes = (
"138 0 OFFCURVE",
"150 12 OFFCURVE",
"150 30 CURVE SMOOTH",
"150 517 LINE SMOOTH",
"150 535 OFFCURVE",
"138 547 OFFCURVE",
"120 547 CURVE SMOOTH",
"102 547 OFFCURVE",
"90 535 OFFCURVE",
"90 517 CURVE SMOOTH",
"90 30 LINE SMOOTH",
"90 12 OFFCURVE",
"102 0 OFFCURVE",
"120 0 CURVE SMOOTH"
);
}
);
width = 673;
},
{
associatedMasterId = UUID0;
background = {
paths = (
{
closed = 1;
nodes = (
"531 -1 OFFCURVE",
"552 20 OFFCURVE",
"552 50 CURVE SMOOTH",
"552 296 LINE SMOOTH",
"552 446 OFFCURVE",
"452 552 OFFCURVE",
"311 552 CURVE SMOOTH",
"186 552 OFFCURVE",
"98 461 OFFCURVE",
"98 332 CURVE",
"151 332 LINE",
"151 407 OFFCURVE",
"209 460 OFFCURVE",
"291 460 CURVE SMOOTH",
"384 460 OFFCURVE",
"450 392 OFFCURVE",
"450 296 CURVE SMOOTH",
"450 50 LINE SMOOTH",
"450 20 OFFCURVE",
"471 -1 OFFCURVE",
"501 -1 CURVE SMOOTH"
);
},
{
closed = 1;
nodes = (
"130 -1 OFFCURVE",
"151 20 OFFCURVE",
"151 50 CURVE SMOOTH",
"151 495 LINE SMOOTH",
"151 525 OFFCURVE",
"130 546 OFFCURVE",
"100 546 CURVE SMOOTH",
"70 546 OFFCURVE",
"49 525 OFFCURVE",
"49 495 CURVE SMOOTH",
"49 50 LINE SMOOTH",
"49 20 OFFCURVE",
"70 -1 OFFCURVE",
"100 -1 CURVE SMOOTH"
);
}
);
};
layerId = "501D7DEB-9CE7-4B98-A9DD-780E284E8CBD";
name = old;
paths = (
{
closed = 1;
nodes = (
"531 0 OFFCURVE",
"552 21 OFFCURVE",
"552 51 CURVE SMOOTH",
"552 296 LINE SMOOTH",
"552 446 OFFCURVE",
"452 552 OFFCURVE",
"311 552 CURVE SMOOTH",
"186 552 OFFCURVE",
"98 461 OFFCURVE",
"98 332 CURVE",
"151 332 LINE",
"151 407 OFFCURVE",
"209 460 OFFCURVE",
"291 460 CURVE SMOOTH",
"384 460 OFFCURVE",
"450 392 OFFCURVE",
"450 296 CURVE SMOOTH",
"450 51 LINE SMOOTH",
"450 21 OFFCURVE",
"471 0 OFFCURVE",
"501 0 CURVE SMOOTH"
);
},
{
closed = 1;
nodes = (
"130 0 OFFCURVE",
"151 21 OFFCURVE",
"151 51 CURVE SMOOTH",
"151 496 LINE SMOOTH",
"151 526 OFFCURVE",
"130 547 OFFCURVE",
"100 547 CURVE SMOOTH",
"70 547 OFFCURVE",
"49 526 OFFCURVE",
"49 496 CURVE SMOOTH",
"49 51 LINE SMOOTH",
"49 21 OFFCURVE",
"70 0 OFFCURVE",
"100 0 CURVE SMOOTH"
);
}
);
width = 586;
}
);
unicode = 006E;
},
{
glyphname = eng;
layers = (
{
layerId = "E42B920F-7E89-45C7-8F78-304483CE0F77";
width = 600;
},
{
layerId = UUID0;
paths = (
{
closed = 1;
nodes = (
"475 -234 OFFCURVE",
"548 -160 OFFCURVE",
"548 -72 CURVE SMOOTH",
"548 292 LINE SMOOTH",
"548 433 OFFCURVE",
"430 547 OFFCURVE",
"293 547 CURVE SMOOTH",
"235 547 OFFCURVE",
"184 530 OFFCURVE",
"141 497 CURVE",
"141 524 OFFCURVE",
"117 547 OFFCURVE",
"89 547 CURVE SMOOTH",
"61 547 OFFCURVE",
"39 524 OFFCURVE",
"39 496 CURVE SMOOTH",
"39 51 LINE SMOOTH",
"39 23 OFFCURVE",
"61 0 OFFCURVE",
"89 0 CURVE SMOOTH",
"118 0 OFFCURVE",
"141 23 OFFCURVE",
"141 51 CURVE SMOOTH",
"141 292 LINE SMOOTH",
"141 376 OFFCURVE",
"209 445 OFFCURVE",
"293 445 CURVE SMOOTH",
"377 445 OFFCURVE",
"446 375 OFFCURVE",
"446 292 CURVE SMOOTH",
"446 -72 LINE SMOOTH",
"446 -106 OFFCURVE",
"418 -132 OFFCURVE",
"386 -132 CURVE SMOOTH",
"371 -132 OFFCURVE",
"354 -122 OFFCURVE",
"339 -122 CURVE SMOOTH",
"310 -122 OFFCURVE",
"288 -145 OFFCURVE",
"288 -173 CURVE SMOOTH",
"288 -219 OFFCURVE",
"342 -234 OFFCURVE",
"386 -234 CURVE SMOOTH"
);
}
);
width = 586;
},
{
layerId = "952115DE-4B60-44C8-B7C0-A1F0450151B4";
paths = (
{
closed = 1;
nodes = (
"478 -234 OFFCURVE",
"546 -165 OFFCURVE",
"546 -83 CURVE SMOOTH",
"546 293 LINE SMOOTH",
"546 431 OFFCURVE",
"432 547 OFFCURVE",
"292 547 CURVE SMOOTH",
"224 547 OFFCURVE",
"160 518 OFFCURVE",
"100 460 CURVE",
"100 517 LINE SMOOTH",
"100 534 OFFCURVE",
"87 547 OFFCURVE",
"70 547 CURVE SMOOTH",
"53 547 OFFCURVE",
"40 534 OFFCURVE",
"40 517 CURVE SMOOTH",
"40 30 LINE SMOOTH",
"40 13 OFFCURVE",
"53 0 OFFCURVE",
"70 0 CURVE SMOOTH",
"87 0 OFFCURVE",
"100 13 OFFCURVE",
"100 30 CURVE SMOOTH",
"100 293 LINE SMOOTH",
"100 400 OFFCURVE",
"189 486 OFFCURVE",
"292 486 CURVE SMOOTH",
"395 486 OFFCURVE",
"485 401 OFFCURVE",
"485 293 CURVE SMOOTH",
"485 -83 LINE SMOOTH",
"485 -132 OFFCURVE",
"443 -173 OFFCURVE",
"394 -173 CURVE SMOOTH",
"374 -173 OFFCURVE",
"357 -163 OFFCURVE",
"342 -163 CURVE SMOOTH",
"325 -163 OFFCURVE",
"312 -175 OFFCURVE",
"312 -192 CURVE SMOOTH",
"312 -226 OFFCURVE",
"360 -234 OFFCURVE",
"394 -234 CURVE SMOOTH"
);
}
);
width = 586;
}
);
unicode = 014B;
},
{
color = 4;
glyphname = o;
layers = (
{
background = {
paths = (
{
closed = 1;
nodes = (
"610 422 OFFCURVE",
"485 547 OFFCURVE",
"338 547 CURVE SMOOTH",
"189 547 OFFCURVE",
"64 422 OFFCURVE",
"64 273 CURVE SMOOTH",
"64 125 OFFCURVE",
"189 0 OFFCURVE",
"338 0 CURVE SMOOTH",
"486 0 OFFCURVE",
"611 125 OFFCURVE",
"611 273 CURVE"
);
},
{
closed = 1;
nodes = (
"431 445 OFFCURVE",
"509 366 OFFCURVE",
"509 273 CURVE SMOOTH",
"509 180 OFFCURVE",
"431 102 OFFCURVE",
"338 102 CURVE SMOOTH",
"245 102 OFFCURVE",
"166 180 OFFCURVE",
"166 273 CURVE SMOOTH",
"166 366 OFFCURVE",
"245 445 OFFCURVE",
"338 445 CURVE SMOOTH"
);
}
);
};
layerId = UUID0;
paths = (
{
closed = 1;
nodes = (
"499 -4 OFFCURVE",
"613 111 OFFCURVE",
"613 273 CURVE SMOOTH",
"612 436 OFFCURVE",
"498 551 OFFCURVE",
"338 551 CURVE SMOOTH",
"176 551 OFFCURVE",
"62 436 OFFCURVE",
"62 273 CURVE",
"62 111 OFFCURVE",
"176 -4 OFFCURVE",
"338 -4 CURVE SMOOTH"
);
},
{
closed = 1;
nodes = (
"234 86 OFFCURVE",
"160 163 OFFCURVE",
"160 273 CURVE SMOOTH",
"160 383 OFFCURVE",
"234 461 OFFCURVE",
"338 461 CURVE SMOOTH",
"442 461 OFFCURVE",
"515 383 OFFCURVE",
"515 273 CURVE SMOOTH",
"515 163 OFFCURVE",
"442 86 OFFCURVE",
"338 86 CURVE SMOOTH"
);
}
);
width = 675;
},
{
background = {
paths = (
{
closed = 1;
nodes = (
"489 7 OFFCURVE",
"607 125 OFFCURVE",
"607 272 CURVE SMOOTH",
"607 418 OFFCURVE",
"489 536 OFFCURVE",
"343 536 CURVE SMOOTH",
"196 536 OFFCURVE",
"78 418 OFFCURVE",
"78 272 CURVE SMOOTH",
"78 125 OFFCURVE",
"196 7 OFFCURVE",
"343 7 CURVE SMOOTH"
);
}
);
};
layerId = "952115DE-4B60-44C8-B7C0-A1F0450151B4";
paths = (
{
closed = 1;
nodes = (
"503 -6 OFFCURVE",
"619 110 OFFCURVE",
"619 273 CURVE SMOOTH",
"619 437 OFFCURVE",
"503 553 OFFCURVE",
"340 553 CURVE SMOOTH",
"176 553 OFFCURVE",
"60 437 OFFCURVE",
"60 273 CURVE SMOOTH",
"60 110 OFFCURVE",
"176 -6 OFFCURVE",
"340 -6 CURVE SMOOTH"
);
},
{
closed = 1;
nodes = (
"211 50 OFFCURVE",
"120 142 OFFCURVE",
"120 273 CURVE SMOOTH",
"120 404 OFFCURVE",
"211 497 OFFCURVE",
"340 497 CURVE SMOOTH",
"468 497 OFFCURVE",
"559 404 OFFCURVE",
"559 273 CURVE SMOOTH",
"559 142 OFFCURVE",
"468 50 OFFCURVE",
"340 50 CURVE SMOOTH"
);
}
);
width = 679;
},
{
layerId = "E42B920F-7E89-45C7-8F78-304483CE0F77";
width = 600;
}
);
unicode = 006F;
},
{
glyphname = oslash;
layers = (
{
layerId = UUID0;
paths = (
{
closed = 1;
nodes = (
"104 0 OFFCURVE",
"116 4 OFFCURVE",
"125 12 CURVE",
"159 47 LINE",
"203 16 OFFCURVE",
"254 0 OFFCURVE",
"313 0 CURVE SMOOTH",
"459 0 OFFCURVE",
"586 121 OFFCURVE",
"586 273 CURVE SMOOTH",
"586 332 OFFCURVE",
"570 383 OFFCURVE",
"539 427 CURVE",
"571 460 LINE SMOOTH",
"581 470 OFFCURVE",
"586 482 OFFCURVE",
"586 496 CURVE SMOOTH",
"586 524 OFFCURVE",
"563 547 OFFCURVE",
"535 547 CURVE SMOOTH",
"520 547 OFFCURVE",
"508 542 OFFCURVE",
"498 531 CURVE SMOOTH",
"467 500 LINE",
"422 531 OFFCURVE",
"371 547 OFFCURVE",
"313 547 CURVE SMOOTH",
"163 547 OFFCURVE",
"39 423 OFFCURVE",
"39 273 CURVE SMOOTH",
"39 215 OFFCURVE",
"55 164 OFFCURVE",
"86 120 CURVE",
"53 86 LINE SMOOTH",
"43 77 OFFCURVE",
"39 64 OFFCURVE",
"39 51 CURVE SMOOTH",
"39 23 OFFCURVE",
"61 0 OFFCURVE",
"90 0 CURVE SMOOTH"
);
},
{
closed = 1;
nodes = (
"147 217 OFFCURVE",
"141 244 OFFCURVE",
"141 273 CURVE SMOOTH",
"141 367 OFFCURVE",
"217 445 OFFCURVE",
"313 445 CURVE SMOOTH",
"342 445 OFFCURVE",
"369 439 OFFCURVE",
"393 425 CURVE",
"160 193 LINE"
);
},
{
closed = 1;
nodes = (
"283 102 OFFCURVE",
"256 108 OFFCURVE",
"232 121 CURVE",
"465 354 LINE",
"478 330 OFFCURVE",
"484 303 OFFCURVE",
"484 273 CURVE SMOOTH",
"484 180 OFFCURVE",
"408 102 OFFCURVE",
"313 102 CURVE SMOOTH"
);
}
);
width = 625;
},
{
layerId = "952115DE-4B60-44C8-B7C0-A1F0450151B4";
paths = (
{
closed = 1;
nodes = (
"77 0 OFFCURVE",
"85 2 OFFCURVE",
"91 9 CURVE SMOOTH",
"142 59 LINE",
"193 20 OFFCURVE",
"250 0 OFFCURVE",
"313 0 CURVE SMOOTH",
"462 0 OFFCURVE",
"586 124 OFFCURVE",
"586 273 CURVE SMOOTH",
"586 336 OFFCURVE",
"566 393 OFFCURVE",
"527 444 CURVE",
"578 495 LINE SMOOTH",
"583 500 OFFCURVE",
"586 508 OFFCURVE",
"586 517 CURVE SMOOTH",
"586 534 OFFCURVE",
"573 547 OFFCURVE",
"556 547 CURVE SMOOTH",
"546 547 OFFCURVE",
"539 543 OFFCURVE",
"533 537 CURVE SMOOTH",
"483 488 LINE",
"432 527 OFFCURVE",
"375 547 OFFCURVE",
"313 547 CURVE SMOOTH",
"163 547 OFFCURVE",
"39 423 OFFCURVE",
"39 273 CURVE SMOOTH",
"39 210 OFFCURVE",
"59 153 OFFCURVE",
"98 103 CURVE",
"47 52 LINE SMOOTH",
"42 46 OFFCURVE",
"39 38 OFFCURVE",
"39 30 CURVE SMOOTH",
"39 13 OFFCURVE",
"52 0 OFFCURVE",
"69 0 CURVE SMOOTH"
);
},
{
closed = 1;
nodes = (
"113 188 OFFCURVE",
"100 230 OFFCURVE",
"100 273 CURVE SMOOTH",
"100 390 OFFCURVE",
"196 486 OFFCURVE",
"313 486 CURVE SMOOTH",
"356 486 OFFCURVE",
"398 472 OFFCURVE",
"440 444 CURVE",
"141 146 LINE"
);
},
{
closed = 1;
nodes = (
"270 61 OFFCURVE",
"227 74 OFFCURVE",
"185 102 CURVE",
"483 401 LINE",
"511 359 OFFCURVE",
"525 316 OFFCURVE",
"525 273 CURVE SMOOTH",
"525 156 OFFCURVE",
"429 61 OFFCURVE",
"313 61 CURVE SMOOTH"
);
}
);
width = 625;
},
{
layerId = "E42B920F-7E89-45C7-8F78-304483CE0F77";
width = 600;
}
);
unicode = 00F8;
},
{
glyphname = oe;
layers = (
{
layerId = UUID0;
paths = (
{
closed = 1;
nodes = (
"410 0 OFFCURVE",
"480 38 OFFCURVE",
"541 114 CURVE",
"550 102 OFFCURVE",
"560 90 OFFCURVE",
"570 80 CURVE SMOOTH",
"623 27 OFFCURVE",
"688 0 OFFCURVE",
"763 0 CURVE SMOOTH",
"832 0 OFFCURVE",
"892 22 OFFCURVE",
"942 66 CURVE SMOOTH",
"952 75 OFFCURVE",
"957 88 OFFCURVE",
"957 103 CURVE SMOOTH",
"957 132 OFFCURVE",
"935 154 OFFCURVE",
"906 154 CURVE SMOOTH",
"894 154 OFFCURVE",
"882 149 OFFCURVE",
"872 141 CURVE SMOOTH",
"841 115 OFFCURVE",
"805 102 OFFCURVE",
"763 102 CURVE SMOOTH",
"689 102 OFFCURVE",
"622 149 OFFCURVE",
"599 223 CURVE",
"986 223 LINE SMOOTH",
"1015 223 OFFCURVE",
"1037 244 OFFCURVE",
"1037 273 CURVE SMOOTH",
"1037 423 OFFCURVE",
"913 547 OFFCURVE",
"763 547 CURVE SMOOTH",
"671 547 OFFCURVE",
"604 509 OFFCURVE",
"541 433 CURVE",
"480 509 OFFCURVE",
"410 547 OFFCURVE",
"318 547 CURVE SMOOTH",
"168 547 OFFCURVE",
"45 423 OFFCURVE",
"45 273 CURVE SMOOTH",
"45 124 OFFCURVE",
"168 0 OFFCURVE",
"318 0 CURVE SMOOTH"
);
},
{
closed = 1;
nodes = (
"223 102 OFFCURVE",
"147 178 OFFCURVE",
"147 273 CURVE SMOOTH",
"147 369 OFFCURVE",
"223 445 OFFCURVE",
"318 445 CURVE SMOOTH",
"414 445 OFFCURVE",
"490 369 OFFCURVE",
"490 273 CURVE SMOOTH",
"490 178 OFFCURVE",
"414 102 OFFCURVE",
"318 102 CURVE SMOOTH"
);
},
{
closed = 1;
nodes = (
"620 396 OFFCURVE",
"690 445 OFFCURVE",
"763 445 CURVE SMOOTH",
"837 445 OFFCURVE",
"905 396 OFFCURVE",
"928 324 CURVE",
"599 324 LINE"
);
}
);
width = 1094;
},
{
layerId = "952115DE-4B60-44C8-B7C0-A1F0450151B4";
paths = (
{
closed = 1;
nodes = (
"384 0 OFFCURVE",
"448 27 OFFCURVE",
"501 80 CURVE SMOOTH",
"521 100 OFFCURVE",
"539 122 OFFCURVE",
"553 146 CURVE",
"604 49 OFFCURVE",
"694 0 OFFCURVE",
"794 0 CURVE SMOOTH",
"862 0 OFFCURVE",
"921 22 OFFCURVE",
"971 65 CURVE SMOOTH",
"978 71 OFFCURVE",
"980 79 OFFCURVE",
"980 87 CURVE SMOOTH",
"980 104 OFFCURVE",
"967 118 OFFCURVE",
"950 118 CURVE SMOOTH",
"943 118 OFFCURVE",
"936 115 OFFCURVE",
"931 111 CURVE SMOOTH",
"893 78 OFFCURVE",
"847 61 OFFCURVE",
"794 61 CURVE SMOOTH",
"695 61 OFFCURVE",
"605 127 OFFCURVE",
"583 243 CURVE",
"1037 243 LINE SMOOTH",
"1054 243 OFFCURVE",
"1068 256 OFFCURVE",
"1068 273 CURVE SMOOTH",
"1068 423 OFFCURVE",
"944 547 OFFCURVE",
"794 547 CURVE SMOOTH",
"694 547 OFFCURVE",
"608 500 OFFCURVE",
"552 400 CURVE",
"488 502 OFFCURVE",
"411 547 OFFCURVE",
"308 547 CURVE SMOOTH",
"158 547 OFFCURVE",
"35 423 OFFCURVE",
"35 273 CURVE SMOOTH",
"35 124 OFFCURVE",
"158 0 OFFCURVE",
"308 0 CURVE SMOOTH"
);
},
{
closed = 1;
nodes = (
"192 61 OFFCURVE",
"95 157 OFFCURVE",
"95 273 CURVE SMOOTH",
"95 390 OFFCURVE",
"192 486 OFFCURVE",
"308 486 CURVE SMOOTH",
"424 486 OFFCURVE",
"521 390 OFFCURVE",
"521 273 CURVE SMOOTH",
"521 157 OFFCURVE",
"424 61 OFFCURVE",
"308 61 CURVE SMOOTH"
);
},
{
closed = 1;
nodes = (
"605 417 OFFCURVE",
"693 486 OFFCURVE",
"794 486 CURVE SMOOTH",
"892 486 OFFCURVE",
"982 421 OFFCURVE",
"1006 304 CURVE",
"583 304 LINE"
);
}
);
width = 1094;
},
{
layerId = "E42B920F-7E89-45C7-8F78-304483CE0F77";
width = 600;
}
);
unicode = 0153;
},
{
color = 4;
glyphname = p;
layers = (
{
components = (
{
name = d;
transform = "{-1, 0, 0, -1, 703, 547}";
}
);
layerId = UUID0;
width = 703;
},
{
background = {
paths = (
{
closed = 1;
nodes = (
"586 433 OFFCURVE",
"473 547 OFFCURVE",
"313 547 CURVE SMOOTH",
"153 547 OFFCURVE",
"39 433 OFFCURVE",
"39 273 CURVE SMOOTH",
"39 113 OFFCURVE",
"153 0 OFFCURVE",
"313 0 CURVE SMOOTH",
"473 0 OFFCURVE",
"586 113 OFFCURVE",
"586 273 CURVE SMOOTH"
);
},
{
closed = 1;
nodes = (
"437 486 OFFCURVE",
"525 398 OFFCURVE",
"525 273 CURVE SMOOTH",
"525 149 OFFCURVE",
"437 61 OFFCURVE",
"313 61 CURVE SMOOTH",
"188 61 OFFCURVE",
"100 149 OFFCURVE",
"100 273 CURVE SMOOTH",
"100 398 OFFCURVE",
"188 486 OFFCURVE",
"313 486 CURVE SMOOTH"
);
}
);
};
components = (
{
name = d;
transform = "{-1, 0, 0, -1, 709, 547}";
}
);
layerId = "952115DE-4B60-44C8-B7C0-A1F0450151B4";
width = 709;
},
{
layerId = "E42B920F-7E89-45C7-8F78-304483CE0F77";
width = 600;
},
{
associatedMasterId = "952115DE-4B60-44C8-B7C0-A1F0450151B4";
background = {
components = (
{
name = o;
}
);
};
layerId = "EF63A930-FA2C-4C4D-849F-CA4B1BA17F52";
name = "Oct 19 16, 15:41";
paths = (
{
closed = 1;
nodes = (
"86 -234 OFFCURVE",
"100 -221 OFFCURVE",
"100 -204 CURVE SMOOTH",
"100 99 LINE",
"171 29 OFFCURVE",
"224 0 OFFCURVE",
"313 0 CURVE SMOOTH",
"462 0 OFFCURVE",
"586 124 OFFCURVE",
"586 273 CURVE SMOOTH",
"586 423 OFFCURVE",
"462 547 OFFCURVE",
"313 547 CURVE SMOOTH",
"163 547 OFFCURVE",
"39 423 OFFCURVE",
"39 273 CURVE SMOOTH",
"39 -204 LINE SMOOTH",
"39 -221 OFFCURVE",
"52 -234 OFFCURVE",
"69 -234 CURVE SMOOTH"
);
},
{
closed = 1;
nodes = (
"196 61 OFFCURVE",
"100 157 OFFCURVE",
"100 273 CURVE SMOOTH",
"100 390 OFFCURVE",
"196 486 OFFCURVE",
"313 486 CURVE SMOOTH",
"429 486 OFFCURVE",
"525 391 OFFCURVE",
"525 273 CURVE SMOOTH",
"525 156 OFFCURVE",
"429 61 OFFCURVE",
"313 61 CURVE SMOOTH"
);
}
);
width = 625;
}
);
unicode = 0070;
},
{
glyphname = thorn;
layers = (
{
layerId = "E42B920F-7E89-45C7-8F78-304483CE0F77";
width = 600;
},
{
layerId = UUID0;
paths = (
{
closed = 1;
nodes = (
"118 -234 OFFCURVE",
"141 -211 OFFCURVE",
"141 -183 CURVE SMOOTH",
"141 62 LINE",
"190 22 OFFCURVE",
"248 1 OFFCURVE",
"313 1 CURVE SMOOTH",
"459 1 OFFCURVE",
"586 122 OFFCURVE",
"586 274 CURVE SMOOTH",
"586 427 OFFCURVE",
"459 548 OFFCURVE",
"313 548 CURVE SMOOTH",
"248 548 OFFCURVE",
"190 526 OFFCURVE",
"141 487 CURVE",
"141 730 LINE SMOOTH",
"141 760 OFFCURVE",
"119 781 OFFCURVE",
"90 781 CURVE SMOOTH",
"61 781 OFFCURVE",
"39 760 OFFCURVE",
"39 730 CURVE SMOOTH",
"39 -183 LINE SMOOTH",
"39 -212 OFFCURVE",
"61 -234 OFFCURVE",
"90 -234 CURVE SMOOTH"
);
},
{
closed = 1;
nodes = (
"217 103 OFFCURVE",
"141 181 OFFCURVE",
"141 274 CURVE SMOOTH",
"141 368 OFFCURVE",
"217 446 OFFCURVE",
"313 446 CURVE SMOOTH",
"408 446 OFFCURVE",
"484 368 OFFCURVE",
"484 274 CURVE SMOOTH",
"484 181 OFFCURVE",
"408 103 OFFCURVE",
"313 103 CURVE SMOOTH"
);
}
);
width = 625;
},
{
layerId = "952115DE-4B60-44C8-B7C0-A1F0450151B4";
paths = (
{
closed = 1;
nodes = (
"86 -234 OFFCURVE",
"100 -221 OFFCURVE",
"100 -204 CURVE SMOOTH",
"100 100 LINE",
"166 34 OFFCURVE",
"237 1 OFFCURVE",
"313 1 CURVE SMOOTH",
"462 1 OFFCURVE",
"586 125 OFFCURVE",
"586 274 CURVE SMOOTH",
"586 424 OFFCURVE",
"462 548 OFFCURVE",
"313 548 CURVE SMOOTH",
"237 548 OFFCURVE",
"166 515 OFFCURVE",
"100 449 CURVE",
"100 751 LINE SMOOTH",
"100 768 OFFCURVE",
"86 781 OFFCURVE",
"69 781 CURVE SMOOTH",
"52 781 OFFCURVE",
"39 768 OFFCURVE",
"39 751 CURVE SMOOTH",
"39 -204 LINE SMOOTH",
"39 -221 OFFCURVE",
"52 -234 OFFCURVE",
"69 -234 CURVE SMOOTH"
);
},
{
closed = 1;
nodes = (
"195 62 OFFCURVE",
"100 158 OFFCURVE",
"100 274 CURVE SMOOTH",
"100 391 OFFCURVE",
"196 487 OFFCURVE",
"313 487 CURVE SMOOTH",
"429 487 OFFCURVE",
"525 392 OFFCURVE",
"525 274 CURVE SMOOTH",
"525 157 OFFCURVE",
"429 62 OFFCURVE",
"313 62 CURVE SMOOTH"
);
}
);
width = 625;
}
);
unicode = 00FE;
},
{
color = 4;
glyphname = r;
layers = (
{
background = {
components = (
{
name = n;
transform = "{1, 0, 0, 1, -2, 0}";
}
);
};
layerId = UUID0;
paths = (
{
closed = 1;
nodes = (
"190 342 LINE",
"190 423 OFFCURVE",
"289 463 OFFCURVE",
"421 449 CURVE SMOOTH",
"442 446 OFFCURVE",
"457 459 OFFCURVE",
"464 490 CURVE SMOOTH",
"475 541 OFFCURVE",
"442 551 OFFCURVE",
"389 551 CURVE SMOOTH",
"255 551 OFFCURVE",
"139 452 OFFCURVE",
"139 342 CURVE"
);
},
{
closed = 1;
nodes = (
"173 0 OFFCURVE",
"190 18 OFFCURVE",
"190 50 CURVE SMOOTH",
"190 497 LINE SMOOTH",
"190 530 OFFCURVE",
"173 547 OFFCURVE",
"140 547 CURVE SMOOTH",
"108 547 OFFCURVE",
"90 529 OFFCURVE",
"90 497 CURVE SMOOTH",
"90 50 LINE SMOOTH",
"90 17 OFFCURVE",
"108 0 OFFCURVE",
"140 0 CURVE SMOOTH"
);
}
);
width = 486;
},
{
background = {
paths = (
{
closed = 0;
nodes = (
"120 294 LINE",
"120 454 OFFCURVE",
"236 540 OFFCURVE",
"399 501 CURVE"
);
},
{
closed = 0;
nodes = (
"120 0 LINE",
"120 547 LINE"
);
},
{
closed = 1;
nodes = (
"170 342 LINE",
"170 423 OFFCURVE",
"248 463 OFFCURVE",
"351 449 CURVE SMOOTH",
"372 446 OFFCURVE",
"387 459 OFFCURVE",
"394 490 CURVE SMOOTH",
"405 541 OFFCURVE",
"372 551 OFFCURVE",
"319 551 CURVE SMOOTH",
"212 551 OFFCURVE",
"117 452 OFFCURVE",
"117 342 CURVE"
);
},
{
closed = 1;
nodes = (
"153 0 OFFCURVE",
"170 18 OFFCURVE",
"170 50 CURVE SMOOTH",
"170 497 LINE SMOOTH",
"170 530 OFFCURVE",
"153 547 OFFCURVE",
"120 547 CURVE SMOOTH",
"88 547 OFFCURVE",
"70 529 OFFCURVE",
"70 497 CURVE SMOOTH",
"70 50 LINE SMOOTH",
"70 17 OFFCURVE",
"88 0 OFFCURVE",
"120 0 CURVE SMOOTH"
);
}
);
};
layerId = "952115DE-4B60-44C8-B7C0-A1F0450151B4";
paths = (
{
closed = 1;
nodes = (
"150 334 LINE",
"150 427 OFFCURVE",
"221 493 OFFCURVE",
"322 493 CURVE SMOOTH",
"360 493 OFFCURVE",
"389 475 OFFCURVE",
"397 512 CURVE SMOOTH",
"404 543 OFFCURVE",
"372 553 OFFCURVE",
"322 553 CURVE SMOOTH",
"210 553 OFFCURVE",
"122 462 OFFCURVE",
"110 334 CURVE"
);
},
{
closed = 1;
nodes = (
"138 0 OFFCURVE",
"150 12 OFFCURVE",
"150 30 CURVE SMOOTH",
"150 517 LINE SMOOTH",
"150 535 OFFCURVE",
"138 547 OFFCURVE",
"120 547 CURVE SMOOTH",
"102 547 OFFCURVE",
"90 535 OFFCURVE",
"90 517 CURVE SMOOTH",
"90 30 LINE SMOOTH",
"90 12 OFFCURVE",
"102 0 OFFCURVE",
"120 0 CURVE SMOOTH"
);
}
);
width = 438;
},
{
background = {
paths = (
{
closed = 0;
nodes = (
"100 294 LINE",
"100 421 OFFCURVE",
"191 511 OFFCURVE",
"319 511 CURVE"
);
},
{
closed = 0;
nodes = (
"100 0 LINE",
"100 547 LINE"
);
}
);
};
layerId = "E42B920F-7E89-45C7-8F78-304483CE0F77";
paths = (
{
closed = 0;
nodes = (
"100 294 LINE",
"100 421 OFFCURVE",
"191 511 OFFCURVE",
"319 511 CURVE"
);
},
{
closed = 0;
nodes = (
"100 0 LINE",
"100 547 LINE"
);
}
);
width = 369;
}
);
leftMetricsKey = n;
unicode = 0072;
},
{
glyphname = s;
layers = (
{
layerId = UUID0;
paths = (
{
closed = 1;
nodes = (
"367 0 OFFCURVE",
"482 63 OFFCURVE",
"482 162 CURVE SMOOTH",
"482 196 OFFCURVE",
"470 226 OFFCURVE",
"445 250 CURVE",
"446 250 LINE",
"435 262 OFFCURVE",
"413 274 OFFCURVE",
"381 287 CURVE",
"153 362 LINE",
"145 365 OFFCURVE",
"140 371 OFFCURVE",
"140 380 CURVE SMOOTH",
"140 423 OFFCURVE",
"214 445 OFFCURVE",
"260 445 CURVE SMOOTH",
"308 445 OFFCURVE",
"348 428 OFFCURVE",
"381 395 CURVE SMOOTH",
"395 381 OFFCURVE",
"408 367 OFFCURVE",
"429 367 CURVE SMOOTH",
"458 367 OFFCURVE",
"480 389 OFFCURVE",
"480 418 CURVE SMOOTH",
"480 430 OFFCURVE",
"477 441 OFFCURVE",
"470 449 CURVE SMOOTH",
"412 514 OFFCURVE",
"341 547 OFFCURVE",
"260 547 CURVE SMOOTH",
"153 547 OFFCURVE",
"38 484 OFFCURVE",
"38 385 CURVE SMOOTH",
"38 351 OFFCURVE",
"50 321 OFFCURVE",
"75 296 CURVE",
"74 296 LINE",
"86 284 OFFCURVE",
"108 272 OFFCURVE",
"139 260 CURVE",
"367 185 LINE",
"375 182 OFFCURVE",
"380 175 OFFCURVE",
"380 166 CURVE SMOOTH",
"380 125 OFFCURVE",
"304 102 OFFCURVE",
"260 102 CURVE SMOOTH",
"211 102 OFFCURVE",
"172 119 OFFCURVE",
"139 152 CURVE SMOOTH",
"126 164 OFFCURVE",
"112 180 OFFCURVE",
"91 180 CURVE SMOOTH",
"62 180 OFFCURVE",
"40 158 OFFCURVE",
"40 129 CURVE SMOOTH",
"40 118 OFFCURVE",
"43 106 OFFCURVE",
"51 97 CURVE SMOOTH",
"107 32 OFFCURVE",
"179 0 OFFCURVE",
"260 0 CURVE SMOOTH"
);
}
);
width = 518;
},
{
layerId = "952115DE-4B60-44C8-B7C0-A1F0450151B4";
paths = (
{
closed = 1;
nodes = (
"360 0 OFFCURVE",
"476 59 OFFCURVE",
"476 152 CURVE SMOOTH",
"476 199 OFFCURVE",
"457 235 OFFCURVE",
"382 264 CURVE",
"382 264 LINE",
"133 346 LINE",
"113 354 OFFCURVE",
"103 368 OFFCURVE",
"101 388 CURVE",
"101 453 OFFCURVE",
"191 486 OFFCURVE",
"258 486 CURVE SMOOTH",
"316 486 OFFCURVE",
"367 465 OFFCURVE",
"408 424 CURVE SMOOTH",
"423 409 LINE",
"428 403 OFFCURVE",
"434 401 OFFCURVE",
"442 401 CURVE SMOOTH",
"459 401 OFFCURVE",
"473 415 OFFCURVE",
"473 432 CURVE SMOOTH",
"473 438 OFFCURVE",
"471 444 OFFCURVE",
"468 449 CURVE",
"411 511 OFFCURVE",
"338 547 OFFCURVE",
"258 547 CURVE SMOOTH",
"155 547 OFFCURVE",
"40 489 OFFCURVE",
"40 395 CURVE SMOOTH",
"40 348 OFFCURVE",
"58 312 OFFCURVE",
"134 283 CURVE",
"133 283 LINE",
"382 201 LINE",
"402 193 OFFCURVE",
"413 180 OFFCURVE",
"414 159 CURVE",
"414 93 OFFCURVE",
"324 61 OFFCURVE",
"258 61 CURVE SMOOTH",
"199 61 OFFCURVE",
"149 82 OFFCURVE",
"107 123 CURVE SMOOTH",
"92 138 LINE SMOOTH",
"87 144 OFFCURVE",
"81 146 OFFCURVE",
"73 146 CURVE SMOOTH",
"56 146 OFFCURVE",
"42 132 OFFCURVE",
"42 115 CURVE SMOOTH",
"42 108 OFFCURVE",
"44 103 OFFCURVE",
"48 98 CURVE",
"106 33 OFFCURVE",
"176 0 OFFCURVE",
"258 0 CURVE SMOOTH"
);
}
);
width = 518;
},
{
layerId = "E42B920F-7E89-45C7-8F78-304483CE0F77";
width = 600;
}
);
unicode = 0073;
},
{
glyphname = germandbls;
layers = (
{
layerId = "E42B920F-7E89-45C7-8F78-304483CE0F77";
width = 600;
},
{
layerId = UUID0;
paths = (
{
closed = 1;
nodes = (
"118 0 OFFCURVE",
"142 23 OFFCURVE",
"142 51 CURVE SMOOTH",
"142 578 LINE SMOOTH",
"142 634 OFFCURVE",
"185 677 OFFCURVE",
"240 677 CURVE SMOOTH",
"293 677 OFFCURVE",
"338 632 OFFCURVE",
"338 578 CURVE SMOOTH",
"338 555 OFFCURVE",
"332 535 OFFCURVE",
"320 520 CURVE SMOOTH",
"295 490 OFFCURVE",
"282 459 OFFCURVE",
"282 422 CURVE SMOOTH",
"282 371 OFFCURVE",
"305 329 OFFCURVE",
"353 296 CURVE SMOOTH",
"365 288 OFFCURVE",
"376 280 OFFCURVE",
"385 272 CURVE",
"385 272 LINE",
"404 253 OFFCURVE",
"414 230 OFFCURVE",
"414 202 CURVE SMOOTH",
"414 148 OFFCURVE",
"368 104 OFFCURVE",
"315 104 CURVE SMOOTH",
"288 104 OFFCURVE",
"266 113 OFFCURVE",
"246 133 CURVE SMOOTH",
"235 143 OFFCURVE",
"220 148 OFFCURVE",
"208 148 CURVE SMOOTH",
"179 148 OFFCURVE",
"156 125 OFFCURVE",
"156 97 CURVE SMOOTH",
"156 83 OFFCURVE",
"161 70 OFFCURVE",
"172 60 CURVE SMOOTH",
"212 20 OFFCURVE",
"259 0 OFFCURVE",
"315 0 CURVE SMOOTH",
"426 0 OFFCURVE",
"518 91 OFFCURVE",
"518 202 CURVE SMOOTH",
"518 277 OFFCURVE",
"477 346 OFFCURVE",
"406 383 CURVE SMOOTH",
"394 390 OFFCURVE",
"387 403 OFFCURVE",
"387 421 CURVE SMOOTH",
"387 432 OFFCURVE",
"390 441 OFFCURVE",
"396 449 CURVE",
"426 485 OFFCURVE",
"442 528 OFFCURVE",
"442 578 CURVE SMOOTH",
"442 688 OFFCURVE",
"351 780 OFFCURVE",
"240 780 CURVE SMOOTH",
"128 780 OFFCURVE",
"38 688 OFFCURVE",
"38 578 CURVE SMOOTH",
"38 51 LINE SMOOTH",
"38 23 OFFCURVE",
"61 0 OFFCURVE",
"89 0 CURVE SMOOTH"
);
}
);
width = 547;
},
{
layerId = "952115DE-4B60-44C8-B7C0-A1F0450151B4";
paths = (
{
closed = 1;
nodes = (
"87 0 OFFCURVE",
"101 13 OFFCURVE",
"101 30 CURVE SMOOTH",
"101 598 LINE SMOOTH",
"101 669 OFFCURVE",
"161 729 OFFCURVE",
"232 729 CURVE SMOOTH",
"302 729 OFFCURVE",
"364 669 OFFCURVE",
"364 598 CURVE SMOOTH",
"364 568 OFFCURVE",
"355 541 OFFCURVE",
"337 518 CURVE",
"314 493 OFFCURVE",
"303 464 OFFCURVE",
"303 429 CURVE SMOOTH",
"303 378 OFFCURVE",
"327 339 OFFCURVE",
"375 310 CURVE SMOOTH",
"421 281 OFFCURVE",
"445 241 OFFCURVE",
"445 192 CURVE SMOOTH",
"445 121 OFFCURVE",
"385 61 OFFCURVE",
"313 61 CURVE SMOOTH",
"276 61 OFFCURVE",
"247 74 OFFCURVE",
"221 100 CURVE SMOOTH",
"214 106 OFFCURVE",
"206 109 OFFCURVE",
"197 109 CURVE SMOOTH",
"180 109 OFFCURVE",
"167 96 OFFCURVE",
"167 79 CURVE SMOOTH",
"167 71 OFFCURVE",
"170 63 OFFCURVE",
"177 56 CURVE SMOOTH",
"214 19 OFFCURVE",
"260 0 OFFCURVE",
"313 0 CURVE SMOOTH",
"420 0 OFFCURVE",
"505 87 OFFCURVE",
"505 192 CURVE SMOOTH",
"505 264 OFFCURVE",
"470 327 OFFCURVE",
"399 365 CURVE SMOOTH",
"376 377 OFFCURVE",
"365 398 OFFCURVE",
"365 429 CURVE SMOOTH",
"365 446 OFFCURVE",
"370 462 OFFCURVE",
"380 475 CURVE SMOOTH",
"409 510 OFFCURVE",
"424 550 OFFCURVE",
"424 598 CURVE SMOOTH",
"424 704 OFFCURVE",
"338 790 OFFCURVE",
"232 790 CURVE SMOOTH",
"126 790 OFFCURVE",
"40 704 OFFCURVE",
"40 598 CURVE SMOOTH",
"40 30 LINE SMOOTH",
"40 13 OFFCURVE",
"53 0 OFFCURVE",
"70 0 CURVE SMOOTH"
);
}
);
width = 547;
}
);
unicode = 00DF;
},
{
glyphname = longs;
layers = (
{
layerId = "E42B920F-7E89-45C7-8F78-304483CE0F77";
width = 600;
},
{
layerId = UUID0;
paths = (
{
closed = 1;
nodes = (
"105 0 OFFCURVE",
"127 23 OFFCURVE",
"127 51 CURVE SMOOTH",
"127 544 LINE SMOOTH",
"127 634 OFFCURVE",
"172 679 OFFCURVE",
"262 679 CURVE SMOOTH",
"292 679 OFFCURVE",
"313 700 OFFCURVE",
"313 729 CURVE SMOOTH",
"313 758 OFFCURVE",
"292 781 OFFCURVE",
"262 781 CURVE SMOOTH",
"104 781 OFFCURVE",
"26 702 OFFCURVE",
"26 544 CURVE SMOOTH",
"26 51 LINE SMOOTH",
"26 23 OFFCURVE",
"48 0 OFFCURVE",
"77 0 CURVE SMOOTH"
);
}
);
width = 313;
},
{
layerId = "952115DE-4B60-44C8-B7C0-A1F0450151B4";
paths = (
{
closed = 1;
nodes = (
"89 0 OFFCURVE",
"102 13 OFFCURVE",
"102 30 CURVE SMOOTH",
"102 548 LINE SMOOTH",
"102 663 OFFCURVE",
"160 720 OFFCURVE",
"274 720 CURVE SMOOTH",
"292 720 OFFCURVE",
"305 734 OFFCURVE",
"305 751 CURVE SMOOTH",
"305 768 OFFCURVE",
"292 781 OFFCURVE",
"274 781 CURVE SMOOTH",
"119 781 OFFCURVE",
"42 704 OFFCURVE",
"42 548 CURVE SMOOTH",
"42 30 LINE SMOOTH",
"42 13 OFFCURVE",
"55 0 OFFCURVE",
"72 0 CURVE SMOOTH"
);
}
);
width = 313;
}
);
unicode = 017F;
},
{
color = 4;
glyphname = t;
layers = (
{
background = {
paths = (
{
closed = 1;
nodes = (
"307 -1 LINE SMOOTH",
"341 -1 OFFCURVE",
"366 20 OFFCURVE",
"366 49 CURVE SMOOTH",
"366 78 OFFCURVE",
"347 99 OFFCURVE",
"323 99 CURVE SMOOTH",
"289 99 LINE SMOOTH",
"244 99 OFFCURVE",
"213 138 OFFCURVE",
"213 193 CURVE SMOOTH",
"213 651 LINE SMOOTH",
"213 680 OFFCURVE",
"192 701 OFFCURVE",
"163 701 CURVE SMOOTH",
"134 701 OFFCURVE",
"113 680 OFFCURVE",
"113 651 CURVE SMOOTH",
"113 193 LINE SMOOTH",
"113 79 OFFCURVE",
"186 -1 OFFCURVE",
"289 -1 CURVE SMOOTH"
);
}
);
};
layerId = UUID0;
paths = (
{
closed = 1;
nodes = (
"307 0 LINE SMOOTH",
"341 0 OFFCURVE",
"366 21 OFFCURVE",
"366 50 CURVE SMOOTH",
"366 79 OFFCURVE",
"347 100 OFFCURVE",
"323 100 CURVE SMOOTH",
"289 100 LINE SMOOTH",
"244 100 OFFCURVE",
"213 139 OFFCURVE",
"213 194 CURVE SMOOTH",
"213 651 LINE SMOOTH",
"213 680 OFFCURVE",
"192 701 OFFCURVE",
"163 701 CURVE SMOOTH",
"134 701 OFFCURVE",
"113 680 OFFCURVE",
"113 651 CURVE SMOOTH",
"113 194 LINE SMOOTH",
"113 80 OFFCURVE",
"186 0 OFFCURVE",
"289 0 CURVE SMOOTH"
);
},
{
closed = 1;
nodes = (
"298 453 LINE SMOOTH",
"326 453 OFFCURVE",
"345 472 OFFCURVE",
"345 500 CURVE SMOOTH",
"345 528 OFFCURVE",
"326 547 OFFCURVE",
"298 547 CURVE SMOOTH",
"67 547 LINE SMOOTH",
"39 547 OFFCURVE",
"20 528 OFFCURVE",
"20 500 CURVE SMOOTH",
"20 472 OFFCURVE",
"39 453 OFFCURVE",
"67 453 CURVE SMOOTH"
);
}
);
width = 401;
},
{
background = {
paths = (
{
closed = 1;
nodes = (
"329 0 OFFCURVE",
"352 22 OFFCURVE",
"352 51 CURVE SMOOTH",
"352 79 OFFCURVE",
"329 102 OFFCURVE",
"302 102 CURVE SMOOTH",
"237 102 OFFCURVE",
"204 134 OFFCURVE",
"204 199 CURVE",
"204 650 LINE",
"204 678 OFFCURVE",
"181 701 OFFCURVE",
"153 701 CURVE SMOOTH",
"124 701 OFFCURVE",
"102 678 OFFCURVE",
"102 650 CURVE",
"102 199 LINE",
"102 66 OFFCURVE",
"168 0 OFFCURVE",
"302 0 CURVE SMOOTH"
);
},
{
closed = 1;
nodes = (
"288 453 LINE SMOOTH",
"316 453 OFFCURVE",
"335 472 OFFCURVE",
"335 500 CURVE SMOOTH",
"335 528 OFFCURVE",
"316 547 OFFCURVE",
"288 547 CURVE SMOOTH",
"57 547 LINE SMOOTH",
"29 547 OFFCURVE",
"10 528 OFFCURVE",
"10 500 CURVE SMOOTH",
"10 472 OFFCURVE",
"29 453 OFFCURVE",
"57 453 CURVE SMOOTH"
);
}
);
};
layerId = "952115DE-4B60-44C8-B7C0-A1F0450151B4";
paths = (
{
closed = 1;
nodes = (
"317 0 LINE",
"335 0 OFFCURVE",
"348 12 OFFCURVE",
"348 30 CURVE SMOOTH",
"348 48 OFFCURVE",
"335 61 OFFCURVE",
"317 61 CURVE",
"305 61 LINE SMOOTH",
"235 61 OFFCURVE",
"186 115 OFFCURVE",
"186 192 CURVE",
"186 670 LINE SMOOTH",
"186 688 OFFCURVE",
"173 701 OFFCURVE",
"155 701 CURVE SMOOTH",
"137 701 OFFCURVE",
"125 688 OFFCURVE",
"125 670 CURVE",
"125 192 LINE",
"125 80 OFFCURVE",
"203 1 OFFCURVE",
"314 0 CURVE"
);
},
{
closed = 1;
nodes = (
"298 493 LINE SMOOTH",
"314 493 OFFCURVE",
"325 504 OFFCURVE",
"325 520 CURVE SMOOTH",
"325 536 OFFCURVE",
"314 547 OFFCURVE",
"298 547 CURVE SMOOTH",
"47 547 LINE SMOOTH",
"31 547 OFFCURVE",
"20 536 OFFCURVE",
"20 520 CURVE SMOOTH",
"20 504 OFFCURVE",
"31 493 OFFCURVE",
"47 493 CURVE SMOOTH"
);
}
);
width = 403;
},
{
background = {
paths = (
{
closed = 1;
nodes = (
"332 0 OFFCURVE",
"345 13 OFFCURVE",
"345 30 CURVE SMOOTH",
"345 47 OFFCURVE",
"332 61 OFFCURVE",
"314 61 CURVE SMOOTH",
"227 61 OFFCURVE",
"183 104 OFFCURVE",
"183 192 CURVE SMOOTH",
"183 486 LINE",
"274 486 LINE SMOOTH",
"292 486 OFFCURVE",
"305 500 OFFCURVE",
"305 517 CURVE SMOOTH",
"305 534 OFFCURVE",
"292 547 OFFCURVE",
"274 547 CURVE SMOOTH",
"183 547 LINE",
"183 751 LINE SMOOTH",
"183 769 OFFCURVE",
"169 782 OFFCURVE",
"152 782 CURVE SMOOTH",
"135 782 OFFCURVE",
"122 769 OFFCURVE",
"122 751 CURVE SMOOTH",
"122 547 LINE",
"72 547 LINE SMOOTH",
"55 547 OFFCURVE",
"41 534 OFFCURVE",
"41 517 CURVE SMOOTH",
"41 500 OFFCURVE",
"55 486 OFFCURVE",
"72 486 CURVE SMOOTH",
"122 486 LINE",
"122 192 LINE SMOOTH",
"122 64 OFFCURVE",
"186 0 OFFCURVE",
"314 0 CURVE SMOOTH"
);
}
);
};
layerId = "E42B920F-7E89-45C7-8F78-304483CE0F77";
width = 600;
},
{
associatedMasterId = "952115DE-4B60-44C8-B7C0-A1F0450151B4";
layerId = "8F98CB1B-4E85-486D-AD18-E1648F4B32D1";
name = "Oct 19 16, 16:18";
paths = (
{
closed = 1;
nodes = (
"332 0 OFFCURVE",
"345 13 OFFCURVE",
"345 30 CURVE SMOOTH",
"345 47 OFFCURVE",
"332 61 OFFCURVE",
"314 61 CURVE SMOOTH",
"227 61 OFFCURVE",
"183 104 OFFCURVE",
"183 192 CURVE SMOOTH",
"183 486 LINE",
"274 486 LINE SMOOTH",
"292 486 OFFCURVE",
"305 500 OFFCURVE",
"305 517 CURVE SMOOTH",
"305 534 OFFCURVE",
"292 547 OFFCURVE",
"274 547 CURVE SMOOTH",
"183 547 LINE",
"183 751 LINE SMOOTH",
"183 769 OFFCURVE",
"169 782 OFFCURVE",
"152 782 CURVE SMOOTH",
"135 782 OFFCURVE",
"122 769 OFFCURVE",
"122 751 CURVE SMOOTH",
"122 547 LINE",
"72 547 LINE SMOOTH",
"55 547 OFFCURVE",
"41 534 OFFCURVE",
"41 517 CURVE SMOOTH",
"41 500 OFFCURVE",
"55 486 OFFCURVE",
"72 486 CURVE SMOOTH",
"122 486 LINE",
"122 192 LINE SMOOTH",
"122 64 OFFCURVE",
"186 0 OFFCURVE",
"314 0 CURVE SMOOTH"
);
}
);
width = 391;
}
);
unicode = 0074;
},
{
glyphname = tbar;
layers = (
{
layerId = UUID0;
paths = (
{
closed = 1;
nodes = (
"337 0 OFFCURVE",
"360 23 OFFCURVE",
"360 51 CURVE SMOOTH",
"360 79 OFFCURVE",
"337 102 OFFCURVE",
"310 102 CURVE SMOOTH",
"245 102 OFFCURVE",
"212 134 OFFCURVE",
"212 199 CURVE SMOOTH",
"212 260 LINE",
"272 260 LINE SMOOTH",
"302 260 OFFCURVE",
"323 281 OFFCURVE",
"323 311 CURVE SMOOTH",
"323 340 OFFCURVE",
"302 361 OFFCURVE",
"272 361 CURVE SMOOTH",
"212 361 LINE",
"212 445 LINE",
"273 445 LINE SMOOTH",
"302 445 OFFCURVE",
"324 467 OFFCURVE",
"324 496 CURVE SMOOTH",
"324 524 OFFCURVE",
"302 547 OFFCURVE",
"273 547 CURVE SMOOTH",
"212 547 LINE",
"212 718 LINE SMOOTH",
"212 747 OFFCURVE",
"190 770 OFFCURVE",
"161 770 CURVE SMOOTH",
"132 770 OFFCURVE",
"110 747 OFFCURVE",
"110 718 CURVE SMOOTH",
"110 547 LINE",
"87 547 LINE SMOOTH",
"58 547 OFFCURVE",
"36 524 OFFCURVE",
"36 496 CURVE SMOOTH",
"36 467 OFFCURVE",
"58 445 OFFCURVE",
"87 445 CURVE SMOOTH",
"110 445 LINE",
"110 361 LINE",
"86 361 LINE SMOOTH",
"57 361 OFFCURVE",
"36 340 OFFCURVE",
"36 311 CURVE SMOOTH",
"36 281 OFFCURVE",
"57 260 OFFCURVE",
"86 260 CURVE SMOOTH",
"110 260 LINE",
"110 199 LINE SMOOTH",
"110 66 OFFCURVE",
"176 0 OFFCURVE",
"310 0 CURVE SMOOTH"
);
}
);
width = 391;
},
{
layerId = "952115DE-4B60-44C8-B7C0-A1F0450151B4";
paths = (
{
closed = 1;
nodes = (
"332 0 OFFCURVE",
"345 13 OFFCURVE",
"345 30 CURVE SMOOTH",
"345 47 OFFCURVE",
"332 61 OFFCURVE",
"314 61 CURVE SMOOTH",
"227 61 OFFCURVE",
"183 104 OFFCURVE",
"183 192 CURVE SMOOTH",
"183 284 LINE",
"274 284 LINE SMOOTH",
"291 284 OFFCURVE",
"305 297 OFFCURVE",
"305 314 CURVE SMOOTH",
"305 331 OFFCURVE",
"291 344 OFFCURVE",
"274 344 CURVE SMOOTH",
"183 344 LINE",
"183 486 LINE",
"274 486 LINE SMOOTH",
"292 486 OFFCURVE",
"305 500 OFFCURVE",
"305 517 CURVE SMOOTH",
"305 534 OFFCURVE",
"292 547 OFFCURVE",
"274 547 CURVE SMOOTH",
"183 547 LINE",
"183 760 LINE SMOOTH",
"183 777 OFFCURVE",
"169 790 OFFCURVE",
"152 790 CURVE SMOOTH",
"135 790 OFFCURVE",
"122 777 OFFCURVE",
"122 760 CURVE SMOOTH",
"122 547 LINE",
"72 547 LINE SMOOTH",
"55 547 OFFCURVE",
"41 534 OFFCURVE",
"41 517 CURVE SMOOTH",
"41 500 OFFCURVE",
"55 486 OFFCURVE",
"72 486 CURVE SMOOTH",
"122 486 LINE",
"122 344 LINE",
"71 344 LINE SMOOTH",
"54 344 OFFCURVE",
"41 331 OFFCURVE",
"41 314 CURVE SMOOTH",
"41 297 OFFCURVE",
"54 284 OFFCURVE",
"71 284 CURVE SMOOTH",
"122 284 LINE",
"122 192 LINE SMOOTH",
"122 64 OFFCURVE",
"186 0 OFFCURVE",
"314 0 CURVE SMOOTH"
);
}
);
width = 391;
},
{
layerId = "E42B920F-7E89-45C7-8F78-304483CE0F77";
width = 600;
}
);
unicode = 0167;
},
{
glyphname = v;
layers = (
{
layerId = UUID0;
paths = (
{
closed = 1;
nodes = (
"314 0 OFFCURVE",
"329 9 OFFCURVE",
"338 27 CURVE",
"544 476 LINE SMOOTH",
"547 482 OFFCURVE",
"548 489 OFFCURVE",
"548 496 CURVE SMOOTH",
"548 524 OFFCURVE",
"525 547 OFFCURVE",
"497 547 CURVE SMOOTH",
"477 547 OFFCURVE",
"462 538 OFFCURVE",
"453 521 CURVE",
"293 173 LINE",
"134 521 LINE",
"125 538 OFFCURVE",
"107 547 OFFCURVE",
"89 547 CURVE SMOOTH",
"61 547 OFFCURVE",
"39 524 OFFCURVE",
"39 496 CURVE SMOOTH",
"39 489 OFFCURVE",
"40 482 OFFCURVE",
"42 476 CURVE",
"249 27 LINE SMOOTH",
"257 9 OFFCURVE",
"272 0 OFFCURVE",
"293 0 CURVE SMOOTH"
);
}
);
width = 586;
},
{
layerId = "952115DE-4B60-44C8-B7C0-A1F0450151B4";
paths = (
{
closed = 1;
nodes = (
"306 0 OFFCURVE",
"311 3 OFFCURVE",
"319 15 CURVE SMOOTH",
"543 505 LINE SMOOTH",
"545 508 OFFCURVE",
"546 512 OFFCURVE",
"546 517 CURVE SMOOTH",
"546 534 OFFCURVE",
"532 547 OFFCURVE",
"515 547 CURVE SMOOTH",
"504 547 OFFCURVE",
"494 542 OFFCURVE",
"488 531 CURVE",
"292 104 LINE",
"97 531 LINE SMOOTH",
"92 542 OFFCURVE",
"81 547 OFFCURVE",
"70 547 CURVE SMOOTH",
"53 547 OFFCURVE",
"40 534 OFFCURVE",
"40 517 CURVE SMOOTH",
"40 512 OFFCURVE",
"40 508 OFFCURVE",
"42 505 CURVE SMOOTH",
"266 15 LINE",
"270 6 OFFCURVE",
"281 0 OFFCURVE",
"292 0 CURVE SMOOTH"
);
}
);
width = 586;
},
{
layerId = "E42B920F-7E89-45C7-8F78-304483CE0F77";
width = 600;
}
);
unicode = 0076;
},
{
glyphname = w;
layers = (
{
layerId = UUID0;
paths = (
{
closed = 1;
nodes = (
"264 0 OFFCURVE",
"282 14 OFFCURVE",
"288 33 CURVE SMOOTH",
"389 334 LINE",
"489 33 LINE SMOOTH",
"495 15 OFFCURVE",
"513 0 OFFCURVE",
"537 0 CURVE SMOOTH",
"564 0 OFFCURVE",
"578 14 OFFCURVE",
"584 33 CURVE SMOOTH",
"732 477 LINE SMOOTH",
"735 483 OFFCURVE",
"736 490 OFFCURVE",
"736 496 CURVE SMOOTH",
"736 524 OFFCURVE",
"713 547 OFFCURVE",
"685 547 CURVE SMOOTH",
"660 547 OFFCURVE",
"645 536 OFFCURVE",
"639 519 CURVE SMOOTH",
"537 212 LINE",
"438 509 LINE SMOOTH",
"429 534 OFFCURVE",
"413 547 OFFCURVE",
"389 547 CURVE SMOOTH",
"364 547 OFFCURVE",
"348 534 OFFCURVE",
"339 509 CURVE SMOOTH",
"240 212 LINE",
"138 519 LINE",
"132 534 OFFCURVE",
"115 547 OFFCURVE",
"92 547 CURVE SMOOTH",
"63 547 OFFCURVE",
"41 524 OFFCURVE",
"41 496 CURVE SMOOTH",
"41 490 OFFCURVE",
"42 484 OFFCURVE",
"44 477 CURVE SMOOTH",
"192 33 LINE SMOOTH",
"199 14 OFFCURVE",
"217 0 OFFCURVE",
"240 0 CURVE SMOOTH"
);
}
);
width = 781;
},
{
layerId = "952115DE-4B60-44C8-B7C0-A1F0450151B4";
paths = (
{
closed = 1;
nodes = (
"242 0 OFFCURVE",
"254 6 OFFCURVE",
"258 19 CURVE SMOOTH",
"392 420 LINE",
"526 19 LINE SMOOTH",
"530 7 OFFCURVE",
"541 0 OFFCURVE",
"554 0 CURVE SMOOTH",
"568 0 OFFCURVE",
"579 7 OFFCURVE",
"583 19 CURVE SMOOTH",
"744 504 LINE SMOOTH",
"746 508 OFFCURVE",
"747 513 OFFCURVE",
"747 517 CURVE SMOOTH",
"747 534 OFFCURVE",
"733 547 OFFCURVE",
"716 547 CURVE SMOOTH",
"704 547 OFFCURVE",
"693 541 OFFCURVE",
"688 529 CURVE",
"554 126 LINE",
"422 523 LINE SMOOTH",
"417 538 OFFCURVE",
"407 547 OFFCURVE",
"392 547 CURVE SMOOTH",
"377 547 OFFCURVE",
"366 537 OFFCURVE",
"362 523 CURVE SMOOTH",
"230 126 LINE",
"96 529 LINE",
"91 541 OFFCURVE",
"79 547 OFFCURVE",
"68 547 CURVE SMOOTH",
"51 547 OFFCURVE",
"38 534 OFFCURVE",
"38 517 CURVE SMOOTH",
"38 513 OFFCURVE",
"39 509 OFFCURVE",
"40 504 CURVE SMOOTH",
"202 19 LINE SMOOTH",
"206 7 OFFCURVE",
"217 0 OFFCURVE",
"230 0 CURVE SMOOTH"
);
}
);
width = 781;
},
{
layerId = "E42B920F-7E89-45C7-8F78-304483CE0F77";
width = 600;
}
);
unicode = 0077;
},
{
glyphname = x;
layers = (
{
layerId = UUID0;
paths = (
{
closed = 1;
nodes = (
"103 0 OFFCURVE",
"115 5 OFFCURVE",
"125 16 CURVE",
"274 194 LINE",
"423 16 LINE",
"433 5 OFFCURVE",
"445 0 OFFCURVE",
"459 0 CURVE SMOOTH",
"488 0 OFFCURVE",
"511 23 OFFCURVE",
"511 51 CURVE SMOOTH",
"511 63 OFFCURVE",
"506 74 OFFCURVE",
"500 83 CURVE",
"340 274 LINE",
"499 462 LINE SMOOTH",
"507 472 OFFCURVE",
"511 484 OFFCURVE",
"511 496 CURVE SMOOTH",
"511 524 OFFCURVE",
"488 547 OFFCURVE",
"459 547 CURVE SMOOTH",
"444 547 OFFCURVE",
"431 542 OFFCURVE",
"422 530 CURVE SMOOTH",
"274 354 LINE",
"127 530 LINE",
"117 542 OFFCURVE",
"104 547 OFFCURVE",
"89 547 CURVE SMOOTH",
"57 547 OFFCURVE",
"38 522 OFFCURVE",
"38 492 CURVE SMOOTH",
"38 480 OFFCURVE",
"43 470 OFFCURVE",
"50 462 CURVE SMOOTH",
"208 274 LINE",
"48 83 LINE SMOOTH",
"42 74 OFFCURVE",
"38 63 OFFCURVE",
"38 51 CURVE SMOOTH",
"38 23 OFFCURVE",
"60 0 OFFCURVE",
"89 0 CURVE SMOOTH"
);
}
);
width = 547;
},
{
layerId = "952115DE-4B60-44C8-B7C0-A1F0450151B4";
paths = (
{
closed = 1;
nodes = (
"79 0 OFFCURVE",
"85 3 OFFCURVE",
"91 9 CURVE SMOOTH",
"272 227 LINE",
"455 9 LINE SMOOTH",
"460 3 OFFCURVE",
"467 0 OFFCURVE",
"475 0 CURVE SMOOTH",
"492 0 OFFCURVE",
"505 13 OFFCURVE",
"505 30 CURVE SMOOTH",
"505 37 OFFCURVE",
"503 43 OFFCURVE",
"500 49 CURVE",
"312 274 LINE",
"499 497 LINE SMOOTH",
"503 502 OFFCURVE",
"505 509 OFFCURVE",
"505 517 CURVE SMOOTH",
"505 534 OFFCURVE",
"492 547 OFFCURVE",
"475 547 CURVE SMOOTH",
"467 547 OFFCURVE",
"459 544 OFFCURVE",
"453 538 CURVE",
"272 322 LINE",
"92 538 LINE",
"86 544 OFFCURVE",
"79 547 OFFCURVE",
"70 547 CURVE SMOOTH",
"52 547 OFFCURVE",
"40 533 OFFCURVE",
"40 515 CURVE SMOOTH",
"40 507 OFFCURVE",
"42 501 OFFCURVE",
"47 497 CURVE SMOOTH",
"233 274 LINE",
"45 49 LINE SMOOTH",
"41 43 OFFCURVE",
"40 37 OFFCURVE",
"40 30 CURVE SMOOTH",
"40 13 OFFCURVE",
"53 0 OFFCURVE",
"70 0 CURVE SMOOTH"
);
}
);
width = 547;
},
{
layerId = "E42B920F-7E89-45C7-8F78-304483CE0F77";
width = 600;
}
);
unicode = 0078;
},
{
glyphname = y;
layers = (
{
layerId = UUID0;
paths = (
{
closed = 1;
nodes = (
"197 -234 OFFCURVE",
"216 -220 OFFCURVE",
"225 -200 CURVE SMOOTH",
"505 473 LINE SMOOTH",
"509 481 OFFCURVE",
"511 489 OFFCURVE",
"511 496 CURVE SMOOTH",
"511 524 OFFCURVE",
"488 547 OFFCURVE",
"459 547 CURVE SMOOTH",
"431 547 OFFCURVE",
"419 534 OFFCURVE",
"412 514 CURVE SMOOTH",
"274 186 LINE",
"137 513 LINE SMOOTH",
"128 535 OFFCURVE",
"109 547 OFFCURVE",
"89 547 CURVE SMOOTH",
"59 547 OFFCURVE",
"38 522 OFFCURVE",
"38 494 CURVE SMOOTH",
"38 487 OFFCURVE",
"40 480 OFFCURVE",
"43 473 CURVE SMOOTH",
"219 51 LINE",
"130 -161 LINE SMOOTH",
"127 -168 OFFCURVE",
"125 -175 OFFCURVE",
"125 -183 CURVE SMOOTH",
"125 -212 OFFCURVE",
"147 -234 OFFCURVE",
"176 -234 CURVE SMOOTH"
);
}
);
width = 547;
},
{
layerId = "952115DE-4B60-44C8-B7C0-A1F0450151B4";
paths = (
{
closed = 1;
nodes = (
"186 -234 OFFCURVE",
"199 -228 OFFCURVE",
"203 -214 CURVE",
"504 506 LINE SMOOTH",
"505 510 OFFCURVE",
"506 513 OFFCURVE",
"506 517 CURVE SMOOTH",
"505 534 OFFCURVE",
"492 547 OFFCURVE",
"475 547 CURVE SMOOTH",
"460 547 OFFCURVE",
"451 540 OFFCURVE",
"446 526 CURVE",
"272 111 LINE",
"99 526 LINE",
"94 541 OFFCURVE",
"83 547 OFFCURVE",
"70 547 CURVE SMOOTH",
"53 547 OFFCURVE",
"40 534 OFFCURVE",
"40 517 CURVE SMOOTH",
"40 513 OFFCURVE",
"40 509 OFFCURVE",
"42 504 CURVE",
"239 31 LINE",
"146 -193 LINE SMOOTH",
"145 -196 OFFCURVE",
"144 -200 OFFCURVE",
"144 -204 CURVE SMOOTH",
"144 -221 OFFCURVE",
"157 -234 OFFCURVE",
"174 -234 CURVE SMOOTH"
);
}
);
width = 547;
},
{
layerId = "E42B920F-7E89-45C7-8F78-304483CE0F77";
width = 600;
}
);
unicode = 0079;
},
{
color = 4;
glyphname = z;
layers = (
{
background = {
paths = (
{
closed = 0;
nodes = (
"55 517 LINE",
"520 517 LINE"
);
},
{
closed = 0;
nodes = (
"55 27 LINE",
"520 27 LINE"
);
},
{
closed = 0;
nodes = (
"488 517 LINE",
"83 27 LINE"
);
}
);
};
layerId = UUID0;
paths = (
{
closed = 1;
nodes = (
"142 19 LINE",
"481 468 LINE",
"414 528 LINE",
"74 79 LINE"
);
},
{
closed = 1;
nodes = (
"453 0 LINE SMOOTH",
"484 0 OFFCURVE",
"500 16 OFFCURVE",
"500 47 CURVE SMOOTH",
"500 78 OFFCURVE",
"484 94 OFFCURVE",
"453 94 CURVE SMOOTH",
"112 94 LINE SMOOTH",
"81 94 OFFCURVE",
"65 78 OFFCURVE",
"65 47 CURVE SMOOTH",
"65 16 OFFCURVE",
"81 0 OFFCURVE",
"112 0 CURVE SMOOTH"
);
},
{
closed = 1;
nodes = (
"443 453 LINE SMOOTH",
"474 453 OFFCURVE",
"490 469 OFFCURVE",
"490 500 CURVE SMOOTH",
"490 531 OFFCURVE",
"474 547 OFFCURVE",
"443 547 CURVE SMOOTH",
"102 547 LINE SMOOTH",
"71 547 OFFCURVE",
"55 531 OFFCURVE",
"55 500 CURVE SMOOTH",
"55 469 OFFCURVE",
"71 453 OFFCURVE",
"102 453 CURVE SMOOTH"
);
}
);
width = 555;
},
{
background = {
components = (
{
name = n;
transform = "{1, 0, 0, 1, -42, 0}";
}
);
paths = (
{
closed = 0;
nodes = (
"65 517 LINE",
"530 517 LINE"
);
},
{
closed = 0;
nodes = (
"65 27 LINE",
"530 27 LINE"
);
},
{
closed = 0;
nodes = (
"498 517 LINE",
"93 27 LINE"
);
}
);
};
layerId = "952115DE-4B60-44C8-B7C0-A1F0450151B4";
paths = (
{
closed = 1;
nodes = (
"130 31 LINE",
"506 503 LINE",
"464 536 LINE",
"71 46 LINE"
);
},
{
closed = 1;
nodes = (
"483 0 LINE SMOOTH",
"501 0 OFFCURVE",
"510 9 OFFCURVE",
"510 27 CURVE SMOOTH",
"510 45 OFFCURVE",
"501 54 OFFCURVE",
"483 54 CURVE SMOOTH",
"92 54 LINE SMOOTH",
"74 54 OFFCURVE",
"65 45 OFFCURVE",
"65 27 CURVE SMOOTH",
"65 9 OFFCURVE",
"74 0 OFFCURVE",
"92 0 CURVE SMOOTH"
);
},
{
closed = 1;
nodes = (
"483 493 LINE SMOOTH",
"501 493 OFFCURVE",
"510 502 OFFCURVE",
"510 520 CURVE SMOOTH",
"510 537 OFFCURVE",
"501 547 OFFCURVE",
"483 547 CURVE SMOOTH",
"92 547 LINE SMOOTH",
"74 547 OFFCURVE",
"65 537 OFFCURVE",
"65 520 CURVE SMOOTH",
"65 502 OFFCURVE",
"74 493 OFFCURVE",
"92 493 CURVE SMOOTH"
);
}
);
width = 575;
},
{
layerId = "E42B920F-7E89-45C7-8F78-304483CE0F77";
width = 600;
},
{
associatedMasterId = "952115DE-4B60-44C8-B7C0-A1F0450151B4";
background = {
paths = (
{
closed = 0;
nodes = (
"40 517 LINE",
"505 517 LINE"
);
},
{
closed = 0;
nodes = (
"40 27 LINE",
"505 27 LINE"
);
},
{
closed = 0;
nodes = (
"473 517 LINE",
"68 27 LINE"
);
}
);
};
layerId = "1BF8FA3B-797D-4FD9-B576-A71B73FB5A12";
name = "Oct 19 16, 17:35";
paths = (
{
closed = 1;
nodes = (
"475 0 LINE SMOOTH",
"493 0 OFFCURVE",
"505 12 OFFCURVE",
"505 30 CURVE SMOOTH",
"505 48 OFFCURVE",
"493 61 OFFCURVE",
"475 61 CURVE SMOOTH",
"134 61 LINE",
"499 497 LINE SMOOTH",
"503 501 OFFCURVE",
"505 510 OFFCURVE",
"505 517 CURVE SMOOTH",
"505 535 OFFCURVE",
"493 547 OFFCURVE",
"475 547 CURVE SMOOTH",
"70 547 LINE SMOOTH",
"52 547 OFFCURVE",
"40 535 OFFCURVE",
"40 517 CURVE SMOOTH",
"40 499 OFFCURVE",
"52 486 OFFCURVE",
"70 486 CURVE SMOOTH",
"410 486 LINE",
"45 49 LINE SMOOTH",
"42 45 OFFCURVE",
"40 37 OFFCURVE",
"40 30 CURVE SMOOTH",
"40 12 OFFCURVE",
"52 0 OFFCURVE",
"70 0 CURVE SMOOTH"
);
}
);
width = 547;
}
);
unicode = 007A;
},
{
glyphname = ordfeminine;
layers = (
{
layerId = "E42B920F-7E89-45C7-8F78-304483CE0F77";
width = 600;
},
{
layerId = UUID0;
paths = (
{
closed = 1;
nodes = (
"274 371 OFFCURVE",
"309 380 OFFCURVE",
"339 398 CURVE",
"342 394 OFFCURVE",
"345 390 OFFCURVE",
"348 386 CURVE SMOOTH",
"358 376 OFFCURVE",
"370 371 OFFCURVE",
"385 371 CURVE SMOOTH",
"413 371 OFFCURVE",
"436 393 OFFCURVE",
"436 422 CURVE SMOOTH",
"436 570 LINE SMOOTH",
"436 679 OFFCURVE",
"345 770 OFFCURVE",
"236 770 CURVE SMOOTH",
"126 770 OFFCURVE",
"37 678 OFFCURVE",
"37 570 CURVE SMOOTH",
"37 462 OFFCURVE",
"126 371 OFFCURVE",
"236 371 CURVE SMOOTH"
);
},
{
closed = 1;
nodes = (
"182 473 OFFCURVE",
"139 516 OFFCURVE",
"139 570 CURVE SMOOTH",
"139 623 OFFCURVE",
"183 667 OFFCURVE",
"236 667 CURVE SMOOTH",
"289 667 OFFCURVE",
"333 623 OFFCURVE",
"333 570 CURVE SMOOTH",
"333 517 OFFCURVE",
"289 473 OFFCURVE",
"236 473 CURVE SMOOTH"
);
}
);
width = 469;
},
{
layerId = "952115DE-4B60-44C8-B7C0-A1F0450151B4";
paths = (
{
closed = 1;
nodes = (
"284 405 OFFCURVE",
"328 423 OFFCURVE",
"365 458 CURVE",
"365 435 LINE SMOOTH",
"365 418 OFFCURVE",
"378 405 OFFCURVE",
"395 405 CURVE SMOOTH",
"412 405 OFFCURVE",
"425 418 OFFCURVE",
"425 436 CURVE SMOOTH",
"425 598 LINE SMOOTH",
"425 703 OFFCURVE",
"340 790 OFFCURVE",
"233 790 CURVE SMOOTH",
"126 790 OFFCURVE",
"41 703 OFFCURVE",
"41 598 CURVE SMOOTH",
"41 491 OFFCURVE",
"127 405 OFFCURVE",
"233 405 CURVE SMOOTH"
);
},
{
closed = 1;
nodes = (
"161 466 OFFCURVE",
"101 525 OFFCURVE",
"101 598 CURVE SMOOTH",
"101 669 OFFCURVE",
"162 729 OFFCURVE",
"233 729 CURVE SMOOTH",
"303 729 OFFCURVE",
"365 669 OFFCURVE",
"365 598 CURVE SMOOTH",
"365 526 OFFCURVE",
"305 466 OFFCURVE",
"233 466 CURVE SMOOTH"
);
}
);
width = 469;
}
);
unicode = 00AA;
},
{
glyphname = ordmasculine;
layers = (
{
layerId = "E42B920F-7E89-45C7-8F78-304483CE0F77";
width = 600;
},
{
layerId = UUID0;
paths = (
{
closed = 1;
nodes = (
"236 385 OFFCURVE",
"284 458 OFFCURVE",
"284 583 CURVE SMOOTH",
"284 708 OFFCURVE",
"236 781 OFFCURVE",
"160 781 CURVE SMOOTH",
"80 781 OFFCURVE",
"35 708 OFFCURVE",
"35 583 CURVE SMOOTH",
"35 458 OFFCURVE",
"80 385 OFFCURVE",
"160 385 CURVE SMOOTH"
);
},
{
closed = 1;
nodes = (
"147 450 OFFCURVE",
"138 454 OFFCURVE",
"130 462 CURVE",
"131 461 LINE",
"110 485 OFFCURVE",
"100 526 OFFCURVE",
"100 583 CURVE SMOOTH",
"100 657 OFFCURVE",
"121 717 OFFCURVE",
"160 717 CURVE SMOOTH",
"171 717 OFFCURVE",
"181 712 OFFCURVE",
"188 704 CURVE",
"188 705 LINE",
"209 682 OFFCURVE",
"219 641 OFFCURVE",
"219 583 CURVE SMOOTH",
"219 508 OFFCURVE",
"200 450 OFFCURVE",
"160 450 CURVE SMOOTH"
);
}
);
width = 313;
},
{
layerId = "952115DE-4B60-44C8-B7C0-A1F0450151B4";
paths = (
{
closed = 1;
nodes = (
"224 408 OFFCURVE",
"263 479 OFFCURVE",
"263 599 CURVE SMOOTH",
"263 719 OFFCURVE",
"224 790 OFFCURVE",
"153 790 CURVE SMOOTH",
"81 790 OFFCURVE",
"42 719 OFFCURVE",
"42 599 CURVE SMOOTH",
"42 479 OFFCURVE",
"81 408 OFFCURVE",
"153 408 CURVE SMOOTH"
);
},
{
closed = 1;
nodes = (
"90 428 OFFCURVE",
"62 498 OFFCURVE",
"62 599 CURVE SMOOTH",
"62 700 OFFCURVE",
"91 770 OFFCURVE",
"153 770 CURVE SMOOTH",
"213 770 OFFCURVE",
"244 697 OFFCURVE",
"244 599 CURVE SMOOTH",
"244 499 OFFCURVE",
"213 428 OFFCURVE",
"153 428 CURVE SMOOTH"
);
}
);
width = 313;
}
);
unicode = 00BA;
},
{
color = 11;
export = 0;
glyphname = afii10018;
layers = (
{
layerId = UUID0;
paths = (
{
closed = 1;
nodes = (
"276 0 LINE SMOOTH",
"408 0 OFFCURVE",
"516 109 OFFCURVE",
"516 240 CURVE SMOOTH",
"516 371 OFFCURVE",
"409 480 OFFCURVE",
"276 480 CURVE SMOOTH",
"140 480 LINE",
"140 678 LINE",
"389 678 LINE SMOOTH",
"418 678 OFFCURVE",
"441 700 OFFCURVE",
"441 729 CURVE SMOOTH",
"441 759 OFFCURVE",
"418 781 OFFCURVE",
"389 781 CURVE SMOOTH",
"88 781 LINE SMOOTH",
"60 781 OFFCURVE",
"36 758 OFFCURVE",
"36 729 CURVE SMOOTH",
"36 52 LINE SMOOTH",
"36 23 OFFCURVE",
"60 0 OFFCURVE",
"88 0 CURVE SMOOTH"
);
},
{
closed = 1;
nodes = (
"140 376 LINE",
"276 376 LINE SMOOTH",
"351 376 OFFCURVE",
"413 315 OFFCURVE",
"413 240 CURVE SMOOTH",
"413 165 OFFCURVE",
"352 104 OFFCURVE",
"276 104 CURVE SMOOTH",
"140 104 LINE"
);
}
);
width = 547;
},
{
layerId = "952115DE-4B60-44C8-B7C0-A1F0450151B4";
paths = (
{
closed = 1;
nodes = (
"271 0 LINE SMOOTH",
"398 0 OFFCURVE",
"501 104 OFFCURVE",
"501 230 CURVE SMOOTH",
"501 358 OFFCURVE",
"396 461 OFFCURVE",
"271 461 CURVE SMOOTH",
"101 461 LINE",
"101 721 LINE",
"391 721 LINE SMOOTH",
"408 721 OFFCURVE",
"421 735 OFFCURVE",
"421 751 CURVE SMOOTH",
"421 768 OFFCURVE",
"408 781 OFFCURVE",
"391 781 CURVE SMOOTH",
"71 781 LINE SMOOTH",
"54 781 OFFCURVE",
"41 768 OFFCURVE",
"41 751 CURVE SMOOTH",
"41 30 LINE SMOOTH",
"41 13 OFFCURVE",
"54 0 OFFCURVE",
"71 0 CURVE SMOOTH"
);
},
{
closed = 1;
nodes = (
"101 401 LINE",
"271 401 LINE SMOOTH",
"365 401 OFFCURVE",
"441 322 OFFCURVE",
"441 230 CURVE SMOOTH",
"441 138 OFFCURVE",
"365 60 OFFCURVE",
"271 60 CURVE SMOOTH",
"101 60 LINE"
);
}
);
width = 547;
},
{
layerId = "E42B920F-7E89-45C7-8F78-304483CE0F77";
width = 600;
}
);
unicode = 0411;
},
{
color = 11;
export = 0;
glyphname = afii10020;
layers = (
{
layerId = UUID0;
paths = (
{
closed = 1;
nodes = (
"116 0 OFFCURVE",
"140 24 OFFCURVE",
"140 51 CURVE SMOOTH",
"140 678 LINE",
"502 678 LINE SMOOTH",
"532 678 OFFCURVE",
"554 700 OFFCURVE",
"554 729 CURVE SMOOTH",
"554 759 OFFCURVE",
"532 781 OFFCURVE",
"502 781 CURVE SMOOTH",
"89 781 LINE SMOOTH",
"60 781 OFFCURVE",
"37 759 OFFCURVE",
"37 729 CURVE SMOOTH",
"37 60 LINE",
"37 58 OFFCURVE",
"36 57 OFFCURVE",
"36 56 CURVE SMOOTH",
"36 25 OFFCURVE",
"56 0 OFFCURVE",
"88 0 CURVE SMOOTH"
);
}
);
width = 586;
},
{
layerId = "952115DE-4B60-44C8-B7C0-A1F0450151B4";
paths = (
{
closed = 1;
nodes = (
"86 0 OFFCURVE",
"100 12 OFFCURVE",
"101 30 CURVE",
"101 721 LINE",
"511 721 LINE SMOOTH",
"528 721 OFFCURVE",
"542 735 OFFCURVE",
"542 751 CURVE SMOOTH",
"542 768 OFFCURVE",
"528 781 OFFCURVE",
"511 781 CURVE SMOOTH",
"71 781 LINE SMOOTH",
"55 781 OFFCURVE",
"41 768 OFFCURVE",
"41 750 CURVE SMOOTH",
"41 30 LINE SMOOTH",
"41 13 OFFCURVE",
"54 0 OFFCURVE",
"70 0 CURVE SMOOTH"
);
}
);
width = 586;
},
{
layerId = "E42B920F-7E89-45C7-8F78-304483CE0F77";
width = 600;
}
);
unicode = 0413;
},
{
color = 11;
export = 0;
glyphname = afii10050;
layers = (
{
layerId = UUID0;
paths = (
{
closed = 1;
nodes = (
"116 0 OFFCURVE",
"140 24 OFFCURVE",
"140 52 CURVE SMOOTH",
"140 678 LINE",
"502 678 LINE SMOOTH",
"532 678 OFFCURVE",
"554 700 OFFCURVE",
"554 729 CURVE SMOOTH",
"554 806 OFFCURVE",
"530 932 OFFCURVE",
"469 932 CURVE SMOOTH",
"439 932 OFFCURVE",
"417 909 OFFCURVE",
"417 880 CURVE SMOOTH",
"417 870 OFFCURVE",
"419 863 OFFCURVE",
"423 855 CURVE",
"436 826 OFFCURVE",
"443 801 OFFCURVE",
"447 781 CURVE",
"89 781 LINE SMOOTH",
"60 781 OFFCURVE",
"37 758 OFFCURVE",
"37 729 CURVE SMOOTH",
"37 52 LINE SMOOTH",
"37 22 OFFCURVE",
"59 0 OFFCURVE",
"88 0 CURVE SMOOTH"
);
}
);
width = 586;
},
{
layerId = "952115DE-4B60-44C8-B7C0-A1F0450151B4";
paths = (
{
closed = 1;
nodes = (
"87 0 OFFCURVE",
"101 13 OFFCURVE",
"101 30 CURVE SMOOTH",
"101 721 LINE",
"511 721 LINE SMOOTH",
"528 721 OFFCURVE",
"542 735 OFFCURVE",
"542 751 CURVE SMOOTH",
"542 813 OFFCURVE",
"520 941 OFFCURVE",
"475 941 CURVE SMOOTH",
"458 941 OFFCURVE",
"445 929 OFFCURVE",
"445 912 CURVE SMOOTH",
"445 906 OFFCURVE",
"446 901 OFFCURVE",
"449 897 CURVE SMOOTH",
"465 864 OFFCURVE",
"475 826 OFFCURVE",
"480 781 CURVE",
"71 781 LINE SMOOTH",
"55 781 OFFCURVE",
"41 768 OFFCURVE",
"41 751 CURVE",
"41 30 LINE SMOOTH",
"41 13 OFFCURVE",
"54 0 OFFCURVE",
"70 0 CURVE SMOOTH"
);
}
);
width = 586;
},
{
layerId = "E42B920F-7E89-45C7-8F78-304483CE0F77";
width = 600;
}
);
unicode = 0490;
},
{
color = 11;
export = 0;
glyphname = afii10021;
layers = (
{
layerId = UUID0;
paths = (
{
closed = 1;
nodes = (
"119 -150 OFFCURVE",
"142 -127 OFFCURVE",
"142 -99 CURVE SMOOTH",
"142 0 LINE",
"641 0 LINE",
"641 -99 LINE SMOOTH",
"641 -127 OFFCURVE",
"664 -150 OFFCURVE",
"692 -150 CURVE SMOOTH",
"722 -150 OFFCURVE",
"744 -128 OFFCURVE",
"744 -99 CURVE SMOOTH",
"744 52 LINE SMOOTH",
"744 81 OFFCURVE",
"723 104 OFFCURVE",
"691 104 CURVE",
"441 745 LINE SMOOTH",
"434 764 OFFCURVE",
"419 781 OFFCURVE",
"392 781 CURVE SMOOTH",
"371 781 OFFCURVE",
"352 771 OFFCURVE",
"342 745 CURVE SMOOTH",
"92 104 LINE",
"60 104 OFFCURVE",
"39 81 OFFCURVE",
"39 52 CURVE SMOOTH",
"39 -99 LINE SMOOTH",
"39 -128 OFFCURVE",
"61 -150 OFFCURVE",
"90 -150 CURVE SMOOTH"
);
},
{
closed = 1;
nodes = (
"392 586 LINE",
"579 104 LINE",
"204 104 LINE"
);
}
);
width = 781;
},
{
layerId = "952115DE-4B60-44C8-B7C0-A1F0450151B4";
paths = (
{
closed = 1;
nodes = (
"86 -160 OFFCURVE",
"99 -147 OFFCURVE",
"99 -130 CURVE SMOOTH",
"99 0 LINE",
"680 0 LINE",
"680 -130 LINE SMOOTH",
"680 -147 OFFCURVE",
"693 -160 OFFCURVE",
"710 -160 CURVE SMOOTH",
"728 -160 OFFCURVE",
"740 -147 OFFCURVE",
"740 -130 CURVE SMOOTH",
"740 30 LINE SMOOTH",
"740 46 OFFCURVE",
"728 60 OFFCURVE",
"710 60 CURVE SMOOTH",
"691 60 LINE",
"419 760 LINE SMOOTH",
"414 774 OFFCURVE",
"403 781 OFFCURVE",
"390 781 CURVE SMOOTH",
"375 781 OFFCURVE",
"366 773 OFFCURVE",
"361 760 CURVE SMOOTH",
"89 60 LINE",
"69 60 LINE SMOOTH",
"52 60 OFFCURVE",
"39 46 OFFCURVE",
"39 30 CURVE SMOOTH",
"39 -130 LINE SMOOTH",
"39 -147 OFFCURVE",
"52 -160 OFFCURVE",
"69 -160 CURVE SMOOTH"
);
},
{
closed = 1;
nodes = (
"390 668 LINE",
"626 60 LINE",
"153 60 LINE"
);
}
);
width = 781;
},
{
layerId = "E42B920F-7E89-45C7-8F78-304483CE0F77";
width = 600;
}
);
unicode = 0414;
},
{
color = 11;
export = 0;
glyphname = afii10024;
layers = (
{
layerId = UUID0;
paths = (
{
closed = 1;
nodes = (
"111 0 OFFCURVE",
"125 7 OFFCURVE",
"135 21 CURVE SMOOTH",
"386 363 LINE",
"455 293 LINE",
"455 52 LINE SMOOTH",
"455 22 OFFCURVE",
"477 0 OFFCURVE",
"506 0 CURVE SMOOTH",
"536 0 OFFCURVE",
"558 22 OFFCURVE",
"558 52 CURVE SMOOTH",
"558 293 LINE",
"627 362 LINE",
"878 21 LINE SMOOTH",
"889 7 OFFCURVE",
"902 0 OFFCURVE",
"919 0 CURVE SMOOTH",
"950 0 OFFCURVE",
"972 22 OFFCURVE",
"972 49 CURVE SMOOTH",
"972 61 OFFCURVE",
"969 72 OFFCURVE",
"962 83 CURVE",
"701 437 LINE",
"958 693 LINE",
"966 703 OFFCURVE",
"972 715 OFFCURVE",
"972 729 CURVE SMOOTH",
"972 759 OFFCURVE",
"950 781 OFFCURVE",
"920 781 CURVE SMOOTH",
"906 781 OFFCURVE",
"894 776 OFFCURVE",
"883 765 CURVE SMOOTH",
"558 440 LINE",
"558 729 LINE SMOOTH",
"558 759 OFFCURVE",
"536 781 OFFCURVE",
"506 781 CURVE SMOOTH",
"477 781 OFFCURVE",
"455 759 OFFCURVE",
"455 729 CURVE SMOOTH",
"455 440 LINE",
"130 765 LINE SMOOTH",
"119 776 OFFCURVE",
"106 781 OFFCURVE",
"92 781 CURVE SMOOTH",
"63 781 OFFCURVE",
"41 759 OFFCURVE",
"41 729 CURVE SMOOTH",
"41 715 OFFCURVE",
"45 703 OFFCURVE",
"55 693 CURVE SMOOTH",
"312 437 LINE",
"50 83 LINE",
"44 73 OFFCURVE",
"41 62 OFFCURVE",
"41 49 CURVE SMOOTH",
"41 21 OFFCURVE",
"65 0 OFFCURVE",
"94 0 CURVE SMOOTH"
);
}
);
width = 1016;
},
{
layerId = "952115DE-4B60-44C8-B7C0-A1F0450151B4";
paths = (
{
closed = 1;
nodes = (
"78 0 OFFCURVE",
"85 3 OFFCURVE",
"90 10 CURVE SMOOTH",
"377 398 LINE",
"479 297 LINE",
"479 30 LINE SMOOTH",
"479 13 OFFCURVE",
"491 0 OFFCURVE",
"508 0 CURVE SMOOTH",
"525 0 OFFCURVE",
"539 13 OFFCURVE",
"539 30 CURVE SMOOTH",
"539 297 LINE",
"640 398 LINE",
"922 15 LINE",
"929 5 OFFCURVE",
"938 0 OFFCURVE",
"949 0 CURVE SMOOTH",
"966 0 OFFCURVE",
"979 14 OFFCURVE",
"979 30 CURVE",
"979 36 OFFCURVE",
"978 42 OFFCURVE",
"974 48 CURVE SMOOTH",
"683 442 LINE",
"970 729 LINE SMOOTH",
"976 735 OFFCURVE",
"979 743 OFFCURVE",
"979 751 CURVE SMOOTH",
"979 768 OFFCURVE",
"966 781 OFFCURVE",
"949 781 CURVE SMOOTH",
"940 781 OFFCURVE",
"933 778 OFFCURVE",
"927 772 CURVE SMOOTH",
"539 384 LINE",
"539 751 LINE SMOOTH",
"539 768 OFFCURVE",
"525 781 OFFCURVE",
"508 781 CURVE SMOOTH",
"491 781 OFFCURVE",
"479 768 OFFCURVE",
"479 751 CURVE SMOOTH",
"479 384 LINE",
"90 772 LINE SMOOTH",
"84 778 OFFCURVE",
"77 781 OFFCURVE",
"68 781 CURVE SMOOTH",
"51 781 OFFCURVE",
"38 768 OFFCURVE",
"38 751 CURVE SMOOTH",
"38 743 OFFCURVE",
"41 736 OFFCURVE",
"47 729 CURVE SMOOTH",
"333 442 LINE",
"44 49 LINE SMOOTH",
"40 43 OFFCURVE",
"38 37 OFFCURVE",
"38 30 CURVE SMOOTH",
"38 14 OFFCURVE",
"51 0 OFFCURVE",
"67 0 CURVE SMOOTH"
);
}
);
width = 1016;
},
{
layerId = "E42B920F-7E89-45C7-8F78-304483CE0F77";
width = 600;
}
);
unicode = 0416;
},
{
color = 11;
export = 0;
glyphname = afii10025;
layers = (
{
layerId = UUID0;
paths = (
{
closed = 1;
nodes = (
"394 0 OFFCURVE",
"498 105 OFFCURVE",
"498 230 CURVE SMOOTH",
"498 299 OFFCURVE",
"469 370 OFFCURVE",
"409 413 CURVE",
"456 457 OFFCURVE",
"479 509 OFFCURVE",
"479 569 CURVE SMOOTH",
"479 685 OFFCURVE",
"382 781 OFFCURVE",
"267 781 CURVE SMOOTH",
"151 781 OFFCURVE",
"55 685 OFFCURVE",
"55 569 CURVE SMOOTH",
"55 540 OFFCURVE",
"78 518 OFFCURVE",
"107 518 CURVE SMOOTH",
"135 518 OFFCURVE",
"159 541 OFFCURVE",
"159 569 CURVE SMOOTH",
"159 629 OFFCURVE",
"207 678 OFFCURVE",
"267 678 CURVE SMOOTH",
"327 678 OFFCURVE",
"375 629 OFFCURVE",
"375 569 CURVE SMOOTH",
"375 510 OFFCURVE",
"327 461 OFFCURVE",
"267 461 CURVE SMOOTH",
"238 461 OFFCURVE",
"215 438 OFFCURVE",
"215 410 CURVE SMOOTH",
"215 380 OFFCURVE",
"237 358 OFFCURVE",
"267 358 CURVE SMOOTH",
"335 358 OFFCURVE",
"394 301 OFFCURVE",
"394 230 CURVE SMOOTH",
"394 161 OFFCURVE",
"336 104 OFFCURVE",
"267 104 CURVE SMOOTH",
"197 104 OFFCURVE",
"140 161 OFFCURVE",
"140 230 CURVE SMOOTH",
"140 260 OFFCURVE",
"117 282 OFFCURVE",
"88 282 CURVE SMOOTH",
"59 282 OFFCURVE",
"36 260 OFFCURVE",
"36 230 CURVE SMOOTH",
"36 104 OFFCURVE",
"140 0 OFFCURVE",
"267 0 CURVE SMOOTH"
);
}
);
width = 527;
},
{
layerId = "952115DE-4B60-44C8-B7C0-A1F0450151B4";
paths = (
{
closed = 1;
nodes = (
"383 0 OFFCURVE",
"481 100 OFFCURVE",
"481 220 CURVE SMOOTH",
"481 298 OFFCURVE",
"444 369 OFFCURVE",
"371 413 CURVE",
"432 456 OFFCURVE",
"461 512 OFFCURVE",
"461 581 CURVE SMOOTH",
"461 691 OFFCURVE",
"371 781 OFFCURVE",
"261 781 CURVE SMOOTH",
"151 781 OFFCURVE",
"61 691 OFFCURVE",
"61 581 CURVE SMOOTH",
"61 564 OFFCURVE",
"74 551 OFFCURVE",
"91 551 CURVE SMOOTH",
"108 551 OFFCURVE",
"121 564 OFFCURVE",
"121 581 CURVE SMOOTH",
"121 658 OFFCURVE",
"185 721 OFFCURVE",
"261 721 CURVE SMOOTH",
"339 721 OFFCURVE",
"401 657 OFFCURVE",
"401 581 CURVE SMOOTH",
"401 505 OFFCURVE",
"339 441 OFFCURVE",
"261 441 CURVE SMOOTH",
"244 441 OFFCURVE",
"231 428 OFFCURVE",
"231 411 CURVE SMOOTH",
"231 394 OFFCURVE",
"244 380 OFFCURVE",
"261 380 CURVE SMOOTH",
"350 380 OFFCURVE",
"421 306 OFFCURVE",
"421 220 CURVE SMOOTH",
"421 132 OFFCURVE",
"348 60 OFFCURVE",
"261 60 CURVE SMOOTH",
"174 60 OFFCURVE",
"101 133 OFFCURVE",
"101 220 CURVE SMOOTH",
"101 237 OFFCURVE",
"88 250 OFFCURVE",
"71 250 CURVE SMOOTH",
"54 250 OFFCURVE",
"41 237 OFFCURVE",
"41 220 CURVE SMOOTH",
"41 99 OFFCURVE",
"140 0 OFFCURVE",
"261 0 CURVE SMOOTH"
);
}
);
width = 527;
},
{
layerId = "E42B920F-7E89-45C7-8F78-304483CE0F77";
width = 600;
}
);
unicode = 0417;
},
{
color = 11;
export = 0;
glyphname = afii10027;
layers = (
{
layerId = UUID0;
paths = (
{
closed = 1;
nodes = (
"102 0 OFFCURVE",
"115 6 OFFCURVE",
"126 18 CURVE",
"562 578 LINE",
"562 52 LINE SMOOTH",
"562 23 OFFCURVE",
"585 0 OFFCURVE",
"614 0 CURVE SMOOTH",
"643 0 OFFCURVE",
"666 23 OFFCURVE",
"666 52 CURVE SMOOTH",
"666 729 LINE SMOOTH",
"666 759 OFFCURVE",
"643 781 OFFCURVE",
"614 781 CURVE SMOOTH",
"599 781 OFFCURVE",
"585 775 OFFCURVE",
"574 762 CURVE",
"138 202 LINE",
"138 729 LINE SMOOTH",
"138 758 OFFCURVE",
"115 781 OFFCURVE",
"86 781 CURVE SMOOTH",
"58 781 OFFCURVE",
"35 758 OFFCURVE",
"35 729 CURVE SMOOTH",
"35 52 LINE SMOOTH",
"35 22 OFFCURVE",
"57 0 OFFCURVE",
"86 0 CURVE SMOOTH"
);
},
{
closed = 1;
nodes = (
"439 839 OFFCURVE",
"513 894 OFFCURVE",
"513 964 CURVE SMOOTH",
"513 993 OFFCURVE",
"491 1016 OFFCURVE",
"462 1016 CURVE SMOOTH",
"437 1016 OFFCURVE",
"416 999 OFFCURVE",
"412 975 CURVE",
"411 956 OFFCURVE",
"381 941 OFFCURVE",
"350 941 CURVE SMOOTH",
"318 941 OFFCURVE",
"291 956 OFFCURVE",
"288 975 CURVE SMOOTH",
"285 999 OFFCURVE",
"263 1016 OFFCURVE",
"238 1016 CURVE SMOOTH",
"209 1016 OFFCURVE",
"188 993 OFFCURVE",
"188 964 CURVE SMOOTH",
"188 894 OFFCURVE",
"261 839 OFFCURVE",
"350 839 CURVE SMOOTH"
);
}
);
width = 703;
},
{
layerId = "952115DE-4B60-44C8-B7C0-A1F0450151B4";
paths = (
{
closed = 1;
nodes = (
"76 0 OFFCURVE",
"83 3 OFFCURVE",
"89 9 CURVE",
"598 663 LINE",
"598 30 LINE SMOOTH",
"598 13 OFFCURVE",
"610 0 OFFCURVE",
"627 0 CURVE SMOOTH",
"645 0 OFFCURVE",
"658 13 OFFCURVE",
"658 30 CURVE SMOOTH",
"658 751 LINE SMOOTH",
"658 768 OFFCURVE",
"645 781 OFFCURVE",
"627 781 CURVE SMOOTH",
"618 781 OFFCURVE",
"610 778 OFFCURVE",
"604 771 CURVE SMOOTH",
"97 118 LINE",
"97 751 LINE SMOOTH",
"97 768 OFFCURVE",
"83 781 OFFCURVE",
"66 781 CURVE SMOOTH",
"50 781 OFFCURVE",
"37 768 OFFCURVE",
"37 751 CURVE SMOOTH",
"37 30 LINE SMOOTH",
"37 13 OFFCURVE",
"50 0 OFFCURVE",
"66 0 CURVE SMOOTH"
);
},
{
closed = 1;
nodes = (
"424 862 OFFCURVE",
"495 906 OFFCURVE",
"500 974 CURVE",
"499 990 OFFCURVE",
"486 1004 OFFCURVE",
"469 1004 CURVE SMOOTH",
"452 1004 OFFCURVE",
"438 991 OFFCURVE",
"438 974 CURVE SMOOTH",
"438 943 OFFCURVE",
"394 923 OFFCURVE",
"347 923 CURVE SMOOTH",
"298 923 OFFCURVE",
"256 944 OFFCURVE",
"256 974 CURVE SMOOTH",
"256 991 OFFCURVE",
"243 1004 OFFCURVE",
"226 1004 CURVE SMOOTH",
"208 1004 OFFCURVE",
"195 991 OFFCURVE",
"195 974 CURVE SMOOTH",
"195 912 OFFCURVE",
"264 862 OFFCURVE",
"347 862 CURVE SMOOTH"
);
}
);
width = 703;
},
{
layerId = "E42B920F-7E89-45C7-8F78-304483CE0F77";
width = 600;
}
);
unicode = 0419;
},
{
color = 11;
export = 0;
glyphname = afii10061;
layers = (
{
layerId = UUID0;
paths = (
{
closed = 1;
nodes = (
"118 0 OFFCURVE",
"140 22 OFFCURVE",
"140 52 CURVE SMOOTH",
"140 293 LINE",
"209 362 LINE",
"295 245 OFFCURVE",
"374 139 OFFCURVE",
"460 21 CURVE SMOOTH",
"460 22 LINE SMOOTH",
"470 7 OFFCURVE",
"484 0 OFFCURVE",
"503 0 CURVE SMOOTH",
"532 0 OFFCURVE",
"554 25 OFFCURVE",
"554 53 CURVE",
"554 63 OFFCURVE",
"551 73 OFFCURVE",
"544 83 CURVE SMOOTH",
"283 437 LINE",
"539 693 LINE SMOOTH",
"549 703 OFFCURVE",
"554 715 OFFCURVE",
"554 729 CURVE SMOOTH",
"554 759 OFFCURVE",
"532 781 OFFCURVE",
"502 781 CURVE SMOOTH",
"488 781 OFFCURVE",
"476 776 OFFCURVE",
"465 765 CURVE SMOOTH",
"140 440 LINE",
"140 729 LINE SMOOTH",
"140 759 OFFCURVE",
"118 781 OFFCURVE",
"88 781 CURVE SMOOTH",
"59 781 OFFCURVE",
"37 759 OFFCURVE",
"37 729 CURVE SMOOTH",
"37 52 LINE SMOOTH",
"37 22 OFFCURVE",
"59 0 OFFCURVE",
"88 0 CURVE SMOOTH"
);
},
{
closed = 1;
nodes = (
"255 791 OFFCURVE",
"267 795 OFFCURVE",
"277 804 CURVE",
"392 919 LINE",
"402 930 OFFCURVE",
"407 942 OFFCURVE",
"407 956 CURVE SMOOTH",
"407 984 OFFCURVE",
"383 1007 OFFCURVE",
"355 1007 CURVE SMOOTH",
"341 1007 OFFCURVE",
"329 1002 OFFCURVE",
"318 992 CURVE",
"203 877 LINE",
"194 867 OFFCURVE",
"190 855 OFFCURVE",
"190 842 CURVE SMOOTH",
"190 814 OFFCURVE",
"213 791 OFFCURVE",
"242 791 CURVE SMOOTH"
);
}
);
width = 586;
},
{
layerId = "952115DE-4B60-44C8-B7C0-A1F0450151B4";
paths = (
{
closed = 1;
nodes = (
"93 0 OFFCURVE",
"106 13 OFFCURVE",
"106 30 CURVE SMOOTH",
"106 297 LINE",
"208 398 LINE",
"492 13 LINE SMOOTH",
"499 4 OFFCURVE",
"507 0 OFFCURVE",
"518 0 CURVE SMOOTH",
"535 0 OFFCURVE",
"547 15 OFFCURVE",
"547 32 CURVE",
"546 37 OFFCURVE",
"545 42 OFFCURVE",
"542 48 CURVE SMOOTH",
"251 442 LINE",
"539 729 LINE",
"544 736 OFFCURVE",
"547 744 OFFCURVE",
"547 751 CURVE SMOOTH",
"547 768 OFFCURVE",
"534 781 OFFCURVE",
"517 781 CURVE SMOOTH",
"508 781 OFFCURVE",
"501 778 OFFCURVE",
"495 772 CURVE SMOOTH",
"106 384 LINE",
"106 751 LINE SMOOTH",
"106 768 OFFCURVE",
"93 781 OFFCURVE",
"76 781 CURVE SMOOTH",
"60 781 OFFCURVE",
"46 768 OFFCURVE",
"46 751 CURVE SMOOTH",
"46 30 LINE SMOOTH",
"46 13 OFFCURVE",
"60 0 OFFCURVE",
"76 0 CURVE SMOOTH"
);
},
{
closed = 1;
nodes = (
"275 833 OFFCURVE",
"282 835 OFFCURVE",
"287 840 CURVE SMOOTH",
"410 963 LINE SMOOTH",
"416 969 OFFCURVE",
"418 977 OFFCURVE",
"418 985 CURVE SMOOTH",
"418 1002 OFFCURVE",
"405 1015 OFFCURVE",
"388 1015 CURVE SMOOTH",
"379 1015 OFFCURVE",
"372 1012 OFFCURVE",
"366 1006 CURVE SMOOTH",
"243 883 LINE",
"239 878 OFFCURVE",
"236 872 OFFCURVE",
"236 863 CURVE SMOOTH",
"236 846 OFFCURVE",
"250 833 OFFCURVE",
"267 833 CURVE SMOOTH"
);
}
);
width = 586;
},
{
layerId = "E42B920F-7E89-45C7-8F78-304483CE0F77";
width = 600;
}
);
unicode = 040C;
},
{
color = 11;
export = 0;
glyphname = afii10033;
layers = (
{
layerId = UUID0;
paths = (
{
closed = 1;
nodes = (
"118 0 OFFCURVE",
"141 22 OFFCURVE",
"141 52 CURVE SMOOTH",
"141 678 LINE",
"489 678 LINE",
"489 52 LINE SMOOTH",
"489 22 OFFCURVE",
"511 0 OFFCURVE",
"541 0 CURVE SMOOTH",
"570 0 OFFCURVE",
"592 22 OFFCURVE",
"592 52 CURVE SMOOTH",
"592 729 LINE SMOOTH",
"592 759 OFFCURVE",
"570 781 OFFCURVE",
"541 781 CURVE SMOOTH",
"89 781 LINE SMOOTH",
"60 781 OFFCURVE",
"37 759 OFFCURVE",
"37 729 CURVE SMOOTH",
"37 52 LINE SMOOTH",
"37 22 OFFCURVE",
"60 0 OFFCURVE",
"89 0 CURVE SMOOTH"
);
}
);
width = 625;
},
{
layerId = "952115DE-4B60-44C8-B7C0-A1F0450151B4";
paths = (
{
closed = 1;
nodes = (
"87 0 OFFCURVE",
"100 13 OFFCURVE",
"100 30 CURVE SMOOTH",
"100 721 LINE",
"521 721 LINE",
"521 30 LINE SMOOTH",
"521 13 OFFCURVE",
"534 0 OFFCURVE",
"551 0 CURVE SMOOTH",
"567 0 OFFCURVE",
"581 13 OFFCURVE",
"581 30 CURVE SMOOTH",
"581 751 LINE SMOOTH",
"581 768 OFFCURVE",
"567 781 OFFCURVE",
"551 781 CURVE SMOOTH",
"70 781 LINE SMOOTH",
"53 781 OFFCURVE",
"40 768 OFFCURVE",
"40 751 CURVE SMOOTH",
"40 30 LINE SMOOTH",
"40 13 OFFCURVE",
"53 0 OFFCURVE",
"70 0 CURVE SMOOTH"
);
}
);
width = 625;
},
{
layerId = "E42B920F-7E89-45C7-8F78-304483CE0F77";
width = 600;
}
);
unicode = 041F;
},
{
color = 11;
export = 0;
glyphname = afii10037;
layers = (
{
layerId = UUID0;
paths = (
{
closed = 1;
nodes = (
"244 0 OFFCURVE",
"294 28 OFFCURVE",
"329 85 CURVE",
"661 703 LINE SMOOTH",
"666 712 OFFCURVE",
"668 721 OFFCURVE",
"668 729 CURVE SMOOTH",
"668 759 OFFCURVE",
"646 781 OFFCURVE",
"617 781 CURVE SMOOTH",
"596 781 OFFCURVE",
"581 773 OFFCURVE",
"572 756 CURVE SMOOTH",
"353 349 LINE",
"134 756 LINE",
"124 773 OFFCURVE",
"109 781 OFFCURVE",
"89 781 CURVE SMOOTH",
"60 781 OFFCURVE",
"38 759 OFFCURVE",
"38 729 CURVE SMOOTH",
"38 721 OFFCURVE",
"40 712 OFFCURVE",
"45 703 CURVE SMOOTH",
"294 241 LINE",
"238 137 LINE",
"225 114 OFFCURVE",
"207 104 OFFCURVE",
"184 104 CURVE SMOOTH",
"157 104 OFFCURVE",
"141 125 OFFCURVE",
"116 125 CURVE SMOOTH",
"87 125 OFFCURVE",
"64 103 OFFCURVE",
"64 73 CURVE SMOOTH",
"64 27 OFFCURVE",
"130 0 OFFCURVE",
"184 0 CURVE SMOOTH"
);
}
);
width = 702;
},
{
layerId = "952115DE-4B60-44C8-B7C0-A1F0450151B4";
paths = (
{
closed = 1;
nodes = (
"225 0 OFFCURVE",
"272 26 OFFCURVE",
"303 78 CURVE",
"656 735 LINE SMOOTH",
"659 741 OFFCURVE",
"661 746 OFFCURVE",
"661 751 CURVE SMOOTH",
"661 768 OFFCURVE",
"647 781 OFFCURVE",
"631 781 CURVE SMOOTH",
"619 781 OFFCURVE",
"610 777 OFFCURVE",
"605 768 CURVE SMOOTH",
"350 294 LINE",
"95 767 LINE SMOOTH",
"90 776 OFFCURVE",
"80 781 OFFCURVE",
"70 781 CURVE SMOOTH",
"53 781 OFFCURVE",
"40 768 OFFCURVE",
"40 751 CURVE SMOOTH",
"40 746 OFFCURVE",
"41 741 OFFCURVE",
"44 735 CURVE SMOOTH",
"316 230 LINE",
"250 109 LINE",
"236 79 OFFCURVE",
"201 60 OFFCURVE",
"170 60 CURVE SMOOTH",
"149 60 OFFCURVE",
"131 66 OFFCURVE",
"115 78 CURVE SMOOTH",
"111 81 OFFCURVE",
"105 83 OFFCURVE",
"98 83 CURVE SMOOTH",
"81 83 OFFCURVE",
"68 70 OFFCURVE",
"68 53 CURVE SMOOTH",
"68 21 OFFCURVE",
"128 0 OFFCURVE",
"170 0 CURVE SMOOTH"
);
}
);
width = 702;
},
{
layerId = "E42B920F-7E89-45C7-8F78-304483CE0F77";
width = 600;
}
);
unicode = 0423;
},
{
color = 11;
export = 0;
glyphname = afii10041;
layers = (
{
layerId = UUID0;
paths = (
{
closed = 1;
nodes = (
"570 0 OFFCURVE",
"592 22 OFFCURVE",
"592 52 CURVE SMOOTH",
"592 729 LINE SMOOTH",
"592 759 OFFCURVE",
"570 781 OFFCURVE",
"541 781 CURVE SMOOTH",
"511 781 OFFCURVE",
"489 759 OFFCURVE",
"489 729 CURVE SMOOTH",
"489 541 LINE SMOOTH",
"489 445 OFFCURVE",
"410 367 OFFCURVE",
"314 367 CURVE SMOOTH",
"219 367 OFFCURVE",
"141 445 OFFCURVE",
"141 541 CURVE SMOOTH",
"141 729 LINE SMOOTH",
"141 759 OFFCURVE",
"118 781 OFFCURVE",
"89 781 CURVE SMOOTH",
"60 781 OFFCURVE",
"37 759 OFFCURVE",
"37 729 CURVE SMOOTH",
"37 541 LINE SMOOTH",
"37 389 OFFCURVE",
"163 264 OFFCURVE",
"314 264 CURVE SMOOTH",
"382 264 OFFCURVE",
"440 284 OFFCURVE",
"489 325 CURVE",
"489 52 LINE SMOOTH",
"489 22 OFFCURVE",
"511 0 OFFCURVE",
"541 0 CURVE SMOOTH"
);
}
);
width = 625;
},
{
layerId = "952115DE-4B60-44C8-B7C0-A1F0450151B4";
paths = (
{
closed = 1;
nodes = (
"567 0 OFFCURVE",
"581 13 OFFCURVE",
"581 30 CURVE SMOOTH",
"581 751 LINE SMOOTH",
"581 768 OFFCURVE",
"567 781 OFFCURVE",
"551 781 CURVE SMOOTH",
"534 781 OFFCURVE",
"521 768 OFFCURVE",
"521 751 CURVE SMOOTH",
"521 551 LINE SMOOTH",
"521 436 OFFCURVE",
"425 340 OFFCURVE",
"311 340 CURVE SMOOTH",
"196 340 OFFCURVE",
"100 436 OFFCURVE",
"100 551 CURVE SMOOTH",
"100 751 LINE SMOOTH",
"100 768 OFFCURVE",
"87 781 OFFCURVE",
"70 781 CURVE SMOOTH",
"53 781 OFFCURVE",
"40 768 OFFCURVE",
"40 751 CURVE SMOOTH",
"40 551 LINE SMOOTH",
"40 402 OFFCURVE",
"162 280 OFFCURVE",
"311 280 CURVE SMOOTH",
"386 280 OFFCURVE",
"449 307 OFFCURVE",
"502 359 CURVE SMOOTH",
"521 378 LINE",
"521 30 LINE SMOOTH",
"521 13 OFFCURVE",
"534 0 OFFCURVE",
"551 0 CURVE SMOOTH"
);
}
);
width = 625;
},
{
layerId = "E42B920F-7E89-45C7-8F78-304483CE0F77";
width = 600;
}
);
unicode = 0427;
},
{
color = 11;
export = 0;
glyphname = afii10040;
layers = (
{
layerId = UUID0;
paths = (
{
closed = 1;
nodes = (
"646 -150 OFFCURVE",
"668 -24 OFFCURVE",
"668 52 CURVE SMOOTH",
"668 81 OFFCURVE",
"646 104 OFFCURVE",
"617 104 CURVE SMOOTH",
"593 104 LINE",
"593 729 LINE SMOOTH",
"593 758 OFFCURVE",
"570 781 OFFCURVE",
"542 781 CURVE SMOOTH",
"512 781 OFFCURVE",
"490 759 OFFCURVE",
"490 729 CURVE SMOOTH",
"490 104 LINE",
"141 104 LINE",
"141 729 LINE SMOOTH",
"141 759 OFFCURVE",
"119 781 OFFCURVE",
"89 781 CURVE SMOOTH",
"60 781 OFFCURVE",
"38 759 OFFCURVE",
"38 729 CURVE SMOOTH",
"38 52 LINE SMOOTH",
"38 22 OFFCURVE",
"60 0 OFFCURVE",
"89 0 CURVE SMOOTH",
"559 0 LINE",
"556 -26 OFFCURVE",
"549 -51 OFFCURVE",
"537 -74 CURVE SMOOTH",
"533 -83 OFFCURVE",
"531 -90 OFFCURVE",
"531 -99 CURVE SMOOTH",
"531 -127 OFFCURVE",
"554 -150 OFFCURVE",
"583 -150 CURVE SMOOTH"
);
}
);
width = 703;
},
{
layerId = "952115DE-4B60-44C8-B7C0-A1F0450151B4";
paths = (
{
closed = 1;
nodes = (
"639 -160 OFFCURVE",
"661 -32 OFFCURVE",
"661 30 CURVE SMOOTH",
"661 46 OFFCURVE",
"647 60 OFFCURVE",
"631 60 CURVE SMOOTH",
"581 60 LINE",
"581 751 LINE SMOOTH",
"581 768 OFFCURVE",
"567 781 OFFCURVE",
"550 781 CURVE SMOOTH",
"534 781 OFFCURVE",
"521 768 OFFCURVE",
"521 751 CURVE SMOOTH",
"521 60 LINE",
"100 60 LINE",
"100 751 LINE SMOOTH",
"100 768 OFFCURVE",
"87 781 OFFCURVE",
"70 781 CURVE SMOOTH",
"53 781 OFFCURVE",
"40 768 OFFCURVE",
"40 751 CURVE SMOOTH",
"40 30 LINE SMOOTH",
"40 13 OFFCURVE",
"53 0 OFFCURVE",
"70 0 CURVE SMOOTH",
"598 0 LINE",
"592 -51 OFFCURVE",
"582 -90 OFFCURVE",
"568 -116 CURVE SMOOTH",
"565 -121 OFFCURVE",
"564 -125 OFFCURVE",
"564 -130 CURVE SMOOTH",
"564 -147 OFFCURVE",
"578 -160 OFFCURVE",
"595 -160 CURVE SMOOTH"
);
}
);
width = 703;
},
{
layerId = "E42B920F-7E89-45C7-8F78-304483CE0F77";
width = 600;
}
);
unicode = 0426;
},
{
color = 11;
export = 0;
glyphname = afii10042;
layers = (
{
layerId = UUID0;
paths = (
{
closed = 1;
nodes = (
"692 0 LINE SMOOTH",
"722 0 OFFCURVE",
"744 22 OFFCURVE",
"744 52 CURVE SMOOTH",
"744 729 LINE SMOOTH",
"744 759 OFFCURVE",
"722 781 OFFCURVE",
"692 781 CURVE SMOOTH",
"664 781 OFFCURVE",
"641 758 OFFCURVE",
"641 729 CURVE SMOOTH",
"641 104 LINE",
"443 104 LINE",
"443 729 LINE SMOOTH",
"443 758 OFFCURVE",
"420 781 OFFCURVE",
"392 781 CURVE SMOOTH",
"362 781 OFFCURVE",
"340 759 OFFCURVE",
"340 729 CURVE SMOOTH",
"340 104 LINE",
"142 104 LINE",
"142 729 LINE SMOOTH",
"142 758 OFFCURVE",
"119 781 OFFCURVE",
"90 781 CURVE SMOOTH",
"61 781 OFFCURVE",
"39 759 OFFCURVE",
"39 729 CURVE SMOOTH",
"39 52 LINE SMOOTH",
"39 22 OFFCURVE",
"61 0 OFFCURVE",
"90 0 CURVE SMOOTH"
);
}
);
width = 781;
},
{
layerId = "952115DE-4B60-44C8-B7C0-A1F0450151B4";
paths = (
{
closed = 1;
nodes = (
"710 0 LINE SMOOTH",
"728 0 OFFCURVE",
"740 13 OFFCURVE",
"740 30 CURVE SMOOTH",
"740 751 LINE SMOOTH",
"740 768 OFFCURVE",
"728 781 OFFCURVE",
"710 781 CURVE SMOOTH",
"693 781 OFFCURVE",
"680 768 OFFCURVE",
"680 751 CURVE SMOOTH",
"680 60 LINE",
"420 60 LINE",
"420 751 LINE SMOOTH",
"420 768 OFFCURVE",
"407 781 OFFCURVE",
"390 781 CURVE SMOOTH",
"373 781 OFFCURVE",
"360 768 OFFCURVE",
"360 751 CURVE SMOOTH",
"360 60 LINE",
"99 60 LINE",
"99 751 LINE SMOOTH",
"99 768 OFFCURVE",
"86 781 OFFCURVE",
"69 781 CURVE SMOOTH",
"52 781 OFFCURVE",
"39 768 OFFCURVE",
"39 751 CURVE SMOOTH",
"39 30 LINE SMOOTH",
"39 13 OFFCURVE",
"52 0 OFFCURVE",
"69 0 CURVE SMOOTH"
);
}
);
width = 781;
},
{
layerId = "E42B920F-7E89-45C7-8F78-304483CE0F77";
width = 600;
}
);
unicode = 0428;
},
{
color = 11;
export = 0;
glyphname = afii10043;
layers = (
{
layerId = UUID0;
paths = (
{
closed = 1;
nodes = (
"797 -150 OFFCURVE",
"820 -24 OFFCURVE",
"820 52 CURVE SMOOTH",
"820 81 OFFCURVE",
"798 104 OFFCURVE",
"769 104 CURVE SMOOTH",
"745 104 LINE",
"745 729 LINE SMOOTH",
"745 759 OFFCURVE",
"723 781 OFFCURVE",
"693 781 CURVE SMOOTH",
"664 781 OFFCURVE",
"642 759 OFFCURVE",
"642 729 CURVE SMOOTH",
"642 104 LINE",
"444 104 LINE",
"444 729 LINE SMOOTH",
"444 759 OFFCURVE",
"421 781 OFFCURVE",
"392 781 CURVE SMOOTH",
"363 781 OFFCURVE",
"340 759 OFFCURVE",
"340 729 CURVE SMOOTH",
"340 104 LINE",
"143 104 LINE",
"143 729 LINE SMOOTH",
"143 759 OFFCURVE",
"120 781 OFFCURVE",
"91 781 CURVE SMOOTH",
"62 781 OFFCURVE",
"39 759 OFFCURVE",
"39 729 CURVE SMOOTH",
"39 52 LINE SMOOTH",
"39 22 OFFCURVE",
"62 0 OFFCURVE",
"91 0 CURVE SMOOTH",
"710 0 LINE",
"708 -26 OFFCURVE",
"701 -51 OFFCURVE",
"689 -74 CURVE SMOOTH",
"685 -83 OFFCURVE",
"683 -90 OFFCURVE",
"683 -99 CURVE SMOOTH",
"683 -127 OFFCURVE",
"706 -150 OFFCURVE",
"734 -150 CURVE SMOOTH"
);
}
);
width = 859;
},
{
layerId = "952115DE-4B60-44C8-B7C0-A1F0450151B4";
paths = (
{
closed = 1;
nodes = (
"797 -160 OFFCURVE",
"820 -33 OFFCURVE",
"820 30 CURVE SMOOTH",
"820 46 OFFCURVE",
"807 60 OFFCURVE",
"790 60 CURVE SMOOTH",
"740 60 LINE",
"740 751 LINE SMOOTH",
"740 768 OFFCURVE",
"726 781 OFFCURVE",
"710 781 CURVE SMOOTH",
"693 781 OFFCURVE",
"680 768 OFFCURVE",
"680 751 CURVE SMOOTH",
"680 60 LINE",
"419 60 LINE",
"419 751 LINE SMOOTH",
"419 768 OFFCURVE",
"406 781 OFFCURVE",
"389 781 CURVE SMOOTH",
"372 781 OFFCURVE",
"359 768 OFFCURVE",
"359 751 CURVE SMOOTH",
"359 60 LINE",
"99 60 LINE",
"99 751 LINE SMOOTH",
"99 768 OFFCURVE",
"86 781 OFFCURVE",
"69 781 CURVE SMOOTH",
"52 781 OFFCURVE",
"39 768 OFFCURVE",
"39 751 CURVE SMOOTH",
"39 30 LINE SMOOTH",
"39 13 OFFCURVE",
"52 0 OFFCURVE",
"69 0 CURVE SMOOTH",
"757 0 LINE",
"751 -53 OFFCURVE",
"741 -91 OFFCURVE",
"728 -116 CURVE SMOOTH",
"725 -121 OFFCURVE",
"724 -126 OFFCURVE",
"724 -130 CURVE SMOOTH",
"724 -147 OFFCURVE",
"737 -160 OFFCURVE",
"754 -160 CURVE SMOOTH"
);
}
);
width = 859;
},
{
layerId = "E42B920F-7E89-45C7-8F78-304483CE0F77";
width = 600;
}
);
unicode = 0429;
},
{
color = 11;
export = 0;
glyphname = afii10145;
layers = (
{
layerId = UUID0;
paths = (
{
closed = 1;
nodes = (
"344 -150 OFFCURVE",
"366 -128 OFFCURVE",
"366 -99 CURVE SMOOTH",
"366 0 LINE",
"541 0 LINE SMOOTH",
"570 0 OFFCURVE",
"592 22 OFFCURVE",
"592 52 CURVE SMOOTH",
"592 729 LINE SMOOTH",
"592 759 OFFCURVE",
"570 781 OFFCURVE",
"541 781 CURVE SMOOTH",
"511 781 OFFCURVE",
"489 759 OFFCURVE",
"489 729 CURVE SMOOTH",
"489 104 LINE",
"141 104 LINE",
"141 729 LINE SMOOTH",
"141 759 OFFCURVE",
"118 781 OFFCURVE",
"89 781 CURVE SMOOTH",
"60 781 OFFCURVE",
"37 759 OFFCURVE",
"37 729 CURVE SMOOTH",
"37 52 LINE SMOOTH",
"37 22 OFFCURVE",
"60 0 OFFCURVE",
"89 0 CURVE SMOOTH",
"263 0 LINE",
"263 -99 LINE SMOOTH",
"263 -127 OFFCURVE",
"286 -150 OFFCURVE",
"314 -150 CURVE SMOOTH"
);
}
);
width = 625;
},
{
layerId = "952115DE-4B60-44C8-B7C0-A1F0450151B4";
paths = (
{
closed = 1;
nodes = (
"328 -160 OFFCURVE",
"341 -147 OFFCURVE",
"341 -130 CURVE SMOOTH",
"341 0 LINE",
"551 0 LINE SMOOTH",
"567 0 OFFCURVE",
"581 13 OFFCURVE",
"581 30 CURVE SMOOTH",
"581 751 LINE SMOOTH",
"581 768 OFFCURVE",
"567 781 OFFCURVE",
"551 781 CURVE SMOOTH",
"534 781 OFFCURVE",
"521 768 OFFCURVE",
"521 751 CURVE SMOOTH",
"521 60 LINE",
"100 60 LINE",
"100 751 LINE SMOOTH",
"100 768 OFFCURVE",
"87 781 OFFCURVE",
"70 781 CURVE SMOOTH",
"53 781 OFFCURVE",
"40 768 OFFCURVE",
"40 751 CURVE SMOOTH",
"40 30 LINE SMOOTH",
"40 13 OFFCURVE",
"53 0 OFFCURVE",
"70 0 CURVE SMOOTH",
"281 0 LINE",
"281 -130 LINE SMOOTH",
"281 -147 OFFCURVE",
"293 -160 OFFCURVE",
"311 -160 CURVE SMOOTH"
);
}
);
width = 625;
},
{
layerId = "E42B920F-7E89-45C7-8F78-304483CE0F77";
width = 600;
}
);
unicode = 040F;
},
